<svg xmlns="http://www.w3.org/2000/svg" xmlns:xlink="http://www.w3.org/1999/xlink" width="400" zoomAndPan="magnify" viewBox="0 0 300 299.999988" height="400" preserveAspectRatio="xMidYMid meet" version="1.0"><defs><clipPath id="2b4fb42f41"><path d="M 28 22.46875 L 272 22.46875 L 272 277.46875 L 28 277.46875 Z M 28 22.46875 " clip-rule="nonzero"/></clipPath></defs><g clip-path="url(#2b4fb42f41)"><path fill="#686864" d="M 128.507812 215.0625 C 129.285156 214.421875 130.0625 213.777344 130.757812 213.082031 C 141.328125 202.511719 141.757812 186.210938 141.785156 185.515625 C 141.785156 184.792969 141.488281 184.097656 140.980469 183.5625 C 140.472656 183.054688 139.777344 182.8125 139.054688 182.785156 C 138.8125 182.785156 133.808594 182.917969 127.597656 184.738281 C 126.742188 179.707031 125.027344 175.988281 124.921875 175.800781 C 124.359375 174.570312 122.96875 173.980469 121.683594 174.382812 C 121.46875 174.460938 116.839844 175.988281 112.101562 179.359375 C 108.863281 173.015625 104.957031 168.894531 104.796875 168.707031 C 104.289062 168.199219 103.589844 167.90625 102.867188 167.90625 C 102.121094 167.90625 101.421875 168.199219 100.941406 168.707031 C 100.726562 168.921875 96.792969 173.070312 93.527344 179.492188 C 88.738281 176.039062 84 174.460938 83.757812 174.382812 C 82.5 173.980469 81.109375 174.570312 80.546875 175.800781 C 80.441406 175.988281 78.753906 179.679688 77.871094 184.683594 C 71.742188 182.917969 66.816406 182.785156 66.605469 182.785156 C 65.855469 182.757812 65.160156 183.054688 64.648438 183.5625 C 64.140625 184.097656 63.847656 184.792969 63.875 185.515625 C 63.875 186.210938 64.300781 202.511719 74.875 213.082031 C 75.570312 213.75 76.347656 214.421875 77.121094 215.035156 C 70.671875 218.433594 66.605469 223.304688 66.390625 223.546875 C 65.90625 224.136719 65.695312 224.882812 65.800781 225.632812 C 65.90625 226.382812 66.335938 227.050781 66.980469 227.480469 C 67.351562 227.75 75.488281 233.101562 85.339844 233.101562 C 86.542969 233.101562 87.800781 233.019531 89.058594 232.859375 C 94.757812 232.03125 99.550781 229.21875 102.816406 226.785156 C 106.082031 229.21875 110.898438 232.003906 116.570312 232.859375 C 117.828125 233.019531 119.085938 233.101562 120.292969 233.101562 C 130.140625 233.101562 138.277344 227.722656 138.652344 227.480469 C 139.292969 227.050781 139.722656 226.382812 139.828125 225.632812 C 139.9375 224.882812 139.722656 224.136719 139.242188 223.546875 C 139.027344 223.304688 134.957031 218.433594 128.507812 215.0625 Z M 120.988281 180.402344 C 121.523438 181.929688 122.136719 184.097656 122.488281 186.53125 C 122.21875 186.664062 121.953125 186.800781 121.683594 186.933594 C 121.09375 187.203125 120.53125 187.46875 119.996094 187.738281 C 119.433594 188.03125 118.875 188.324219 118.339844 188.648438 C 117.804688 188.941406 117.292969 189.261719 116.785156 189.582031 C 116.519531 189.769531 116.195312 189.929688 115.929688 190.117188 C 115.875 189.878906 115.824219 189.664062 115.769531 189.449219 C 115.6875 189.019531 115.582031 188.59375 115.472656 188.164062 C 115.3125 187.574219 115.152344 186.988281 114.992188 186.398438 C 114.859375 185.96875 114.726562 185.515625 114.566406 185.085938 C 114.484375 184.847656 114.429688 184.605469 114.324219 184.363281 C 116.730469 182.492188 119.25 181.207031 120.988281 180.402344 Z M 112.289062 212.359375 L 112.636719 211.636719 C 115.101562 206.523438 116.382812 201.441406 116.464844 196.515625 C 119.140625 194.160156 122.433594 192.234375 126.339844 190.789062 C 126.769531 190.601562 127.222656 190.441406 127.679688 190.304688 C 130.96875 189.207031 134.023438 188.671875 136.164062 188.40625 C 135.546875 193.195312 133.511719 202.75 126.984375 209.28125 C 125.457031 210.808594 123.691406 212.171875 121.710938 213.347656 C 117.722656 215.730469 113.492188 217.070312 109.960938 217.820312 C 109.878906 217.472656 109.800781 217.148438 109.667969 216.828125 C 110.601562 215.382812 111.488281 213.882812 112.289062 212.359375 Z M 84.480469 180.402344 C 86.273438 181.234375 88.871094 182.570312 91.332031 184.5 C 91.253906 184.738281 91.199219 184.980469 91.121094 185.246094 C 90.957031 185.675781 90.824219 186.105469 90.691406 186.53125 C 90.53125 187.121094 90.371094 187.683594 90.234375 188.246094 C 90.128906 188.699219 90.023438 189.128906 89.914062 189.582031 C 89.886719 189.769531 89.835938 189.957031 89.78125 190.171875 C 89.511719 189.984375 89.191406 189.824219 88.925781 189.636719 C 88.390625 189.289062 87.828125 188.941406 87.238281 188.621094 C 86.730469 188.296875 86.195312 188.03125 85.632812 187.738281 C 85.042969 187.441406 84.429688 187.148438 83.785156 186.851562 C 83.519531 186.746094 83.277344 186.585938 82.984375 186.480469 C 83.332031 184.070312 83.945312 181.929688 84.480469 180.402344 Z M 69.496094 188.40625 C 71.875 188.699219 75.410156 189.34375 79.183594 190.734375 C 83.171875 192.207031 86.542969 194.1875 89.273438 196.59375 C 89.351562 201.789062 90.773438 207.167969 93.554688 212.546875 C 94.277344 213.992188 95.132812 215.4375 96.042969 216.855469 C 95.910156 217.175781 95.828125 217.496094 95.75 217.820312 C 92.191406 217.070312 87.90625 215.730469 83.921875 213.347656 C 81.941406 212.144531 80.171875 210.78125 78.675781 209.28125 C 72.117188 202.75 70.109375 193.195312 69.496094 188.40625 Z M 88.28125 227.5625 C 82.152344 228.445312 76.210938 226.25 72.839844 224.617188 C 74.902344 222.714844 78.273438 220.175781 82.367188 218.59375 C 87.453125 221.378906 92.777344 222.796875 96.820312 223.464844 C 96.953125 223.679688 97.140625 223.867188 97.300781 224.082031 C 94.8125 225.605469 91.734375 227.050781 88.28125 227.5625 Z M 102.867188 221.539062 C 101.691406 221.539062 100.753906 220.574219 100.753906 219.425781 C 100.753906 218.246094 101.691406 217.308594 102.867188 217.308594 C 104.019531 217.308594 104.984375 218.246094 104.984375 219.425781 C 104.984375 220.574219 104.019531 221.539062 102.867188 221.539062 Z M 107.472656 209.976562 C 106.992188 210.914062 106.453125 211.851562 105.894531 212.789062 C 105.8125 212.734375 105.734375 212.707031 105.707031 212.679688 C 105.679688 212.679688 105.410156 212.574219 105.382812 212.574219 C 105.171875 212.464844 104.957031 212.414062 104.714844 212.359375 C 104.394531 212.277344 104.074219 212.226562 103.726562 212.171875 C 103.164062 212.089844 102.601562 212.089844 101.984375 212.171875 C 101.421875 212.253906 100.941406 212.359375 100.433594 212.519531 L 100.21875 212.625 C 100.113281 212.652344 99.953125 212.707031 99.816406 212.789062 C 99.28125 211.902344 98.773438 211.019531 98.320312 210.109375 C 95.828125 205.265625 94.570312 200.53125 94.570312 196.007812 L 94.570312 195.417969 C 94.597656 194.535156 94.679688 193.679688 94.785156 192.792969 C 94.894531 191.910156 95.054688 191.027344 95.269531 190.144531 C 95.667969 188.351562 96.230469 186.558594 97.007812 184.710938 C 98.773438 180.402344 101.183594 176.871094 102.867188 174.730469 C 104.179688 176.414062 105.945312 178.984375 107.527344 182.144531 C 107.925781 182.917969 108.300781 183.722656 108.675781 184.578125 C 110.203125 188.21875 111.03125 191.859375 111.140625 195.390625 L 111.140625 196.007812 C 111.140625 200.289062 110.015625 204.757812 107.738281 209.441406 Z M 117.347656 227.5625 C 113.949219 227.050781 110.871094 225.632812 108.410156 224.109375 C 108.570312 223.894531 108.757812 223.707031 108.917969 223.464844 C 112.90625 222.769531 118.175781 221.378906 123.261719 218.59375 C 127.359375 220.175781 130.730469 222.714844 132.789062 224.617188 C 129.417969 226.25 123.476562 228.445312 117.347656 227.5625 Z M 67.648438 53.089844 C 61.972656 47.332031 63.445312 38.824219 72.011719 27.851562 C 72.921875 26.671875 74.605469 26.484375 75.757812 27.394531 C 76.933594 28.304688 77.121094 29.992188 76.210938 31.140625 C 69.574219 39.652344 67.96875 45.78125 71.449219 49.339844 C 72.8125 50.707031 74.578125 51.457031 76.453125 52.230469 C 78.621094 53.140625 80.84375 54.078125 82.660156 56.03125 C 84.910156 58.441406 85.847656 62.027344 85.179688 65.585938 C 84.402344 69.734375 81.191406 75.808594 70.269531 81.164062 C 69.894531 81.351562 69.496094 81.429688 69.09375 81.429688 C 68.101562 81.429688 67.140625 80.867188 66.683594 79.933594 C 66.042969 78.59375 66.578125 77.015625 67.914062 76.347656 C 77.308594 71.742188 79.476562 67.003906 79.933594 64.597656 C 80.46875 61.757812 79.15625 60.101562 78.753906 59.644531 C 77.738281 58.546875 76.183594 57.90625 74.417969 57.15625 C 72.25 56.246094 69.761719 55.230469 67.648438 53.089844 Z M 94.652344 49.019531 C 88.976562 43.238281 90.449219 34.753906 99.015625 23.78125 C 99.925781 22.605469 101.609375 22.417969 102.761719 23.328125 C 103.9375 24.238281 104.125 25.921875 103.214844 27.074219 C 96.578125 35.585938 94.972656 41.714844 98.453125 45.273438 C 99.816406 46.636719 101.585938 47.386719 103.457031 48.164062 C 105.625 49.074219 107.847656 50.011719 109.667969 51.964844 C 111.914062 54.371094 112.851562 57.960938 112.183594 61.519531 C 111.40625 65.667969 108.195312 71.742188 97.273438 77.09375 C 96.902344 77.28125 96.5 77.363281 96.097656 77.363281 C 95.105469 77.363281 94.144531 76.800781 93.6875 75.863281 C 93.046875 74.527344 93.582031 72.945312 94.917969 72.277344 C 104.3125 67.675781 106.480469 62.9375 106.9375 60.527344 C 107.472656 57.691406 106.160156 56.03125 105.757812 55.578125 C 104.742188 54.480469 103.191406 53.835938 101.421875 53.089844 C 99.230469 52.203125 96.765625 51.1875 94.652344 49.019531 Z M 121.308594 53.089844 C 115.636719 47.308594 117.105469 38.824219 125.671875 27.851562 C 126.582031 26.671875 128.265625 26.484375 129.417969 27.394531 C 130.597656 28.304688 130.785156 29.992188 129.875 31.140625 C 123.234375 39.652344 121.628906 45.78125 125.109375 49.339844 C 126.472656 50.707031 128.242188 51.457031 130.113281 52.230469 C 132.28125 53.140625 134.503906 54.078125 136.324219 56.03125 C 138.570312 58.441406 139.507812 62.027344 138.839844 65.585938 C 138.0625 69.734375 134.851562 75.808594 123.933594 81.164062 C 123.558594 81.351562 123.15625 81.429688 122.753906 81.429688 C 121.765625 81.429688 120.800781 80.867188 120.34375 79.933594 C 119.703125 78.59375 120.238281 77.015625 121.578125 76.347656 C 130.96875 71.742188 133.136719 67.003906 133.59375 64.597656 C 134.128906 61.757812 132.816406 60.101562 132.414062 59.644531 C 131.398438 58.546875 129.847656 57.90625 128.082031 57.15625 C 125.886719 56.246094 123.421875 55.230469 121.308594 53.089844 Z M 269.257812 272.148438 L 245.332031 272.148438 C 256.25 266.128906 263.613281 254.96875 263.613281 242.175781 C 263.613281 240.703125 262.40625 239.496094 260.933594 239.496094 L 243.671875 239.496094 L 243.671875 223.414062 C 243.671875 221.941406 242.496094 220.734375 240.996094 220.734375 L 229.113281 220.734375 L 229.113281 216.425781 C 233.019531 215.277344 235.910156 211.664062 235.910156 207.382812 C 235.910156 202.910156 230.15625 196.40625 228.390625 194.535156 C 227.375 193.4375 225.5 193.4375 224.484375 194.535156 C 222.71875 196.40625 216.9375 202.910156 216.9375 207.382812 C 216.9375 211.664062 219.828125 215.277344 223.761719 216.425781 L 223.761719 220.734375 L 211.851562 220.734375 C 210.378906 220.734375 209.175781 221.941406 209.175781 223.414062 L 209.175781 239.496094 L 192.957031 239.496094 C 191.484375 239.496094 190.277344 240.703125 190.277344 242.175781 C 190.277344 254.96875 197.640625 266.128906 208.558594 272.148438 L 137.796875 272.148438 C 159.152344 262.835938 174.460938 242.253906 175.53125 218.273438 C 175.558594 218.21875 175.558594 218.167969 175.558594 218.113281 L 175.558594 218.085938 C 175.558594 218.058594 175.558594 218.058594 175.558594 218.03125 C 175.558594 217.660156 175.613281 217.308594 175.613281 216.9375 C 175.773438 210.21875 174.890625 203.632812 172.964844 197.371094 C 170.234375 188.433594 165.390625 180.027344 158.9375 173.097656 C 154.949219 168.839844 150.320312 165.226562 145.207031 162.417969 C 144.753906 162.175781 144.21875 161.910156 143.65625 161.613281 C 135.359375 157.226562 118.042969 148.152344 116.359375 103.484375 C 116.144531 97.972656 111.699219 93.660156 106.214844 93.660156 L 97.460938 93.660156 C 92.003906 93.660156 87.558594 97.972656 87.347656 103.484375 C 85.632812 148.152344 68.34375 157.226562 60.019531 161.613281 C 59.457031 161.910156 58.949219 162.175781 58.496094 162.417969 C 53.382812 165.226562 48.753906 168.839844 44.738281 173.097656 C 38.289062 180.027344 33.445312 188.433594 30.714844 197.371094 C 28.8125 203.632812 27.929688 210.21875 28.089844 216.9375 C 28.089844 217.308594 28.117188 217.683594 28.144531 218.058594 C 28.144531 218.085938 28.117188 218.085938 28.117188 218.113281 C 28.117188 218.167969 28.144531 218.21875 28.144531 218.273438 C 29.242188 242.253906 44.550781 262.835938 65.882812 272.148438 L 30.742188 272.148438 C 29.269531 272.148438 28.0625 273.355469 28.0625 274.824219 C 28.0625 276.296875 29.269531 277.503906 30.742188 277.503906 L 269.257812 277.503906 C 270.730469 277.503906 271.933594 276.296875 271.933594 274.824219 C 271.933594 273.355469 270.730469 272.148438 269.257812 272.148438 Z M 92.699219 103.671875 C 92.804688 101.074219 94.894531 99.015625 97.460938 99.015625 L 106.214844 99.015625 C 108.808594 99.015625 110.898438 101.074219 111.003906 103.671875 C 111.113281 106.402344 111.273438 108.996094 111.488281 111.488281 L 92.214844 111.488281 C 92.429688 108.996094 92.589844 106.402344 92.699219 103.671875 Z M 33.445312 216.800781 C 33.28125 210.644531 34.113281 204.625 35.851562 198.921875 C 38.339844 190.761719 42.757812 183.078125 48.644531 176.761719 C 52.257812 172.910156 56.433594 169.644531 61.0625 167.101562 C 61.519531 166.859375 62 166.621094 62.507812 166.351562 C 70.164062 162.335938 87.023438 153.453125 91.628906 116.839844 L 112.046875 116.839844 C 116.652344 153.453125 133.539062 162.335938 141.167969 166.351562 C 141.703125 166.621094 142.183594 166.859375 142.613281 167.101562 C 147.242188 169.644531 151.417969 172.910156 155.03125 176.761719 C 160.917969 183.078125 165.363281 190.761719 167.851562 198.921875 C 169.589844 204.652344 170.394531 210.644531 170.261719 216.800781 C 170.261719 216.988281 170.234375 217.175781 170.207031 217.390625 C 159.472656 236.472656 138.25 248.328125 114.644531 248.328125 L 89.03125 248.328125 C 65.453125 248.328125 44.230469 236.472656 33.46875 217.390625 C 33.46875 217.175781 33.445312 217.015625 33.445312 216.800781 Z M 91.414062 272.148438 C 64.542969 272.148438 41.605469 253.816406 35.238281 229.273438 C 47.894531 244.554688 67.566406 253.683594 89.03125 253.683594 L 114.644531 253.683594 C 136.109375 253.683594 155.78125 244.554688 168.464844 229.300781 C 162.070312 253.816406 139.132812 272.148438 112.261719 272.148438 Z M 222.289062 207.382812 C 222.289062 206.148438 224.214844 203.152344 226.4375 200.421875 C 228.632812 203.152344 230.558594 206.148438 230.558594 207.382812 C 230.558594 209.65625 228.710938 211.503906 226.4375 211.503906 C 224.160156 211.503906 222.289062 209.65625 222.289062 207.382812 Z M 214.527344 226.089844 L 238.320312 226.089844 L 238.320312 239.496094 L 214.527344 239.496094 Z M 195.765625 244.851562 L 258.125 244.851562 C 256.679688 259.785156 243.246094 271.535156 226.945312 271.535156 C 210.644531 271.535156 197.210938 259.785156 195.765625 244.851562 Z M 195.765625 244.851562 " fill-opacity="1" fill-rule="nonzero"/></g></svg>