<svg xmlns="http://www.w3.org/2000/svg" xmlns:xlink="http://www.w3.org/1999/xlink" width="64" zoomAndPan="magnify" viewBox="0 0 48 48" height="64" preserveAspectRatio="xMidYMid meet" version="1.0"><defs><clipPath id="979a5d8e56"><path d="M 2.304688 0.851562 L 45.652344 0.851562 L 45.652344 46.402344 L 2.304688 46.402344 Z M 2.304688 0.851562 " clip-rule="nonzero"/></clipPath></defs><g clip-path="url(#979a5d8e56)"><path fill="#737373" d="M 20.179688 35.066406 C 20.316406 34.953125 20.453125 34.835938 20.578125 34.714844 C 22.457031 32.835938 22.53125 29.941406 22.535156 29.816406 C 22.535156 29.6875 22.484375 29.5625 22.394531 29.46875 C 22.304688 29.378906 22.179688 29.335938 22.050781 29.332031 C 22.007812 29.332031 21.121094 29.355469 20.015625 29.679688 C 19.863281 28.785156 19.558594 28.125 19.539062 28.089844 C 19.441406 27.871094 19.195312 27.765625 18.964844 27.839844 C 18.925781 27.851562 18.105469 28.125 17.261719 28.722656 C 16.6875 27.597656 15.992188 26.863281 15.964844 26.832031 C 15.875 26.742188 15.75 26.6875 15.625 26.6875 C 15.488281 26.6875 15.367188 26.742188 15.28125 26.832031 C 15.242188 26.867188 14.542969 27.605469 13.964844 28.746094 C 13.113281 28.132812 12.269531 27.851562 12.226562 27.839844 C 12.003906 27.765625 11.757812 27.871094 11.65625 28.089844 C 11.640625 28.125 11.339844 28.78125 11.183594 29.667969 C 10.09375 29.355469 9.21875 29.332031 9.179688 29.332031 C 9.046875 29.328125 8.925781 29.378906 8.832031 29.46875 C 8.742188 29.5625 8.691406 29.6875 8.695312 29.816406 C 8.695312 29.941406 8.773438 32.835938 10.648438 34.714844 C 10.773438 34.832031 10.910156 34.953125 11.050781 35.0625 C 9.902344 35.664062 9.179688 36.53125 9.144531 36.574219 C 9.058594 36.675781 9.019531 36.808594 9.039062 36.941406 C 9.058594 37.078125 9.132812 37.195312 9.246094 37.269531 C 9.3125 37.320312 10.757812 38.269531 12.507812 38.269531 C 12.722656 38.269531 12.945312 38.253906 13.167969 38.226562 C 14.183594 38.078125 15.035156 37.582031 15.613281 37.148438 C 16.195312 37.582031 17.050781 38.074219 18.058594 38.226562 C 18.28125 38.253906 18.503906 38.269531 18.71875 38.269531 C 20.46875 38.269531 21.914062 37.3125 21.980469 37.269531 C 22.09375 37.195312 22.171875 37.078125 22.1875 36.941406 C 22.207031 36.808594 22.171875 36.675781 22.085938 36.574219 C 22.046875 36.53125 21.324219 35.664062 20.179688 35.066406 Z M 18.84375 28.910156 C 18.9375 29.179688 19.046875 29.5625 19.109375 29.996094 C 19.0625 30.019531 19.011719 30.042969 18.964844 30.070312 C 18.859375 30.117188 18.761719 30.164062 18.664062 30.210938 C 18.566406 30.261719 18.464844 30.316406 18.371094 30.371094 C 18.277344 30.425781 18.1875 30.480469 18.09375 30.539062 C 18.046875 30.574219 17.992188 30.601562 17.941406 30.632812 C 17.933594 30.589844 17.925781 30.554688 17.914062 30.515625 C 17.902344 30.4375 17.882812 30.363281 17.863281 30.285156 C 17.832031 30.183594 17.804688 30.078125 17.777344 29.972656 C 17.753906 29.898438 17.730469 29.816406 17.699219 29.742188 C 17.6875 29.699219 17.675781 29.65625 17.65625 29.613281 C 18.085938 29.277344 18.53125 29.050781 18.84375 28.910156 Z M 17.296875 34.585938 L 17.359375 34.457031 C 17.796875 33.546875 18.023438 32.644531 18.039062 31.769531 C 18.515625 31.351562 19.097656 31.007812 19.792969 30.753906 C 19.867188 30.71875 19.949219 30.691406 20.03125 30.667969 C 20.617188 30.472656 21.15625 30.378906 21.539062 30.328125 C 21.429688 31.179688 21.066406 32.878906 19.90625 34.039062 C 19.636719 34.308594 19.320312 34.550781 18.96875 34.761719 C 18.261719 35.183594 17.511719 35.421875 16.882812 35.554688 C 16.867188 35.492188 16.855469 35.4375 16.832031 35.378906 C 16.996094 35.121094 17.152344 34.855469 17.296875 34.585938 Z M 12.355469 28.910156 C 12.675781 29.054688 13.136719 29.292969 13.574219 29.636719 C 13.558594 29.679688 13.550781 29.722656 13.535156 29.769531 C 13.507812 29.84375 13.484375 29.921875 13.460938 29.996094 C 13.429688 30.101562 13.402344 30.203125 13.378906 30.300781 C 13.359375 30.382812 13.339844 30.457031 13.320312 30.539062 C 13.316406 30.574219 13.308594 30.605469 13.296875 30.644531 C 13.25 30.609375 13.195312 30.582031 13.144531 30.546875 C 13.050781 30.488281 12.949219 30.425781 12.847656 30.367188 C 12.757812 30.3125 12.660156 30.261719 12.5625 30.210938 C 12.457031 30.160156 12.347656 30.105469 12.234375 30.054688 C 12.1875 30.035156 12.144531 30.007812 12.089844 29.988281 C 12.152344 29.558594 12.261719 29.179688 12.355469 28.910156 Z M 9.695312 30.328125 C 10.117188 30.382812 10.746094 30.496094 11.414062 30.742188 C 12.125 31.003906 12.722656 31.355469 13.207031 31.785156 C 13.222656 32.707031 13.472656 33.664062 13.96875 34.617188 C 14.097656 34.875 14.25 35.132812 14.410156 35.382812 C 14.386719 35.441406 14.371094 35.496094 14.359375 35.554688 C 13.726562 35.421875 12.964844 35.183594 12.257812 34.761719 C 11.90625 34.546875 11.589844 34.304688 11.324219 34.039062 C 10.160156 32.878906 9.804688 31.179688 9.695312 30.328125 Z M 13.03125 37.285156 C 11.941406 37.441406 10.886719 37.050781 10.289062 36.761719 C 10.65625 36.425781 11.253906 35.972656 11.980469 35.691406 C 12.882812 36.1875 13.832031 36.4375 14.546875 36.558594 C 14.574219 36.597656 14.605469 36.628906 14.632812 36.667969 C 14.191406 36.9375 13.644531 37.195312 13.03125 37.285156 Z M 15.625 36.214844 C 15.414062 36.214844 15.246094 36.042969 15.246094 35.839844 C 15.246094 35.632812 15.414062 35.464844 15.625 35.464844 C 15.828125 35.464844 16 35.632812 16 35.839844 C 16 36.042969 15.828125 36.214844 15.625 36.214844 Z M 16.441406 34.160156 C 16.355469 34.328125 16.261719 34.496094 16.160156 34.660156 C 16.144531 34.652344 16.132812 34.648438 16.128906 34.640625 C 16.121094 34.640625 16.074219 34.625 16.070312 34.625 C 16.03125 34.605469 15.992188 34.59375 15.949219 34.585938 C 15.894531 34.570312 15.835938 34.5625 15.773438 34.550781 C 15.675781 34.539062 15.574219 34.539062 15.464844 34.550781 C 15.367188 34.566406 15.28125 34.585938 15.191406 34.613281 L 15.152344 34.632812 C 15.132812 34.636719 15.105469 34.648438 15.082031 34.660156 C 14.984375 34.503906 14.894531 34.347656 14.816406 34.1875 C 14.371094 33.324219 14.148438 32.484375 14.148438 31.679688 L 14.148438 31.574219 C 14.152344 31.417969 14.167969 31.265625 14.1875 31.109375 C 14.207031 30.953125 14.234375 30.796875 14.273438 30.640625 C 14.34375 30.320312 14.445312 30 14.582031 29.671875 C 14.894531 28.910156 15.324219 28.28125 15.625 27.898438 C 15.855469 28.199219 16.167969 28.65625 16.449219 29.21875 C 16.523438 29.355469 16.589844 29.496094 16.65625 29.648438 C 16.925781 30.296875 17.074219 30.941406 17.09375 31.570312 L 17.09375 31.679688 C 17.09375 32.441406 16.890625 33.234375 16.488281 34.066406 Z M 18.195312 37.285156 C 17.589844 37.195312 17.042969 36.941406 16.605469 36.671875 C 16.636719 36.632812 16.667969 36.601562 16.699219 36.558594 C 17.40625 36.433594 18.34375 36.1875 19.246094 35.691406 C 19.972656 35.972656 20.574219 36.425781 20.9375 36.761719 C 20.339844 37.050781 19.285156 37.441406 18.195312 37.285156 Z M 9.367188 6.292969 C 8.359375 5.269531 8.621094 3.757812 10.140625 1.808594 C 10.304688 1.597656 10.601562 1.566406 10.808594 1.726562 C 11.015625 1.890625 11.050781 2.1875 10.886719 2.394531 C 9.707031 3.90625 9.421875 4.992188 10.042969 5.625 C 10.285156 5.867188 10.597656 6 10.929688 6.140625 C 11.316406 6.300781 11.710938 6.46875 12.035156 6.8125 C 12.433594 7.242188 12.597656 7.878906 12.480469 8.511719 C 12.34375 9.25 11.773438 10.328125 9.832031 11.277344 C 9.765625 11.3125 9.695312 11.328125 9.621094 11.328125 C 9.445312 11.328125 9.277344 11.226562 9.195312 11.058594 C 9.082031 10.824219 9.175781 10.542969 9.414062 10.421875 C 11.082031 9.605469 11.46875 8.761719 11.546875 8.335938 C 11.644531 7.832031 11.410156 7.535156 11.339844 7.457031 C 11.160156 7.261719 10.882812 7.148438 10.570312 7.015625 C 10.183594 6.851562 9.742188 6.671875 9.367188 6.292969 Z M 14.164062 5.570312 C 13.15625 4.542969 13.417969 3.035156 14.9375 1.085938 C 15.101562 0.875 15.398438 0.84375 15.605469 1.003906 C 15.8125 1.167969 15.847656 1.464844 15.683594 1.671875 C 14.503906 3.183594 14.21875 4.269531 14.839844 4.902344 C 15.082031 5.144531 15.394531 5.277344 15.726562 5.417969 C 16.113281 5.578125 16.507812 5.746094 16.832031 6.089844 C 17.230469 6.519531 17.398438 7.15625 17.277344 7.789062 C 17.140625 8.527344 16.570312 9.605469 14.628906 10.554688 C 14.5625 10.589844 14.492188 10.605469 14.421875 10.605469 C 14.246094 10.605469 14.074219 10.503906 13.992188 10.335938 C 13.878906 10.101562 13.972656 9.820312 14.210938 9.699219 C 15.878906 8.882812 16.265625 8.039062 16.347656 7.613281 C 16.441406 7.109375 16.207031 6.8125 16.136719 6.734375 C 15.957031 6.539062 15.679688 6.425781 15.367188 6.292969 C 14.976562 6.132812 14.539062 5.953125 14.164062 5.570312 Z M 18.898438 6.292969 C 17.890625 5.265625 18.152344 3.757812 19.675781 1.808594 C 19.835938 1.597656 20.136719 1.566406 20.339844 1.726562 C 20.546875 1.890625 20.582031 2.1875 20.421875 2.394531 C 19.242188 3.90625 18.957031 4.992188 19.574219 5.625 C 19.816406 5.867188 20.128906 6 20.464844 6.140625 C 20.847656 6.300781 21.242188 6.46875 21.566406 6.8125 C 21.964844 7.242188 22.132812 7.878906 22.011719 8.511719 C 21.875 9.25 21.304688 10.328125 19.363281 11.277344 C 19.296875 11.3125 19.226562 11.328125 19.15625 11.328125 C 18.980469 11.328125 18.808594 11.226562 18.726562 11.058594 C 18.613281 10.824219 18.707031 10.542969 18.945312 10.421875 C 20.617188 9.605469 21 8.761719 21.082031 8.335938 C 21.175781 7.832031 20.941406 7.535156 20.871094 7.457031 C 20.691406 7.261719 20.414062 7.148438 20.101562 7.015625 C 19.710938 6.851562 19.273438 6.671875 18.898438 6.292969 Z M 45.179688 45.207031 L 40.929688 45.207031 C 42.871094 44.136719 44.179688 42.152344 44.179688 39.882812 C 44.179688 39.621094 43.964844 39.40625 43.703125 39.40625 L 40.636719 39.40625 L 40.636719 36.546875 C 40.636719 36.289062 40.425781 36.074219 40.160156 36.074219 L 38.050781 36.074219 L 38.050781 35.308594 C 38.742188 35.101562 39.257812 34.460938 39.257812 33.699219 C 39.257812 32.90625 38.234375 31.75 37.921875 31.417969 C 37.742188 31.222656 37.40625 31.222656 37.226562 31.417969 C 36.914062 31.75 35.886719 32.90625 35.886719 33.699219 C 35.886719 34.460938 36.398438 35.101562 37.097656 35.308594 L 37.097656 36.074219 L 34.984375 36.074219 C 34.722656 36.074219 34.507812 36.289062 34.507812 36.546875 L 34.507812 39.40625 L 31.625 39.40625 C 31.363281 39.40625 31.152344 39.621094 31.152344 39.882812 C 31.152344 42.152344 32.457031 44.136719 34.398438 45.207031 L 21.828125 45.207031 C 25.621094 43.550781 28.339844 39.894531 28.53125 35.636719 C 28.535156 35.625 28.535156 35.617188 28.535156 35.605469 L 28.535156 35.601562 C 28.535156 35.597656 28.535156 35.597656 28.535156 35.59375 C 28.535156 35.527344 28.546875 35.464844 28.546875 35.398438 C 28.574219 34.203125 28.417969 33.035156 28.074219 31.921875 C 27.589844 30.335938 26.730469 28.839844 25.582031 27.609375 C 24.875 26.855469 24.054688 26.210938 23.144531 25.714844 C 23.0625 25.671875 22.96875 25.621094 22.867188 25.570312 C 21.394531 24.789062 18.320312 23.179688 18.019531 15.242188 C 17.980469 14.265625 17.191406 13.5 16.21875 13.5 L 14.664062 13.5 C 13.691406 13.5 12.902344 14.265625 12.867188 15.242188 C 12.5625 23.179688 9.488281 24.789062 8.011719 25.570312 C 7.910156 25.621094 7.820312 25.671875 7.738281 25.714844 C 6.832031 26.210938 6.007812 26.855469 5.296875 27.609375 C 4.152344 28.839844 3.289062 30.335938 2.804688 31.921875 C 2.46875 33.035156 2.3125 34.203125 2.339844 35.398438 C 2.339844 35.464844 2.34375 35.53125 2.347656 35.597656 C 2.347656 35.601562 2.34375 35.601562 2.34375 35.605469 C 2.34375 35.617188 2.347656 35.625 2.347656 35.636719 C 2.542969 39.894531 5.261719 43.550781 9.050781 45.207031 L 2.808594 45.207031 C 2.546875 45.207031 2.335938 45.421875 2.335938 45.683594 C 2.335938 45.945312 2.546875 46.15625 2.808594 46.15625 L 45.179688 46.15625 C 45.441406 46.15625 45.65625 45.945312 45.65625 45.683594 C 45.65625 45.421875 45.441406 45.207031 45.179688 45.207031 Z M 13.816406 15.277344 C 13.835938 14.816406 14.207031 14.449219 14.664062 14.449219 L 16.21875 14.449219 C 16.679688 14.449219 17.050781 14.816406 17.070312 15.277344 C 17.085938 15.761719 17.117188 16.222656 17.152344 16.664062 L 13.730469 16.664062 C 13.769531 16.222656 13.796875 15.761719 13.816406 15.277344 Z M 3.289062 35.375 C 3.261719 34.28125 3.410156 33.210938 3.71875 32.199219 C 4.160156 30.75 4.945312 29.382812 5.992188 28.261719 C 6.632812 27.578125 7.375 26.996094 8.195312 26.546875 C 8.277344 26.503906 8.363281 26.460938 8.453125 26.414062 C 9.8125 25.699219 12.808594 24.121094 13.625 17.617188 L 17.253906 17.617188 C 18.070312 24.121094 21.070312 25.699219 22.425781 26.414062 C 22.523438 26.460938 22.605469 26.503906 22.683594 26.546875 C 23.507812 26.996094 24.246094 27.578125 24.890625 28.261719 C 25.933594 29.382812 26.726562 30.75 27.167969 32.199219 C 27.476562 33.214844 27.617188 34.28125 27.59375 35.375 C 27.59375 35.40625 27.589844 35.441406 27.585938 35.480469 C 25.679688 38.867188 21.910156 40.976562 17.714844 40.976562 L 13.164062 40.976562 C 8.976562 40.976562 5.207031 38.867188 3.292969 35.480469 C 3.292969 35.441406 3.289062 35.414062 3.289062 35.375 Z M 13.589844 45.207031 C 8.816406 45.207031 4.738281 41.949219 3.609375 37.589844 C 5.859375 40.304688 9.351562 41.925781 13.164062 41.925781 L 17.714844 41.925781 C 21.527344 41.925781 25.023438 40.304688 27.277344 37.59375 C 26.140625 41.949219 22.066406 45.207031 17.292969 45.207031 Z M 36.835938 33.699219 C 36.835938 33.480469 37.179688 32.949219 37.574219 32.464844 C 37.964844 32.949219 38.304688 33.480469 38.304688 33.699219 C 38.304688 34.105469 37.980469 34.433594 37.574219 34.433594 C 37.171875 34.433594 36.835938 34.105469 36.835938 33.699219 Z M 35.457031 37.023438 L 39.683594 37.023438 L 39.683594 39.40625 L 35.457031 39.40625 Z M 32.125 40.355469 L 43.203125 40.355469 C 42.945312 43.011719 40.558594 45.097656 37.664062 45.097656 C 34.769531 45.097656 32.382812 43.011719 32.125 40.355469 Z M 32.125 40.355469 " fill-opacity="1" fill-rule="nonzero"/></g></svg>