<svg xmlns="http://www.w3.org/2000/svg" xmlns:xlink="http://www.w3.org/1999/xlink" width="64" zoomAndPan="magnify" viewBox="0 0 48 48" height="64" preserveAspectRatio="xMidYMid meet" version="1.0"><defs><clipPath id="76e38f537b"><path d="M 2.839844 3.039062 L 45.453125 3.039062 L 45.453125 44 L 2.839844 44 Z M 2.839844 3.039062 " clip-rule="nonzero"/></clipPath></defs><g clip-path="url(#76e38f537b)"><path fill="#737373" d="M 45.117188 38.035156 C 45.117188 38.140625 45.117188 38.222656 45.117188 38.328125 L 45.117188 43.417969 C 45.117188 43.710938 44.875 43.949219 44.585938 43.949219 C 44.292969 43.949219 44.054688 43.710938 44.054688 43.417969 L 44.054688 38.328125 C 44.054688 38.328125 44.054688 38.300781 44.054688 38.300781 C 44.054688 38.222656 44.054688 38.140625 44.054688 38.0625 C 44.054688 36.550781 42.914062 35.226562 41.351562 34.90625 L 39.28125 34.507812 C 38.753906 34.378906 38.273438 34.269531 37.71875 34.164062 C 34.855469 33.554688 31.621094 32.867188 29.683594 30.160156 C 29.285156 29.578125 28.941406 28.96875 28.703125 28.304688 L 25.839844 30.796875 C 25.574219 31.035156 25.230469 31.140625 24.886719 31.140625 C 24.566406 31.140625 24.25 31.035156 23.984375 30.796875 C 23.71875 31.011719 23.402344 31.140625 23.082031 31.140625 C 22.738281 31.140625 22.421875 31.035156 22.128906 30.796875 L 19.292969 28.332031 C 19.054688 28.96875 18.734375 29.578125 18.335938 30.160156 C 16.402344 32.867188 13.167969 33.554688 10.304688 34.164062 C 9.773438 34.269531 9.269531 34.378906 8.765625 34.507812 L 6.671875 34.933594 C 5.082031 35.199219 3.941406 36.523438 3.941406 38.0625 C 3.941406 38.140625 3.941406 38.222656 3.941406 38.300781 C 3.941406 38.300781 3.941406 38.328125 3.941406 38.328125 L 3.941406 43.417969 C 3.941406 43.710938 3.703125 43.949219 3.410156 43.949219 C 3.117188 43.949219 2.878906 43.710938 2.878906 43.417969 L 2.878906 38.328125 C 2.878906 38.222656 2.878906 38.140625 2.878906 38.035156 C 2.90625 36.019531 4.390625 34.246094 6.460938 33.847656 L 8.527344 33.449219 C 9.03125 33.34375 9.5625 33.210938 10.066406 33.105469 C 12.875 32.519531 15.765625 31.910156 17.4375 29.523438 C 17.886719 28.914062 18.203125 28.226562 18.417969 27.484375 C 18.363281 27.296875 18.390625 27.113281 18.523438 26.953125 C 18.707031 26.742188 19.054688 26.714844 19.265625 26.902344 L 22.816406 29.976562 C 22.976562 30.109375 23.1875 30.109375 23.320312 29.976562 C 23.480469 29.84375 23.480469 29.632812 23.375 29.472656 L 19.875 24.804688 C 19.210938 23.929688 18.417969 23.1875 17.460938 22.605469 L 16.585938 22.046875 C 16.535156 22.023438 16.480469 21.96875 16.429688 21.917969 L 9.214844 11.761719 C 9.058594 11.523438 9.109375 11.203125 9.347656 11.019531 C 9.585938 10.859375 9.90625 10.914062 10.089844 11.152344 L 17.222656 21.199219 L 18.019531 21.703125 C 19.078125 22.367188 19.980469 23.1875 20.722656 24.167969 L 21.042969 24.59375 C 20.988281 24.355469 21.121094 24.117188 21.332031 24.011719 C 22.472656 23.507812 23.003906 22.605469 23.164062 22.339844 L 23.164062 11.179688 C 23.082031 11.257812 23.03125 11.3125 22.949219 11.390625 C 22.472656 11.894531 22.101562 12.476562 21.890625 13.085938 C 21.703125 13.5625 21.625 14.359375 21.492188 15.976562 C 21.464844 16.347656 21.4375 16.691406 21.414062 16.984375 C 21.304688 18.230469 21.253906 18.894531 20.855469 19.769531 C 20.617188 20.296875 20.273438 20.777344 19.875 21.199219 C 19.769531 21.304688 19.636719 21.386719 19.476562 21.386719 C 19.34375 21.386719 19.210938 21.332031 19.132812 21.253906 C 18.921875 21.066406 18.894531 20.722656 19.105469 20.511719 C 19.425781 20.140625 19.6875 19.742188 19.902344 19.316406 C 20.21875 18.628906 20.273438 18.070312 20.378906 16.90625 C 20.40625 16.613281 20.433594 16.269531 20.457031 15.871094 C 20.617188 14.253906 20.695312 13.351562 20.933594 12.714844 C 21.226562 11.972656 21.652344 11.285156 22.234375 10.675781 C 22.632812 10.277344 23.082031 9.773438 23.214844 9.5625 L 23.214844 8.289062 C 23.214844 8.234375 23.214844 8.207031 23.242188 8.15625 C 23.109375 8.289062 22.976562 8.394531 22.816406 8.5 C 20.695312 9.984375 19.609375 12.210938 19.582031 15.101562 C 19.582031 18.789062 17.144531 19.636719 17.039062 19.664062 C 16.984375 19.6875 16.933594 19.6875 16.878906 19.6875 C 16.667969 19.6875 16.453125 19.554688 16.375 19.316406 C 16.269531 19.050781 16.429688 18.734375 16.71875 18.65625 C 16.800781 18.628906 18.550781 17.964844 18.550781 15.101562 C 18.550781 11.894531 19.820312 9.324219 22.234375 7.625 C 23.878906 6.457031 23.136719 4.550781 23.109375 4.445312 C 23.082031 4.390625 23.054688 4.335938 23.003906 4.285156 C 23.003906 4.285156 22.925781 4.230469 22.792969 4.207031 C 22.554688 4.179688 20.085938 4.390625 18.203125 6.007812 C 14.863281 8.820312 15.15625 14.464844 15.261719 15.578125 C 15.289062 15.871094 15.074219 16.136719 14.785156 16.164062 C 14.757812 16.164062 14.757812 16.164062 14.730469 16.164062 C 14.464844 16.164062 14.226562 15.949219 14.199219 15.683594 C 14.070312 13.988281 13.882812 8.261719 17.4375 5.1875 C 19.636719 3.304688 22.472656 3.039062 22.925781 3.144531 C 23.1875 3.199219 23.402344 3.332031 23.507812 3.410156 C 23.613281 3.332031 23.824219 3.199219 24.089844 3.144531 C 24.542969 3.066406 27.378906 3.304688 29.578125 5.1875 C 33.15625 8.261719 32.972656 13.988281 32.839844 15.660156 C 32.8125 15.949219 32.546875 16.164062 32.257812 16.136719 C 31.964844 16.109375 31.753906 15.84375 31.777344 15.554688 C 31.886719 14.4375 32.175781 8.765625 28.914062 5.957031 C 27.035156 4.363281 24.566406 4.152344 24.300781 4.179688 C 24.195312 4.207031 24.117188 4.257812 24.117188 4.285156 C 24.117188 4.285156 24.117188 4.285156 24.089844 4.3125 C 24.355469 5.160156 24.460938 6.617188 23.535156 7.785156 C 23.585938 7.757812 23.613281 7.757812 23.667969 7.757812 C 23.800781 7.757812 27.007812 7.625 28.703125 11.496094 C 28.808594 11.761719 28.703125 12.078125 28.4375 12.1875 C 28.171875 12.292969 27.855469 12.1875 27.75 11.921875 C 26.714844 9.5625 25.070312 9.003906 24.25 8.871094 L 24.25 12.476562 C 24.328125 12.847656 25.046875 15.632812 27.429688 16.71875 C 30.480469 18.097656 30.640625 19.742188 30.640625 19.925781 C 30.640625 20.21875 30.425781 20.457031 30.136719 20.484375 C 30.136719 20.484375 30.109375 20.484375 30.109375 20.484375 C 29.816406 20.484375 29.578125 20.273438 29.578125 19.980469 C 29.578125 19.980469 29.417969 18.789062 26.980469 17.699219 C 25.679688 17.117188 24.832031 16.164062 24.25 15.234375 L 24.25 22.417969 C 24.410156 22.710938 24.964844 23.585938 26.078125 24.089844 C 26.34375 24.222656 26.476562 24.515625 26.34375 24.78125 C 26.265625 24.964844 26.050781 25.097656 25.867188 25.097656 C 25.789062 25.097656 25.707031 25.070312 25.65625 25.042969 C 24.726562 24.621094 24.117188 24.011719 23.746094 23.507812 C 23.375 24.011719 22.765625 24.621094 21.835938 25.042969 C 21.757812 25.070312 21.703125 25.097656 21.625 25.097656 C 21.546875 25.097656 21.464844 25.070312 21.386719 25.042969 L 24.039062 28.597656 L 27.296875 24.222656 C 28.039062 23.242188 28.941406 22.394531 30.003906 21.757812 L 30.773438 21.28125 L 36.84375 11.257812 C 37.003906 11.019531 37.320312 10.941406 37.558594 11.070312 C 37.796875 11.230469 37.878906 11.550781 37.746094 11.789062 L 31.59375 21.917969 C 31.539062 21.996094 31.488281 22.046875 31.40625 22.101562 L 30.53125 22.660156 C 29.605469 23.242188 28.785156 23.984375 28.121094 24.859375 L 24.59375 29.5 C 24.488281 29.65625 24.488281 29.871094 24.648438 30.003906 C 24.78125 30.136719 25.019531 30.136719 25.152344 30.003906 L 28.703125 26.925781 C 28.914062 26.742188 29.261719 26.769531 29.445312 26.980469 C 29.550781 27.113281 29.605469 27.296875 29.550781 27.457031 C 29.765625 28.199219 30.109375 28.914062 30.558594 29.550781 C 32.257812 31.910156 35.144531 32.519531 37.929688 33.132812 C 38.433594 33.238281 38.964844 33.34375 39.496094 33.476562 L 41.535156 33.875 C 43.605469 34.269531 45.089844 36.019531 45.117188 38.035156 Z M 14.757812 31.515625 C 14.785156 31.515625 14.8125 31.515625 14.835938 31.515625 C 15.101562 31.515625 15.316406 31.328125 15.367188 31.0625 L 15.554688 29.710938 C 15.554688 29.65625 15.554688 29.578125 15.554688 29.523438 L 14.546875 25.28125 C 14.519531 25.175781 14.464844 25.070312 14.386719 25.019531 L 5.847656 17.59375 C 5.636719 17.410156 5.292969 17.433594 5.105469 17.648438 C 4.921875 17.859375 4.949219 18.203125 5.160156 18.390625 L 13.566406 25.679688 L 14.492188 29.632812 L 14.308594 30.902344 C 14.253906 31.195312 14.464844 31.460938 14.757812 31.515625 Z M 41.773438 18.363281 C 41.988281 18.152344 41.988281 17.832031 41.773438 17.621094 C 41.5625 17.410156 41.246094 17.410156 41.03125 17.621094 L 33.554688 25.019531 C 33.476562 25.097656 33.449219 25.175781 33.421875 25.257812 L 32.390625 29.472656 C 32.363281 29.523438 32.363281 29.605469 32.390625 29.65625 L 32.574219 31.011719 C 32.601562 31.273438 32.839844 31.460938 33.105469 31.460938 C 33.132812 31.460938 33.15625 31.460938 33.183594 31.460938 C 33.476562 31.433594 33.6875 31.167969 33.636719 30.878906 L 33.476562 29.632812 L 34.457031 25.65625 Z M 22.710938 6.246094 C 23.003906 6.167969 23.164062 5.875 23.109375 5.609375 C 23.03125 5.320312 22.738281 5.160156 22.472656 5.210938 C 21.4375 5.453125 19.558594 6.140625 18.097656 8.023438 C 16.375 10.222656 16.402344 12.664062 16.480469 13.589844 C 16.507812 13.855469 16.746094 14.066406 17.011719 14.066406 C 17.039062 14.066406 17.039062 14.066406 17.066406 14.066406 C 17.355469 14.042969 17.566406 13.777344 17.542969 13.484375 C 17.460938 12.664062 17.460938 10.570312 18.945312 8.660156 C 20.191406 7.042969 21.835938 6.457031 22.710938 6.246094 Z M 27.273438 34.457031 C 27.21875 33.582031 26.875 32.8125 26.238281 32.257812 C 25.601562 31.699219 24.753906 31.40625 23.90625 31.433594 C 23.03125 31.488281 22.207031 31.859375 21.625 32.519531 C 21.042969 33.15625 20.75 34.007812 20.804688 34.882812 C 20.855469 35.753906 21.226562 36.550781 21.890625 37.132812 C 22.101562 37.320312 22.445312 37.320312 22.632812 37.082031 C 22.816406 36.871094 22.816406 36.523438 22.578125 36.339844 C 22.15625 35.941406 21.890625 35.410156 21.835938 34.828125 C 21.808594 34.246094 21.996094 33.660156 22.394531 33.238281 C 22.792969 32.785156 23.320312 32.546875 23.929688 32.519531 C 24.515625 32.496094 25.097656 32.679688 25.523438 33.078125 C 26.050781 33.554688 26.183594 34.136719 26.210938 34.535156 C 26.238281 35.253906 26 35.886719 25.707031 36.179688 C 25.335938 36.578125 24.832031 36.84375 24.328125 37.054688 C 24.222656 37.109375 24.089844 37.160156 23.984375 37.214844 C 23.109375 37.585938 22.101562 38.007812 21.519531 38.964844 C 20.804688 40.128906 20.777344 41.589844 21.414062 42.621094 C 21.890625 43.390625 22.605469 43.761719 23.136719 43.949219 C 23.1875 43.976562 23.242188 43.976562 23.320312 43.976562 C 23.535156 43.976562 23.746094 43.84375 23.824219 43.628906 C 23.929688 43.363281 23.773438 43.046875 23.507812 42.941406 C 23.136719 42.808594 22.660156 42.570312 22.339844 42.066406 C 21.835938 41.242188 22.023438 40.210938 22.445312 39.519531 C 22.871094 38.859375 23.613281 38.539062 24.410156 38.195312 C 24.542969 38.140625 24.648438 38.089844 24.78125 38.035156 C 25.390625 37.769531 26.027344 37.453125 26.53125 36.894531 C 27.007812 36.285156 27.324219 35.359375 27.273438 34.457031 Z M 23.957031 36.128906 C 23.613281 36.128906 23.296875 36.019531 23.003906 35.753906 C 22.421875 35.226562 22.367188 34.324219 22.898438 33.742188 C 23.425781 33.15625 24.328125 33.105469 24.914062 33.636719 C 25.496094 34.164062 25.546875 35.066406 25.019531 35.648438 C 24.753906 35.96875 24.355469 36.128906 23.957031 36.128906 Z M 24.195312 34.429688 C 24.117188 34.378906 24.039062 34.351562 23.957031 34.351562 C 23.851562 34.351562 23.746094 34.402344 23.691406 34.484375 C 23.558594 34.640625 23.558594 34.855469 23.71875 34.988281 C 23.878906 35.121094 24.089844 35.121094 24.222656 34.960938 C 24.355469 34.800781 24.355469 34.5625 24.195312 34.429688 Z M 24.144531 42.117188 C 23.800781 42.117188 23.453125 41.988281 23.164062 41.746094 C 22.554688 41.21875 22.5 40.289062 23.054688 39.679688 C 23.585938 39.070312 24.515625 39.015625 25.125 39.574219 C 25.417969 39.839844 25.601562 40.183594 25.601562 40.582031 C 25.628906 40.980469 25.496094 41.351562 25.230469 41.640625 C 24.9375 41.960938 24.542969 42.117188 24.144531 42.117188 Z M 24.542969 40.632812 C 24.542969 40.527344 24.488281 40.421875 24.410156 40.367188 C 24.328125 40.289062 24.25 40.261719 24.144531 40.261719 C 24.039062 40.261719 23.929688 40.316406 23.851562 40.394531 C 23.691406 40.554688 23.71875 40.820312 23.878906 40.953125 C 24.039062 41.113281 24.300781 41.085938 24.433594 40.925781 C 24.515625 40.847656 24.542969 40.742188 24.542969 40.632812 Z M 24.542969 40.632812 " fill-opacity="1" fill-rule="nonzero"/></g></svg>