<svg xmlns="http://www.w3.org/2000/svg" xmlns:xlink="http://www.w3.org/1999/xlink" width="64" zoomAndPan="magnify" viewBox="0 0 48 48" height="64" preserveAspectRatio="xMidYMid meet" version="1.0"><defs><clipPath id="f721af7ecd"><path d="M 1.628906 1.140625 L 46.445312 1.140625 L 46.445312 45.957031 L 1.628906 45.957031 Z M 1.628906 1.140625 " clip-rule="nonzero"/></clipPath></defs><path fill="#737373" d="M 35.390625 11.203125 C 36.507812 11.203125 37.488281 10.296875 37.488281 9.105469 C 37.488281 8.128906 36.789062 7.289062 35.878906 7.082031 C 35.808594 7.082031 35.667969 7.082031 35.601562 7.082031 C 34.410156 7.011719 33.363281 7.917969 33.363281 9.175781 C 33.292969 10.296875 34.273438 11.203125 35.390625 11.203125 Z M 35.109375 8.128906 L 35.601562 8.128906 C 36.019531 8.269531 36.367188 8.6875 36.367188 9.105469 C 36.367188 9.667969 35.878906 10.15625 35.320312 10.15625 C 34.761719 10.15625 34.273438 9.667969 34.273438 9.105469 C 34.339844 8.6875 34.691406 8.269531 35.109375 8.128906 Z M 35.109375 8.128906 " fill-opacity="1" fill-rule="nonzero"/><path fill="#737373" d="M 30.289062 11.203125 C 31.40625 11.203125 32.382812 10.296875 32.382812 9.105469 C 32.382812 8.128906 31.6875 7.21875 30.707031 7.082031 C 29.238281 6.730469 27.980469 8.058594 28.261719 9.527344 C 28.398438 10.503906 29.308594 11.203125 30.289062 11.203125 Z M 30.007812 8.128906 C 30.359375 8.128906 30.496094 8.058594 30.847656 8.269531 C 31.125 8.476562 31.335938 8.757812 31.335938 9.175781 C 31.335938 9.738281 30.847656 10.226562 30.289062 10.226562 C 29.726562 10.226562 29.238281 9.738281 29.238281 9.175781 C 29.238281 8.6875 29.589844 8.269531 30.007812 8.128906 Z M 30.007812 8.128906 " fill-opacity="1" fill-rule="nonzero"/><path fill="#737373" d="M 14.910156 22.109375 C 17.496094 22.109375 19.59375 20.011719 19.59375 17.425781 C 19.59375 14.839844 17.496094 12.742188 14.910156 12.742188 C 12.324219 12.742188 10.226562 14.839844 10.226562 17.425781 C 10.226562 20.011719 12.324219 22.109375 14.910156 22.109375 Z M 14.910156 13.789062 C 16.9375 13.789062 18.542969 15.398438 18.542969 17.425781 C 18.542969 19.453125 16.9375 21.058594 14.910156 21.058594 C 12.882812 21.058594 11.273438 19.453125 11.273438 17.425781 C 11.273438 15.398438 12.953125 13.789062 14.910156 13.789062 Z M 14.910156 13.789062 " fill-opacity="1" fill-rule="nonzero"/><g clip-path="url(#f721af7ecd)"><path fill="#737373" d="M 45.804688 20.851562 C 44.617188 20.429688 43.707031 19.730469 43.289062 18.753906 C 45.105469 17.285156 46.15625 15.257812 46.15625 13.089844 C 46.15625 9.386719 43.148438 6.242188 38.886719 5.472656 C 37.207031 2.816406 33.921875 1.140625 30.289062 1.140625 C 25.882812 1.140625 22.109375 3.585938 20.851562 7.082031 L 4.84375 7.082031 C 3.097656 7.082031 1.699219 8.476562 1.699219 10.226562 C 1.699219 12.53125 1.699219 1.699219 1.699219 34.621094 C 1.699219 36.367188 3.097656 37.765625 4.84375 37.765625 L 16.238281 37.765625 L 14.980469 41.121094 L 14.210938 41.121094 C 12.464844 41.121094 10.996094 42.519531 10.996094 44.335938 L 10.996094 45.316406 C 10.996094 45.59375 11.203125 45.875 11.554688 45.875 L 32.664062 45.875 C 32.945312 45.875 33.222656 45.664062 33.222656 45.316406 L 33.222656 44.335938 C 33.222656 42.589844 31.824219 41.121094 30.007812 41.121094 L 29.238281 41.121094 L 27.980469 37.765625 L 39.445312 37.765625 C 41.261719 37.765625 42.589844 36.296875 42.589844 34.621094 C 42.589844 18.054688 42.589844 23.015625 42.589844 22.039062 C 43.847656 22.179688 45.105469 22.039062 45.734375 21.757812 C 46.292969 21.6875 46.292969 20.992188 45.804688 20.851562 Z M 30.289062 2.1875 C 33.644531 2.1875 36.648438 3.726562 38.1875 6.242188 C 41.121094 11.066406 36.859375 16.867188 30.289062 16.867188 C 30.21875 16.867188 30.21875 16.867188 30.148438 16.867188 C 29.519531 16.867188 28.890625 16.796875 28.261719 16.65625 C 28.121094 16.65625 27.980469 16.65625 27.839844 16.726562 C 25.882812 18.125 23.925781 18.335938 22.597656 18.265625 C 23.785156 17.496094 24.347656 16.445312 24.695312 15.679688 C 24.765625 15.46875 24.695312 15.1875 24.484375 15.050781 C 22.527344 13.652344 21.410156 11.625 21.410156 9.527344 C 21.410156 8.96875 21.480469 8.339844 21.691406 7.777344 C 22.667969 4.492188 26.234375 2.1875 30.289062 2.1875 Z M 4.84375 8.128906 L 20.570312 8.128906 C 20.433594 8.617188 20.433594 9.039062 20.433594 9.527344 C 20.433594 11.832031 21.550781 14.070312 23.578125 15.679688 C 23.085938 16.796875 22.109375 17.566406 20.78125 17.984375 C 20.292969 18.125 20.292969 18.824219 20.78125 18.964844 C 22.667969 19.59375 25.742188 19.453125 28.261719 17.703125 C 28.820312 17.773438 29.308594 17.84375 29.867188 17.84375 C 31.964844 20.152344 35.390625 21.199219 38.886719 20.640625 C 39.722656 21.199219 40.632812 21.621094 41.613281 21.828125 L 41.613281 32.875 L 24.625 32.875 L 24.625 29.65625 C 24.625 25.671875 21.339844 22.386719 17.285156 22.386719 C 17.078125 22.386719 16.9375 22.527344 16.796875 22.667969 L 14.910156 26.371094 L 13.023438 22.667969 C 12.953125 22.457031 12.742188 22.386719 12.53125 22.386719 C 8.546875 22.386719 5.261719 25.671875 5.261719 29.65625 L 5.261719 32.875 L 2.746094 32.875 L 2.746094 10.226562 C 2.746094 9.105469 3.65625 8.128906 4.84375 8.128906 Z M 2.746094 34.621094 L 2.746094 33.921875 C 10.226562 33.921875 32.523438 33.921875 41.679688 33.921875 L 41.679688 34.621094 C 41.679688 35.738281 40.773438 36.71875 39.585938 36.71875 C 24.066406 36.71875 20.640625 36.71875 4.914062 36.71875 C 3.65625 36.71875 2.746094 35.808594 2.746094 34.621094 Z M 23.578125 32.875 L 21.410156 32.875 L 20.992188 29.589844 C 20.921875 29.308594 20.710938 29.097656 20.433594 29.167969 C 20.152344 29.238281 19.941406 29.449219 20.011719 29.726562 L 20.433594 32.875 L 9.527344 32.875 L 9.945312 29.726562 C 10.015625 29.449219 9.808594 29.167969 9.527344 29.167969 C 9.246094 29.167969 8.96875 29.308594 8.96875 29.589844 L 8.546875 32.875 L 6.3125 32.875 L 6.3125 29.65625 C 6.3125 26.371094 8.96875 23.648438 12.253906 23.4375 L 14.488281 27.769531 C 14.699219 28.121094 15.257812 28.121094 15.398438 27.769531 L 17.636719 23.507812 C 20.921875 23.648438 23.578125 26.371094 23.578125 29.726562 Z M 32.175781 44.335938 L 32.175781 44.828125 L 12.183594 44.828125 L 12.183594 44.335938 C 12.183594 43.148438 13.160156 42.171875 14.351562 42.171875 C 20.710938 42.171875 23.785156 42.171875 30.148438 42.171875 C 31.195312 42.238281 32.175781 43.21875 32.175781 44.335938 Z M 28.191406 41.191406 L 16.167969 41.191406 L 17.425781 37.835938 L 27.003906 37.835938 Z M 39.304688 19.664062 C 39.234375 19.59375 39.09375 19.59375 39.023438 19.59375 C 39.023438 19.59375 38.957031 19.59375 38.957031 19.59375 C 36.089844 20.152344 33.363281 19.382812 31.40625 17.84375 C 37.765625 17.285156 41.820312 11.761719 39.652344 6.660156 C 42.9375 7.570312 45.175781 10.085938 45.175781 13.023438 C 45.175781 14.980469 44.128906 16.796875 42.378906 18.125 C 42.171875 18.265625 42.101562 18.472656 42.171875 18.753906 C 42.449219 19.453125 42.9375 20.359375 43.988281 21.128906 C 42.449219 21.128906 40.773438 20.710938 39.304688 19.664062 Z M 39.304688 19.664062 " fill-opacity="1" fill-rule="nonzero"/></g><path fill="#737373" d="M 25.183594 11.203125 C 26.304688 11.203125 27.28125 10.296875 27.28125 9.105469 C 27.28125 8.128906 26.582031 7.289062 25.675781 7.082031 C 24.347656 6.800781 23.15625 7.847656 23.15625 9.105469 C 23.085938 10.296875 23.996094 11.203125 25.183594 11.203125 Z M 25.394531 8.128906 C 25.8125 8.199219 26.164062 8.617188 26.164062 9.105469 C 26.164062 9.667969 25.675781 10.15625 25.113281 10.15625 C 24.554688 10.15625 24.066406 9.667969 24.066406 9.105469 C 24.136719 7.917969 25.324219 8.199219 25.394531 8.128906 Z M 25.394531 8.128906 " fill-opacity="1" fill-rule="nonzero"/><path fill="#737373" d="M 21.410156 35.878906 L 22.949219 35.878906 C 23.226562 35.878906 23.507812 35.667969 23.507812 35.320312 C 23.507812 35.039062 23.296875 34.761719 22.949219 34.761719 L 21.410156 34.761719 C 21.128906 34.761719 20.851562 34.96875 20.851562 35.320312 C 20.851562 35.667969 21.0625 35.878906 21.410156 35.878906 Z M 21.410156 35.878906 " fill-opacity="1" fill-rule="nonzero"/></svg>