<svg xmlns="http://www.w3.org/2000/svg" xmlns:xlink="http://www.w3.org/1999/xlink" width="64" zoomAndPan="magnify" viewBox="0 0 48 48" height="64" preserveAspectRatio="xMidYMid meet" version="1.0"><defs><clipPath id="93b964a291"><path d="M 12 1.304688 L 36 1.304688 L 36 16 L 12 16 Z M 12 1.304688 " clip-rule="nonzero"/></clipPath><clipPath id="2feaa10da1"><path d="M 29 1.304688 L 40 1.304688 L 40 37 L 29 37 Z M 29 1.304688 " clip-rule="nonzero"/></clipPath><clipPath id="671777492e"><path d="M 11 35 L 37 35 L 37 45.386719 L 11 45.386719 Z M 11 35 " clip-rule="nonzero"/></clipPath><clipPath id="18ba2c6cc9"><path d="M 8 1.304688 L 19 1.304688 L 19 37 L 8 37 Z M 8 1.304688 " clip-rule="nonzero"/></clipPath></defs><g clip-path="url(#93b964a291)"><path fill="#737373" d="M 18.785156 7.597656 C 19.527344 5.082031 20.800781 3.660156 22.644531 3.242188 C 21.976562 3.996094 21.175781 5.035156 20.777344 6.109375 C 20.351562 7.257812 19.851562 8.972656 19.53125 10.117188 C 19.324219 10.027344 19.023438 9.851562 18.828125 9.519531 C 18.554688 9.0625 18.539062 8.417969 18.785156 7.597656 Z M 24.882812 9.226562 C 24.609375 10.855469 23.382812 12.039062 23.167969 12.191406 C 22.832031 12.425781 21.957031 12.9375 21.132812 12.601562 C 20.878906 12.5 20.667969 12.121094 20.523438 11.699219 C 20.527344 11.6875 21.410156 8.351562 22.066406 6.585938 C 22.675781 4.949219 24.644531 3.136719 24.65625 3.125 C 25.425781 3.171875 25.878906 3.300781 26.171875 3.464844 C 25.886719 4.636719 25.128906 7.777344 24.882812 9.226562 Z M 17.660156 10.246094 C 18.050781 10.890625 18.613281 11.226562 19.011719 11.394531 C 19.160156 12.113281 19.570312 13.453125 20.613281 13.878906 C 20.640625 13.890625 20.660156 13.890625 20.6875 13.898438 C 19.902344 14.136719 19.140625 14.347656 18.816406 14.402344 C 18.253906 13.976562 16.546875 11.789062 15.625 10.191406 C 15.097656 9.28125 14.457031 7.457031 14.078125 6.289062 L 16.457031 6.703125 C 16.835938 6.773438 17.191406 6.519531 17.253906 6.144531 C 17.320312 5.773438 17.066406 5.414062 16.695312 5.347656 L 13.199219 4.738281 C 12.964844 4.699219 12.722656 4.78125 12.566406 4.957031 C 12.410156 5.136719 12.351562 5.382812 12.421875 5.613281 C 12.464844 5.765625 13.542969 9.339844 14.429688 10.878906 C 14.457031 10.929688 17.421875 15.792969 18.707031 15.792969 C 19.261719 15.792969 21.109375 15.21875 21.875 14.972656 C 22.164062 14.882812 22.355469 14.617188 22.355469 14.316406 L 22.355469 14.019531 C 23.070312 13.871094 23.65625 13.527344 23.960938 13.320312 C 24.535156 12.910156 25.914062 11.375 26.242188 9.457031 C 26.425781 8.378906 26.917969 6.25 27.261719 4.8125 C 27.515625 5.246094 27.871094 5.929688 28.230469 6.835938 C 28.554688 7.652344 28.933594 8.144531 29.207031 8.445312 C 29.15625 8.515625 29.101562 8.589844 29.046875 8.65625 C 28.941406 8.796875 28.886719 8.976562 28.90625 9.152344 C 29.015625 10.191406 29.066406 11.476562 28.980469 11.90625 C 28.8125 11.957031 28.359375 11.980469 27.628906 11.808594 C 26.945312 11.648438 26.535156 11.527344 26.523438 11.523438 C 26.320312 11.460938 26.089844 11.503906 25.917969 11.632812 C 25.742188 11.761719 25.640625 11.96875 25.640625 12.183594 L 25.640625 14.316406 C 25.640625 14.617188 25.832031 14.882812 26.121094 14.972656 C 26.886719 15.21875 28.734375 15.792969 29.292969 15.792969 C 30.574219 15.792969 33.539062 10.929688 33.566406 10.878906 C 34.453125 9.339844 35.53125 5.765625 35.574219 5.613281 C 35.644531 5.382812 35.589844 5.136719 35.429688 4.957031 C 35.273438 4.78125 35.03125 4.699219 34.800781 4.738281 L 31.300781 5.347656 C 30.929688 5.414062 30.679688 5.773438 30.742188 6.144531 C 30.808594 6.519531 31.164062 6.773438 31.539062 6.703125 L 33.917969 6.289062 C 33.539062 7.457031 32.898438 9.277344 32.375 10.191406 C 31.449219 11.789062 29.742188 13.976562 29.179688 14.402344 C 28.8125 14.339844 27.894531 14.082031 27.015625 13.808594 L 27.015625 13.078125 C 27.109375 13.101562 27.210938 13.125 27.3125 13.152344 C 28.257812 13.371094 29.511719 13.488281 30.082031 12.765625 C 30.207031 12.613281 30.578125 12.152344 30.300781 9.285156 C 30.742188 8.683594 30.742188 8.507812 30.742188 8.363281 C 30.742188 8.039062 30.550781 7.847656 30.394531 7.691406 C 30.195312 7.496094 29.824219 7.128906 29.511719 6.335938 C 28.78125 4.484375 28.054688 3.484375 27.996094 3.40625 C 27.730469 3.027344 27.5 2.738281 27.386719 2.648438 C 26.824219 2.121094 25.910156 1.722656 23.851562 1.722656 C 23.84375 1.722656 23.839844 1.722656 23.832031 1.722656 C 20.726562 1.726562 18.523438 3.621094 17.464844 7.207031 C 17.101562 8.421875 17.171875 9.441406 17.660156 10.246094 " fill-opacity="1" fill-rule="nonzero"/></g><g clip-path="url(#2feaa10da1)"><path fill="#737373" d="M 39.199219 2.753906 C 38.867188 2.195312 38.382812 1.847656 37.84375 1.773438 C 34.390625 1.304688 29.753906 2.621094 29.558594 2.679688 C 29.191406 2.78125 28.980469 3.167969 29.082031 3.53125 C 29.191406 3.894531 29.566406 4.105469 29.9375 4 C 29.984375 3.992188 34.484375 2.703125 37.65625 3.136719 C 37.773438 3.152344 37.90625 3.273438 38.019531 3.464844 C 38.496094 4.253906 38.617188 6.152344 37.527344 9.113281 C 35.941406 13.417969 32.28125 17.609375 32.242188 17.652344 C 32.183594 17.71875 32.136719 17.796875 32.109375 17.882812 C 31.96875 18.289062 28.730469 27.847656 29.289062 31.613281 C 29.644531 34.03125 30.597656 35.640625 30.640625 35.707031 C 30.769531 35.921875 30.992188 36.039062 31.226562 36.039062 C 31.347656 36.039062 31.46875 36.007812 31.582031 35.941406 C 31.90625 35.746094 32.011719 35.324219 31.816406 35 C 31.8125 34.984375 30.960938 33.546875 30.644531 31.414062 C 30.171875 28.191406 32.984375 19.601562 33.371094 18.453125 C 33.976562 17.746094 37.269531 13.800781 38.820312 9.589844 C 39.902344 6.640625 40.042969 4.152344 39.199219 2.753906 " fill-opacity="1" fill-rule="nonzero"/></g><path fill="#737373" d="M 23.992188 20.0625 C 22.835938 20.0625 22.101562 19.511719 22.101562 19.132812 C 22.101562 18.75 22.835938 18.195312 23.992188 18.195312 C 25.140625 18.195312 25.875 18.75 25.875 19.132812 C 25.875 19.511719 25.140625 20.0625 23.992188 20.0625 Z M 23.992188 16.820312 C 22.160156 16.820312 20.726562 17.835938 20.726562 19.132812 C 20.726562 20.425781 22.160156 21.441406 23.992188 21.441406 C 25.820312 21.441406 27.253906 20.425781 27.253906 19.132812 C 27.253906 17.835938 25.820312 16.820312 23.992188 16.820312 " fill-opacity="1" fill-rule="nonzero"/><path fill="#737373" d="M 23.992188 25.21875 C 23.070312 25.21875 22.507812 24.78125 22.507812 24.542969 C 22.507812 24.304688 23.070312 23.863281 23.992188 23.863281 C 24.910156 23.863281 25.472656 24.304688 25.472656 24.542969 C 25.472656 24.78125 24.910156 25.21875 23.992188 25.21875 Z M 23.992188 22.484375 C 22.386719 22.484375 21.132812 23.390625 21.132812 24.542969 C 21.132812 25.691406 22.386719 26.597656 23.992188 26.597656 C 25.59375 26.597656 26.847656 25.691406 26.847656 24.542969 C 26.847656 23.390625 25.59375 22.484375 23.992188 22.484375 " fill-opacity="1" fill-rule="nonzero"/><path fill="#737373" d="M 23.992188 30.460938 C 23.238281 30.460938 22.78125 30.109375 22.78125 29.953125 C 22.78125 29.796875 23.238281 29.445312 23.992188 29.445312 C 24.742188 29.445312 25.199219 29.796875 25.199219 29.953125 C 25.199219 30.109375 24.742188 30.460938 23.992188 30.460938 Z M 23.992188 28.070312 C 22.539062 28.070312 21.402344 28.898438 21.402344 29.953125 C 21.402344 31.007812 22.539062 31.835938 23.992188 31.835938 C 25.4375 31.835938 26.574219 31.007812 26.574219 29.953125 C 26.574219 28.898438 25.4375 28.070312 23.992188 28.070312 " fill-opacity="1" fill-rule="nonzero"/><g clip-path="url(#671777492e)"><path fill="#737373" d="M 36.023438 35.210938 C 35.800781 35.089844 35.53125 35.105469 35.320312 35.242188 C 35.28125 35.265625 31.589844 37.625 23.992188 37.625 C 16.394531 37.625 12.71875 35.269531 12.679688 35.242188 C 12.46875 35.105469 12.199219 35.089844 11.976562 35.210938 C 11.753906 35.328125 11.613281 35.5625 11.613281 35.816406 L 11.613281 45.019531 C 11.613281 45.398438 11.921875 45.707031 12.300781 45.707031 C 12.679688 45.707031 12.988281 45.398438 12.988281 45.019531 L 12.988281 36.964844 C 14.648438 37.734375 18.253906 39.003906 23.992188 39.003906 C 29.730469 39.003906 33.347656 37.730469 35.007812 36.960938 L 35.007812 45.019531 C 35.007812 45.398438 35.316406 45.707031 35.695312 45.707031 C 36.074219 45.707031 36.382812 45.398438 36.382812 45.019531 L 36.382812 35.816406 C 36.382812 35.566406 36.242188 35.332031 36.023438 35.210938 " fill-opacity="1" fill-rule="nonzero"/></g><g clip-path="url(#18ba2c6cc9)"><path fill="#737373" d="M 17.347656 31.421875 C 17.101562 33.230469 16.328125 35.066406 16.320312 35.082031 C 16.171875 35.433594 16.335938 35.839844 16.6875 35.984375 C 16.773438 36.023438 16.863281 36.039062 16.957031 36.039062 C 17.222656 36.039062 17.476562 35.882812 17.585938 35.621094 C 17.625 35.542969 18.441406 33.601562 18.710938 31.605469 C 19.226562 27.839844 16.023438 18.289062 15.886719 17.882812 C 15.859375 17.796875 15.816406 17.71875 15.757812 17.652344 C 15.714844 17.609375 12.058594 13.425781 10.46875 9.113281 C 9.378906 6.152344 9.5 4.253906 9.976562 3.464844 C 10.085938 3.273438 10.226562 3.152344 10.339844 3.136719 C 13.5 2.707031 18.015625 3.988281 18.058594 4 C 18.425781 4.109375 18.804688 3.894531 18.914062 3.53125 C 19.015625 3.167969 18.804688 2.78125 18.441406 2.679688 C 18.242188 2.621094 13.601562 1.304688 10.15625 1.773438 C 9.613281 1.847656 9.128906 2.195312 8.796875 2.753906 C 7.953125 4.152344 8.09375 6.640625 9.175781 9.589844 C 10.726562 13.800781 14.019531 17.742188 14.628906 18.453125 C 15.007812 19.605469 17.789062 28.191406 17.347656 31.421875 " fill-opacity="1" fill-rule="nonzero"/></g></svg>