<svg xmlns="http://www.w3.org/2000/svg" xmlns:xlink="http://www.w3.org/1999/xlink" width="64" zoomAndPan="magnify" viewBox="0 0 48 48" height="64" preserveAspectRatio="xMidYMid meet" version="1.0"><defs><clipPath id="f7e9ed767c"><path d="M 0.488281 4.703125 L 47.507812 4.703125 L 47.507812 39 L 0.488281 39 Z M 0.488281 4.703125 " clip-rule="nonzero"/></clipPath></defs><g clip-path="url(#f7e9ed767c)"><path fill="#737373" d="M 15.902344 16.261719 C 15.769531 15.792969 15.628906 15.328125 15.484375 14.871094 C 15.265625 14.902344 15.078125 14.890625 14.898438 14.886719 C 14.808594 14.882812 14.714844 14.882812 14.644531 14.886719 C 14.609375 14.886719 14.558594 14.894531 14.515625 14.894531 L 14.398438 14.917969 C 14.234375 14.953125 14.066406 14.972656 13.914062 15.019531 C 13.28125 15.179688 12.734375 15.40625 12.277344 15.605469 C 11.371094 16.007812 10.804688 16.238281 10.78125 16.183594 C 10.757812 16.132812 11.265625 15.8125 12.152344 15.335938 C 12.59375 15.097656 13.140625 14.832031 13.808594 14.632812 C 13.972656 14.574219 14.148438 14.546875 14.324219 14.507812 L 14.46875 14.476562 C 14.515625 14.46875 14.554688 14.460938 14.609375 14.460938 C 14.71875 14.453125 14.808594 14.453125 14.902344 14.453125 C 15.054688 14.453125 15.207031 14.453125 15.339844 14.433594 C 15.195312 13.996094 15.042969 13.558594 14.882812 13.117188 C 14.765625 13.089844 14.546875 13.109375 14.363281 13.105469 C 13.933594 13.113281 13.519531 13.117188 13.125 13.125 C 12.351562 13.175781 11.652344 13.226562 11.074219 13.34375 C 10.484375 13.417969 10.027344 13.5625 9.703125 13.628906 C 9.378906 13.703125 9.191406 13.726562 9.179688 13.695312 C 9.171875 13.667969 9.335938 13.578125 9.648438 13.457031 C 9.964844 13.335938 10.414062 13.136719 11.011719 13.015625 C 11.59375 12.855469 12.3125 12.757812 13.113281 12.683594 C 13.503906 12.667969 13.917969 12.632812 14.351562 12.617188 C 14.457031 12.613281 14.566406 12.574219 14.675781 12.574219 C 14.6875 12.574219 14.699219 12.574219 14.707031 12.574219 C 14.609375 12.300781 14.503906 12.082031 14.398438 11.820312 C 12.554688 11.761719 10.78125 11.914062 9.019531 12.503906 C 7.632812 12.96875 6.035156 13.40625 4.8125 14.21875 C 3.113281 15.351562 2.929688 17.253906 2.425781 19.074219 C 2.417969 19.09375 2.414062 19.117188 2.40625 19.140625 C 2.492188 18.996094 2.582031 18.851562 2.671875 18.703125 C 3.4375 17.542969 4.296875 16.644531 4.890625 15.984375 C 5.488281 15.335938 5.859375 14.914062 5.910156 14.957031 C 5.957031 14.996094 5.6875 15.476562 5.140625 16.195312 C 4.605469 16.910156 3.792969 17.839844 3.058594 18.953125 C 2.710938 19.515625 2.378906 20.089844 2.058594 20.582031 C 2.027344 20.628906 2.003906 20.675781 1.972656 20.71875 C 1.714844 21.683594 1.496094 22.65625 1.382812 23.65625 C 1.382812 23.65625 1.386719 23.65625 1.386719 23.65625 C 2.121094 23.957031 2.933594 24.414062 3.699219 24.09375 C 3.5625 23.675781 3.515625 23.207031 3.566406 22.75 C 3.585938 22.445312 3.648438 22.132812 3.679688 21.851562 C 3.707031 21.554688 3.714844 21.242188 3.757812 20.914062 C 3.769531 20.785156 3.792969 20.65625 3.824219 20.523438 C 3.847656 20.398438 3.890625 20.246094 3.933594 20.140625 L 3.964844 20.054688 L 3.984375 20.011719 L 3.992188 19.992188 L 4.003906 19.964844 L 4.011719 19.953125 L 4.101562 19.792969 C 4.164062 19.683594 4.222656 19.578125 4.28125 19.46875 C 4.394531 19.253906 4.546875 19.070312 4.675781 18.878906 C 4.808594 18.683594 4.953125 18.511719 5.097656 18.34375 C 5.660156 17.664062 6.234375 17.125 6.714844 16.679688 C 7.695312 15.800781 8.320312 15.289062 8.363281 15.332031 C 8.410156 15.378906 7.859375 15.980469 6.945312 16.914062 C 6.492188 17.386719 5.949219 17.941406 5.421875 18.613281 C 5.292969 18.773438 5.152344 18.949219 5.035156 19.132812 C 4.914062 19.316406 4.769531 19.496094 4.667969 19.699219 C 4.613281 19.800781 4.558594 19.898438 4.507812 20 L 4.421875 20.152344 L 4.414062 20.160156 L 4.410156 20.175781 L 4.363281 20.304688 C 4.316406 20.421875 4.296875 20.511719 4.269531 20.625 C 4.246094 20.734375 4.226562 20.851562 4.210938 20.96875 C 4.175781 21.273438 4.164062 21.582031 4.132812 21.898438 C 4.09375 22.230469 4.03125 22.503906 4.007812 22.789062 C 3.960938 23.191406 3.988281 23.566406 4.082031 23.910156 C 4.136719 23.898438 4.1875 23.902344 4.234375 23.917969 C 4.480469 23.65625 4.683594 23.386719 4.875 23.132812 C 5.136719 22.761719 5.359375 22.4375 5.550781 22.171875 C 5.941406 21.632812 6.222656 21.367188 6.253906 21.394531 C 6.289062 21.425781 6.074219 21.734375 5.75 22.296875 C 5.585938 22.582031 5.394531 22.925781 5.148438 23.316406 C 4.972656 23.585938 4.769531 23.882812 4.519531 24.175781 C 4.523438 24.175781 4.523438 24.179688 4.527344 24.1875 C 4.777344 24.75 5.707031 24.84375 6.308594 24.605469 C 6.542969 22.773438 8.527344 21.109375 9.828125 19.976562 C 11.476562 18.539062 13.695312 16.773438 15.902344 16.261719 Z M 16.292969 17.804688 C 16.3125 17.800781 16.324219 17.796875 16.339844 17.792969 C 16.273438 17.578125 16.207031 17.359375 16.148438 17.140625 C 16.140625 17.109375 16.132812 17.082031 16.121094 17.050781 C 14.125 17.523438 11.835938 19.207031 10.40625 20.554688 C 9.394531 21.507812 7.5625 22.910156 7.171875 24.371094 C 7.226562 24.390625 7.277344 24.421875 7.324219 24.476562 C 7.597656 24.792969 7.800781 25.21875 8.171875 25.4375 C 9.414062 24.058594 10.777344 22.808594 12.0625 21.476562 C 13.386719 20.109375 14.515625 18.605469 16.292969 17.804688 Z M 23.03125 16.390625 C 23.410156 16.390625 23.792969 16.386719 24.171875 16.371094 C 23.6875 14.984375 22.554688 13.832031 21.265625 13.097656 C 21.839844 14.121094 22.421875 15.144531 22.941406 16.210938 C 22.972656 16.269531 23.003906 16.328125 23.03125 16.390625 Z M 30.726562 19.128906 C 30.660156 19.019531 30.597656 18.917969 30.535156 18.808594 C 29.917969 19.660156 28.667969 20.109375 27.761719 19.59375 C 27.652344 19.574219 27.539062 19.550781 27.425781 19.519531 C 26.9375 19.378906 26.535156 19.101562 26.320312 18.84375 C 26.089844 18.574219 26.046875 18.386719 26.089844 18.347656 C 26.136719 18.300781 26.300781 18.445312 26.535156 18.601562 C 26.714844 18.722656 26.949219 18.855469 27.226562 18.964844 C 27.226562 18.949219 27.226562 18.925781 27.230469 18.910156 C 27.28125 18.5 27.378906 18.265625 27.664062 17.960938 C 28.011719 17.589844 28.300781 17.34375 28.484375 17.023438 C 26.800781 16.988281 25.125 17.191406 23.441406 17.207031 C 23.867188 18.046875 24.292969 18.898438 24.683594 19.757812 C 24.773438 19.859375 24.871094 19.964844 24.976562 20.066406 C 25.28125 20.347656 25.578125 20.601562 25.777344 20.808594 C 25.976562 21.019531 26.074219 21.175781 26.039062 21.222656 C 25.996094 21.273438 25.824219 21.207031 25.574219 21.066406 C 25.445312 20.988281 25.285156 20.890625 25.117188 20.773438 C 25.132812 20.804688 25.148438 20.839844 25.164062 20.875 C 25.550781 21.851562 25.515625 22.609375 24.640625 23.246094 C 24.421875 23.410156 24.203125 23.289062 24.105469 23.097656 L 24.082031 23.089844 C 24.042969 23.070312 23.996094 23.0625 23.964844 23.035156 C 23.949219 23.027344 23.929688 23.011719 23.914062 23 C 23.878906 23.117188 23.824219 23.234375 23.734375 23.339844 C 23.664062 23.417969 23.558594 23.496094 23.511719 23.519531 L 23.464844 23.546875 C 23.441406 23.558594 23.410156 23.574219 23.382812 23.582031 C 23.328125 23.601562 23.269531 23.628906 23.210938 23.628906 C 23.09375 23.644531 22.972656 23.617188 22.875 23.566406 C 22.792969 23.527344 22.734375 23.472656 22.675781 23.417969 C 22.660156 23.441406 22.648438 23.449219 22.648438 23.453125 L 22.640625 23.457031 L 22.613281 23.484375 L 22.554688 23.523438 C 22.386719 23.632812 22.195312 23.632812 22.050781 23.605469 C 21.90625 23.574219 21.789062 23.519531 21.679688 23.460938 C 21.570312 23.398438 21.472656 23.328125 21.382812 23.242188 C 21.339844 23.207031 21.273438 23.132812 21.253906 23.105469 C 21.234375 23.078125 21.222656 23.0625 21.210938 23.042969 C 21.148438 23.125 21.054688 23.1875 20.929688 23.199219 C 20.605469 23.238281 20.292969 23.160156 19.996094 23.015625 C 20.015625 23.050781 20.035156 23.089844 20.050781 23.132812 C 20.207031 23.574219 20.273438 23.992188 20.234375 24.320312 C 20.230469 24.359375 20.230469 24.398438 20.222656 24.433594 C 20.214844 24.464844 20.207031 24.496094 20.199219 24.523438 C 20.179688 24.582031 20.164062 24.625 20.144531 24.667969 C 20.109375 24.742188 20.078125 24.785156 20.042969 24.78125 C 20.011719 24.78125 19.988281 24.734375 19.96875 24.648438 C 19.957031 24.609375 19.949219 24.554688 19.941406 24.496094 C 19.9375 24.46875 19.9375 24.4375 19.933594 24.40625 C 19.925781 24.375 19.917969 24.34375 19.910156 24.308594 C 19.863281 24.058594 19.761719 23.6875 19.621094 23.296875 C 19.5 23 19.382812 22.730469 19.273438 22.507812 C 18.875 22.15625 18.523438 21.734375 18.25 21.394531 C 17.527344 20.523438 17.007812 19.578125 16.609375 18.5625 C 14.820312 19.402344 13.699219 21.003906 12.332031 22.371094 C 10.957031 23.746094 9.488281 25.058594 8.265625 26.574219 C 6.894531 28.261719 5.636719 30.046875 4.558594 31.933594 C 4.027344 32.875 3.539062 33.839844 3.113281 34.832031 C 2.859375 35.429688 2.484375 36.011719 2.386719 36.660156 C 2.316406 37.09375 2.421875 37.085938 2.683594 37.335938 C 3.082031 37.714844 3.292969 38.101562 3.921875 38.09375 C 3.949219 38.09375 3.964844 38.097656 3.988281 38.101562 C 7.027344 37.300781 10.109375 36.640625 13.074219 35.574219 C 15.863281 34.570312 18.59375 33.421875 21.382812 32.417969 C 21.441406 32.375 21.503906 32.332031 21.570312 32.289062 C 21.894531 32.070312 22.214844 31.890625 22.472656 31.792969 C 22.726562 31.707031 22.894531 31.691406 22.917969 31.746094 C 22.949219 31.804688 22.828125 31.925781 22.625 32.082031 C 22.542969 32.148438 22.445312 32.222656 22.335938 32.304688 C 23.492188 32.417969 24.675781 32.453125 25.691406 31.796875 C 24.792969 30.886719 23.472656 29.8125 22.898438 28.585938 C 22.671875 28.652344 22.445312 28.71875 22.222656 28.789062 C 21.863281 28.898438 21.515625 29.015625 21.164062 29.121094 C 20.472656 29.34375 19.761719 29.507812 19.101562 29.625 C 17.789062 29.84375 16.617188 29.953125 15.617188 30.214844 C 15.339844 30.269531 15.078125 30.324219 14.820312 30.378906 C 14.554688 30.421875 14.296875 30.429688 14.046875 30.457031 C 13.796875 30.472656 13.558594 30.460938 13.328125 30.464844 C 13.09375 30.460938 12.871094 30.441406 12.65625 30.429688 C 11.800781 30.359375 11.078125 30.265625 10.453125 30.214844 C 9.828125 30.179688 9.296875 30.140625 8.882812 30.191406 C 8.464844 30.242188 8.140625 30.335938 7.910156 30.460938 C 7.679688 30.578125 7.527344 30.691406 7.425781 30.773438 C 7.324219 30.851562 7.261719 30.878906 7.238281 30.859375 C 7.21875 30.84375 7.234375 30.785156 7.300781 30.664062 C 7.367188 30.542969 7.503906 30.371094 7.742188 30.191406 C 7.980469 30 8.34375 29.839844 8.8125 29.742188 C 9.28125 29.636719 9.835938 29.636719 10.480469 29.632812 C 11.128906 29.648438 11.871094 29.714844 12.699219 29.75 C 13.066406 29.769531 13.453125 29.769531 13.847656 29.746094 C 13.960938 29.445312 14.121094 29.164062 14.316406 28.929688 C 14.574219 28.617188 14.882812 28.382812 15.1875 28.214844 C 15.796875 27.871094 16.363281 27.71875 16.855469 27.570312 C 17.34375 27.425781 17.761719 27.300781 18.105469 27.15625 C 18.453125 27.011719 18.71875 26.84375 18.921875 26.671875 C 19.324219 26.320312 19.476562 25.949219 19.582031 25.71875 C 19.683594 25.484375 19.746094 25.371094 19.808594 25.378906 C 19.859375 25.386719 19.90625 25.507812 19.894531 25.792969 C 19.886719 25.933594 19.855469 26.121094 19.777344 26.34375 C 19.699219 26.566406 19.554688 26.824219 19.332031 27.082031 C 19.101562 27.335938 18.78125 27.574219 18.394531 27.773438 C 18.011719 27.96875 17.566406 28.128906 17.082031 28.289062 C 16.601562 28.457031 16.070312 28.621094 15.589844 28.90625 C 15.394531 29.023438 15.214844 29.160156 15.054688 29.324219 C 15.199219 29.375 15.320312 29.421875 15.410156 29.480469 C 15.414062 29.480469 15.414062 29.484375 15.417969 29.484375 C 16.496094 29.183594 17.691406 29.058594 18.96875 28.835938 C 19.601562 28.71875 20.238281 28.5625 20.921875 28.34375 C 21.261719 28.242188 21.617188 28.121094 21.976562 28.007812 C 22.195312 27.9375 22.421875 27.871094 22.648438 27.804688 C 22.574219 27.320312 22.632812 26.8125 22.898438 26.28125 C 23.964844 24.167969 26.171875 21.941406 28.328125 20.953125 C 28.621094 20.820312 28.914062 20.722656 29.214844 20.65625 C 29.203125 20.574219 29.21875 20.492188 29.261719 20.40625 C 29.519531 19.902344 30.082031 19.433594 30.726562 19.128906 Z M 32.925781 20.128906 C 32.976562 20.113281 33.027344 20.097656 33.074219 20.082031 C 32.695312 19.011719 30.929688 19.765625 30.207031 20.5 C 31.117188 20.410156 32.03125 20.410156 32.925781 20.128906 Z M 34.503906 25.90625 C 36.046875 24.195312 33.519531 23.859375 32.621094 23.296875 C 32.121094 22.988281 32.289062 22.242188 31.757812 21.878906 C 31.65625 21.808594 31.613281 21.648438 31.714844 21.554688 C 31.667969 21.410156 31.613281 21.265625 31.5625 21.121094 C 30.84375 21.160156 30.117188 21.199219 29.449219 21.414062 C 27.296875 22.101562 25.765625 23.796875 24.378906 25.511719 C 23.308594 26.839844 23.222656 28.078125 24.445312 29.382812 C 25.113281 30.089844 25.839844 30.738281 26.496094 31.453125 C 28.152344 32.347656 30.308594 32.265625 32.144531 32.371094 C 32.628906 32.402344 33.121094 32.425781 33.613281 32.433594 C 34.144531 32.28125 35.226562 31.867188 34.324219 31.144531 C 34.113281 30.976562 33.910156 30.816406 33.726562 30.617188 C 33.5 30.378906 33.402344 30.050781 33.480469 29.734375 C 33.507812 29.636719 33.503906 29.476562 33.492188 29.332031 L 33.472656 29.195312 L 33.484375 29.195312 C 33.449219 28.921875 33.386719 28.445312 33.589844 28.246094 C 33.839844 28.003906 34.484375 27.882812 34.199219 27.34375 C 34.15625 27.261719 34.0625 27.132812 34.054688 27.023438 C 34.03125 26.546875 34.191406 26.257812 34.503906 25.90625 Z M 35.570312 19.425781 C 35.921875 19.382812 36.28125 19.371094 36.660156 19.390625 C 36.386719 18.980469 35.878906 18.683594 35.390625 18.484375 C 35.457031 18.796875 35.519531 19.109375 35.570312 19.425781 Z M 39.890625 5.976562 C 38.609375 5.851562 37.316406 5.996094 36.039062 6.121094 C 35.597656 7.410156 35.238281 8.394531 34.238281 9.4375 C 33.183594 10.53125 31.914062 11.292969 30.808594 12.324219 C 30.089844 13 29.410156 13.832031 29.441406 14.890625 C 29.460938 15.496094 29.519531 16.097656 29.496094 16.710938 C 29.480469 17.09375 29.371094 17.605469 29.074219 17.882812 C 28.804688 18.144531 28.203125 18.4375 28.074219 18.820312 C 28.640625 19.226562 29.476562 18.882812 29.855469 18.371094 C 30.027344 18.140625 30.214844 17.753906 30.242188 17.46875 C 30.28125 17.082031 30.070312 16.703125 30.074219 16.3125 C 30.082031 16.027344 30.136719 15.855469 30.207031 15.84375 C 30.289062 15.832031 30.367188 16 30.460938 16.257812 C 30.550781 16.511719 30.660156 16.867188 30.769531 17.253906 C 30.796875 17.339844 30.824219 17.421875 30.847656 17.503906 C 30.878906 17.550781 30.902344 17.613281 30.902344 17.683594 C 30.925781 17.757812 30.949219 17.824219 30.96875 17.890625 C 31.128906 18.222656 31.316406 18.535156 31.515625 18.84375 C 32.511719 18.601562 33.515625 18.804688 33.859375 19.828125 C 34.167969 19.734375 34.46875 19.644531 34.773438 19.574219 C 34.484375 17.832031 33.910156 16.222656 33.175781 14.621094 C 33.15625 14.570312 33.144531 14.519531 33.140625 14.46875 C 33.101562 14.371094 33.105469 14.257812 33.175781 14.136719 C 33.511719 13.59375 33.960938 13.21875 34.496094 12.867188 C 35.355469 12.308594 35.988281 11.660156 36.675781 10.90625 C 38.027344 9.421875 39.238281 7.875 39.890625 5.976562 Z M 42.070312 28.394531 C 42.492188 26.859375 42.34375 24.796875 42.058594 23.242188 C 42.058594 23.234375 42.058594 23.230469 42.058594 23.222656 C 41.429688 22.386719 40.761719 21.242188 39.753906 20.804688 C 38.730469 20.351562 36.996094 20.070312 35.902344 20.160156 C 34.777344 20.253906 33.839844 20.847656 32.746094 21.011719 C 32.605469 21.035156 32.460938 21.050781 32.3125 21.066406 C 32.863281 21.441406 33.519531 21.53125 34.171875 21.484375 C 34.488281 21.457031 34.808594 21.414062 35.09375 21.371094 C 35.375 21.324219 35.636719 21.285156 35.878906 21.21875 C 36.121094 21.164062 36.34375 21.117188 36.550781 21.078125 C 36.746094 21.035156 36.917969 21.003906 37.0625 21 C 37.339844 20.984375 37.5 20.988281 37.503906 21.019531 C 37.507812 21.050781 37.359375 21.105469 37.089844 21.179688 C 36.949219 21.207031 36.785156 21.261719 36.605469 21.324219 C 36.414062 21.386719 36.199219 21.453125 35.960938 21.527344 C 35.726562 21.609375 35.449219 21.671875 35.152344 21.738281 C 34.855469 21.796875 34.550781 21.84375 34.210938 21.886719 C 33.875 21.921875 33.464844 21.933594 33.128906 21.882812 C 32.839844 21.839844 32.5625 21.734375 32.308594 21.597656 C 32.316406 21.6875 32.332031 21.769531 32.367188 21.84375 C 32.40625 21.894531 32.4375 21.941406 32.457031 21.988281 C 32.476562 22.011719 32.492188 22.042969 32.519531 22.066406 C 32.726562 22.265625 33.03125 22.386719 33.328125 22.464844 C 33.933594 22.613281 34.523438 22.628906 35.011719 22.640625 C 35.992188 22.648438 36.613281 22.605469 36.617188 22.675781 C 36.617188 22.734375 36.019531 22.886719 35.019531 22.964844 C 34.519531 22.996094 33.910156 23.015625 33.230469 22.875 C 33.066406 22.835938 32.894531 22.789062 32.722656 22.71875 C 32.792969 22.828125 32.878906 22.914062 32.976562 22.980469 C 33.007812 22.996094 33.042969 23.015625 33.078125 23.027344 C 33.339844 23.136719 33.683594 23.199219 34.085938 23.292969 C 34.183594 23.3125 34.296875 23.34375 34.394531 23.375 C 34.496094 23.402344 34.597656 23.433594 34.707031 23.476562 C 34.925781 23.550781 35.132812 23.636719 35.339844 23.691406 L 35.492188 23.734375 C 35.519531 23.75 35.601562 23.753906 35.648438 23.765625 C 35.757812 23.78125 35.875 23.808594 35.972656 23.816406 C 36.078125 23.828125 36.175781 23.835938 36.28125 23.84375 C 36.378906 23.851562 36.480469 23.855469 36.578125 23.863281 C 36.976562 23.878906 37.335938 23.878906 37.644531 23.886719 C 38.253906 23.898438 38.640625 23.953125 38.640625 24.015625 C 38.636719 24.082031 38.265625 24.140625 37.65625 24.210938 C 37.351562 24.246094 36.988281 24.277344 36.574219 24.285156 C 36.46875 24.285156 36.363281 24.285156 36.253906 24.285156 C 36.140625 24.277344 36.027344 24.269531 35.914062 24.261719 C 35.792969 24.257812 35.691406 24.230469 35.574219 24.21875 C 35.511719 24.203125 35.476562 24.207031 35.394531 24.1875 L 35.214844 24.132812 C 35.121094 24.109375 35.035156 24.078125 34.953125 24.050781 C 35.285156 24.4375 35.5 24.921875 35.296875 25.421875 C 35.269531 25.484375 35.222656 25.558594 35.175781 25.640625 C 35.214844 25.617188 35.261719 25.59375 35.300781 25.574219 C 35.777344 25.332031 36.222656 25.183594 36.589844 25.070312 C 37.335938 24.859375 37.777344 24.769531 37.800781 24.8125 C 37.828125 24.875 37.394531 25.070312 36.691406 25.351562 C 36.34375 25.5 35.921875 25.671875 35.492188 25.921875 C 35.28125 26.046875 35.0625 26.1875 34.890625 26.367188 C 34.792969 26.464844 34.71875 26.566406 34.671875 26.679688 C 34.863281 26.640625 35.058594 26.625 35.242188 26.609375 C 35.941406 26.554688 36.621094 26.5 37.214844 26.417969 C 37.8125 26.332031 38.339844 26.207031 38.761719 26.050781 C 39.179688 25.890625 39.503906 25.703125 39.699219 25.554688 C 39.90625 25.410156 40.019531 25.304688 40.046875 25.332031 C 40.0625 25.355469 40.003906 25.484375 39.824219 25.683594 C 39.636719 25.894531 39.328125 26.136719 38.890625 26.347656 C 38.453125 26.558594 37.898438 26.71875 37.285156 26.835938 C 36.664062 26.949219 35.988281 27.015625 35.269531 27.070312 C 35.011719 27.085938 34.777344 27.109375 34.578125 27.171875 C 34.679688 27.320312 34.824219 27.519531 34.78125 27.707031 C 34.691406 28.085938 34.59375 28.210938 34.230469 28.367188 C 33.949219 28.484375 33.972656 28.957031 33.964844 29.3125 C 34.226562 29.324219 34.492188 29.335938 34.765625 29.332031 C 36.453125 29.253906 37.914062 28.652344 38.898438 28.113281 C 39.378906 27.835938 39.78125 27.617188 40.046875 27.441406 C 40.320312 27.273438 40.480469 27.195312 40.5 27.21875 C 40.519531 27.242188 40.394531 27.375 40.152344 27.582031 C 39.921875 27.800781 39.539062 28.070312 39.0625 28.394531 C 38.8125 28.539062 38.535156 28.699219 38.238281 28.863281 C 38.082031 28.933594 37.921875 29.007812 37.753906 29.082031 C 37.589844 29.15625 37.421875 29.242188 37.234375 29.292969 C 37.054688 29.355469 36.863281 29.417969 36.675781 29.480469 C 36.484375 29.554688 36.277344 29.574219 36.074219 29.625 C 35.664062 29.734375 35.222656 29.75 34.78125 29.789062 C 34.539062 29.796875 34.308594 29.785156 34.070312 29.773438 C 34.15625 29.976562 34.273438 30.152344 34.433594 30.285156 C 34.539062 30.390625 34.675781 30.457031 34.808594 30.523438 C 34.953125 30.574219 35.089844 30.636719 35.238281 30.660156 C 35.816406 30.789062 36.382812 30.746094 36.84375 30.707031 C 37.765625 30.609375 38.328125 30.46875 38.34375 30.535156 C 38.355469 30.578125 37.828125 30.820312 36.882812 31 C 36.414062 31.085938 35.828125 31.167969 35.160156 31.050781 C 35.015625 31.03125 34.875 30.984375 34.726562 30.9375 C 34.953125 31.148438 35.125 31.382812 35.054688 31.734375 C 35.042969 31.796875 35.019531 31.859375 35 31.914062 C 35.363281 31.753906 35.761719 31.636719 36.167969 31.546875 C 36.808594 31.410156 37.417969 31.328125 37.949219 31.207031 C 38.484375 31.085938 38.945312 30.941406 39.296875 30.738281 C 39.390625 30.699219 39.460938 30.636719 39.539062 30.589844 C 39.613281 30.539062 39.691406 30.496094 39.746094 30.441406 C 39.863281 30.332031 39.980469 30.261719 40.054688 30.164062 C 40.214844 29.988281 40.316406 29.902344 40.339844 29.921875 C 40.367188 29.9375 40.316406 30.0625 40.199219 30.269531 C 40.152344 30.378906 40.035156 30.488281 39.925781 30.628906 C 39.867188 30.699219 39.789062 30.753906 39.71875 30.820312 C 39.636719 30.882812 39.5625 30.960938 39.464844 31.015625 C 39.101562 31.277344 38.601562 31.472656 38.050781 31.617188 C 37.496094 31.769531 36.882812 31.863281 36.265625 31.996094 C 35.78125 32.101562 35.332031 32.238281 34.945312 32.425781 C 36.113281 32.378906 37.28125 32.214844 38.375 31.828125 C 40.003906 31.25 41.589844 30.152344 42.070312 28.394531 Z M 47.167969 24.230469 C 47.351562 25.386719 47.519531 27.003906 46.652344 27.957031 C 45.574219 29.140625 44.160156 28.589844 42.882812 28.085938 C 42.453125 29.867188 41.40625 31.382812 39.378906 32.316406 C 37.179688 33.324219 34.507812 33.367188 32.144531 33.195312 C 30.210938 33.050781 28.058594 33.144531 26.28125 32.265625 C 26.253906 32.355469 26.203125 32.433594 26.109375 32.5 C 24.894531 33.285156 23.472656 33.242188 22.085938 33.097656 C 22.046875 33.09375 22.007812 33.082031 21.972656 33.070312 C 19.054688 34.105469 16.210938 35.339844 13.289062 36.363281 C 10.304688 37.410156 7.226562 38.09375 4.167969 38.894531 C 4.101562 38.914062 4.039062 38.914062 3.984375 38.902344 C 3.964844 38.90625 3.945312 38.914062 3.921875 38.914062 C 3.117188 38.921875 2.734375 38.460938 2.125 38.050781 C 1.910156 37.902344 1.699219 37.851562 1.585938 37.601562 C 1.425781 37.25 1.589844 36.8125 1.660156 36.460938 C 1.777344 35.820312 2.074219 35.191406 2.332031 34.597656 C 2.882812 33.324219 3.550781 32.105469 4.296875 30.9375 C 5.339844 29.292969 6.375 27.5625 7.628906 26.0625 C 7.320312 25.84375 7.117188 25.519531 6.882812 25.21875 C 6.007812 25.699219 4.589844 25.667969 3.984375 24.867188 C 3.046875 25.25 2.09375 24.824219 1.171875 24.445312 C 1.117188 24.421875 1.070312 24.394531 1.03125 24.355469 C 0.789062 24.421875 0.5 24.300781 0.53125 23.984375 C 0.710938 21.90625 1.371094 19.957031 1.871094 17.949219 C 2.265625 16.363281 2.644531 14.679688 4.097656 13.710938 C 6.953125 11.8125 10.660156 10.992188 14.0625 11.035156 C 14.03125 10.972656 14.007812 10.910156 13.984375 10.851562 C 13.285156 9.226562 12.710938 7.597656 12.550781 5.832031 C 12.550781 5.824219 12.550781 5.820312 12.550781 5.8125 C 12.476562 5.652344 12.503906 5.460938 12.710938 5.367188 C 14.054688 4.714844 15.957031 5.058594 17.320312 5.058594 C 17.339844 5.058594 17.355469 5.0625 17.371094 5.0625 C 17.582031 4.964844 17.859375 5.023438 17.917969 5.3125 C 18.394531 7.714844 19.441406 9.8125 20.585938 11.886719 C 20.609375 11.890625 20.636719 11.894531 20.664062 11.90625 C 22.601562 12.703125 24.394531 14.28125 25.019531 16.332031 C 26.242188 16.265625 27.464844 16.171875 28.6875 16.210938 C 28.6875 16.128906 28.6875 16.042969 28.683594 15.953125 C 28.605469 14.6875 28.671875 13.683594 29.417969 12.621094 C 30.261719 11.417969 31.671875 10.765625 32.722656 9.785156 C 33.371094 9.179688 34.253906 8.464844 34.640625 7.65625 C 34.953125 7 35.117188 6.300781 35.347656 5.621094 C 35.421875 5.410156 35.605469 5.328125 35.78125 5.339844 C 35.8125 5.332031 35.84375 5.324219 35.878906 5.320312 C 37.429688 5.167969 38.96875 5.011719 40.519531 5.230469 C 40.742188 5.265625 40.828125 5.429688 40.8125 5.601562 C 40.824219 5.664062 40.824219 5.730469 40.804688 5.804688 C 40.242188 7.703125 39.167969 9.347656 37.851562 10.816406 C 37.21875 11.53125 36.601562 12.316406 35.855469 12.921875 C 35.230469 13.4375 34.457031 13.746094 33.976562 14.417969 C 34.4375 15.441406 34.84375 16.472656 35.148438 17.535156 C 36.140625 17.839844 37.261719 18.453125 37.601562 19.480469 C 38.707031 19.609375 39.84375 19.824219 40.75 20.472656 C 41.152344 20.761719 41.496094 21.132812 41.8125 21.527344 C 42.414062 20.5 43.777344 19.984375 44.902344 20.628906 C 46.230469 21.386719 46.933594 22.753906 47.167969 24.230469 Z M 22.890625 22.90625 C 22.894531 22.90625 22.898438 22.917969 22.898438 22.917969 L 22.917969 22.949219 C 22.945312 22.996094 22.976562 23.027344 23.007812 23.0625 C 23.074219 23.125 23.113281 23.132812 23.148438 23.125 C 23.457031 23.070312 23.535156 22.519531 23.273438 21.980469 C 23.210938 21.84375 23.148438 21.710938 23.082031 21.570312 C 23.011719 21.421875 22.941406 21.277344 22.890625 21.140625 C 22.773438 20.855469 22.660156 20.617188 22.554688 20.367188 C 22.460938 20.117188 22.324219 19.898438 22.222656 19.679688 C 22.121094 19.464844 22.015625 19.261719 21.921875 19.078125 C 21.542969 18.335938 21.359375 17.855469 21.421875 17.820312 C 21.492188 17.78125 21.796875 18.199219 22.257812 18.882812 C 22.375 19.054688 22.496094 19.246094 22.625 19.460938 C 22.746094 19.675781 22.894531 19.886719 23.011719 20.144531 C 23.125 20.378906 23.253906 20.632812 23.363281 20.882812 C 23.457031 21.035156 23.558594 21.195312 23.667969 21.375 C 23.800781 21.601562 24.128906 22.558594 24.355469 22.5 C 25.476562 22.214844 23.15625 18.515625 22.910156 18.007812 C 22.164062 16.460938 21.410156 14.910156 20.535156 13.4375 C 19.097656 11.011719 17.816406 8.640625 17.207031 5.878906 C 16.648438 5.878906 15.769531 5.878906 15.039062 5.863281 C 14.480469 5.847656 13.914062 5.804688 13.386719 5.988281 C 13.742188 9.265625 15.679688 12.082031 16.496094 15.238281 C 16.914062 16.851562 17.246094 18.625 18.214844 20.019531 C 18.722656 20.746094 19.773438 22.4375 20.859375 22.382812 C 20.859375 22.210938 20.746094 22.058594 20.652344 21.890625 L 20.589844 21.769531 L 20.5625 21.710938 L 20.554688 21.699219 L 20.535156 21.667969 C 20.484375 21.59375 20.4375 21.519531 20.390625 21.449219 C 20.296875 21.300781 20.203125 21.160156 20.117188 21.019531 C 19.941406 20.742188 19.78125 20.484375 19.632812 20.25 C 19.050781 19.300781 18.71875 18.695312 18.78125 18.652344 C 18.847656 18.613281 19.292969 19.140625 19.960938 20.035156 C 20.125 20.257812 20.304688 20.503906 20.5 20.765625 C 20.59375 20.898438 20.691406 21.035156 20.796875 21.179688 C 20.84375 21.25 20.894531 21.324219 20.949219 21.394531 L 20.96875 21.421875 L 20.976562 21.4375 L 20.984375 21.441406 L 20.996094 21.464844 L 21.03125 21.523438 L 21.097656 21.644531 C 21.195312 21.789062 21.273438 21.996094 21.355469 22.175781 C 21.433594 22.34375 21.511719 22.519531 21.605469 22.65625 C 21.628906 22.6875 21.660156 22.742188 21.667969 22.757812 C 21.710938 22.808594 21.714844 22.808594 21.75 22.839844 C 21.808594 22.894531 21.878906 22.945312 21.953125 22.984375 C 22.085938 23.070312 22.234375 23.082031 22.257812 23.0625 L 22.28125 23.023438 C 22.285156 23.015625 22.300781 23 22.296875 22.992188 L 22.292969 22.988281 C 22.289062 22.980469 22.289062 22.980469 22.292969 22.980469 L 22.292969 22.882812 L 22.28125 22.761719 C 22.25 22.59375 22.1875 22.414062 22.117188 22.238281 C 21.96875 21.890625 21.792969 21.554688 21.613281 21.242188 C 21.234375 20.601562 20.9375 20.019531 20.671875 19.523438 C 20.160156 18.535156 19.875 17.90625 19.941406 17.871094 C 20.007812 17.832031 20.410156 18.394531 21.011719 19.332031 C 21.308594 19.800781 21.660156 20.359375 22.046875 20.980469 C 22.25 21.300781 22.445312 21.644531 22.617188 22.027344 C 22.699219 22.226562 22.773438 22.433594 22.820312 22.667969 C 22.824219 22.710938 22.832031 22.753906 22.835938 22.796875 C 22.839844 22.800781 22.84375 22.804688 22.84375 22.808594 L 22.886719 22.890625 Z M 43.089844 24.878906 C 43.152344 25.699219 43.140625 26.507812 43.035156 27.277344 C 43.996094 27.6875 45.523438 28.4375 46.140625 27.273438 C 46.480469 26.628906 46.535156 25.886719 46.472656 25.171875 C 46.398438 24.363281 46.261719 23.425781 45.832031 22.714844 C 45.25 21.734375 43.578125 20.566406 42.734375 21.546875 C 42.878906 21.546875 43.03125 21.5625 43.171875 21.59375 C 43.625 21.695312 43.996094 21.902344 44.308594 22.121094 C 44.617188 22.34375 44.863281 22.585938 45.039062 22.8125 C 45.214844 23.039062 45.320312 23.253906 45.363281 23.414062 C 45.410156 23.582031 45.386719 23.667969 45.359375 23.675781 C 45.296875 23.683594 45.183594 23.386719 44.796875 23.03125 C 44.605469 22.851562 44.363281 22.65625 44.070312 22.472656 C 43.78125 22.292969 43.4375 22.121094 43.074219 22.042969 C 42.839844 21.988281 42.625 21.996094 42.445312 22.054688 C 42.445312 22.058594 42.441406 22.0625 42.4375 22.070312 C 42.878906 22.195312 43.246094 22.402344 43.558594 22.609375 C 43.730469 22.730469 43.886719 22.84375 44.023438 22.964844 C 44.164062 23.082031 44.28125 23.203125 44.386719 23.3125 C 44.808594 23.753906 44.988281 24.078125 44.953125 24.105469 C 44.902344 24.148438 44.644531 23.894531 44.1875 23.53125 C 43.859375 23.277344 43.417969 22.9375 42.875 22.699219 C 42.886719 22.710938 42.898438 22.726562 42.90625 22.742188 C 43.054688 22.980469 43.203125 23.214844 43.34375 23.4375 C 43.5 23.652344 43.648438 23.863281 43.792969 24.058594 C 44.074219 24.460938 44.328125 24.824219 44.539062 25.125 C 44.96875 25.738281 45.203125 26.132812 45.15625 26.175781 C 45.105469 26.214844 44.773438 25.886719 44.285156 25.324219 C 44.035156 25.050781 43.753906 24.703125 43.449219 24.3125 C 43.417969 24.273438 43.386719 24.230469 43.355469 24.191406 C 43.414062 24.371094 43.472656 24.558594 43.535156 24.753906 C 43.636719 25.140625 43.683594 25.484375 43.75 25.792969 C 43.816406 26.101562 43.886719 26.371094 43.972656 26.582031 C 44.054688 26.792969 44.160156 26.941406 44.238281 27.023438 C 44.269531 27.070312 44.324219 27.105469 44.347656 27.128906 C 44.375 27.15625 44.390625 27.179688 44.382812 27.195312 C 44.375 27.210938 44.351562 27.21875 44.3125 27.214844 C 44.273438 27.214844 44.222656 27.21875 44.148438 27.175781 C 43.992188 27.113281 43.820312 26.960938 43.683594 26.730469 C 43.398438 26.28125 43.257812 25.566406 43.089844 24.878906 " fill-opacity="1" fill-rule="nonzero"/></g><path fill="#737373" d="M 28.234375 29.226562 C 28.238281 29.257812 28.136719 29.304688 27.949219 29.359375 C 27.765625 29.414062 27.488281 29.464844 27.195312 29.585938 C 27.121094 29.617188 27.050781 29.652344 26.988281 29.699219 L 26.960938 29.714844 L 26.953125 29.726562 C 26.929688 29.742188 26.910156 29.757812 26.910156 29.765625 C 26.894531 29.78125 26.867188 29.820312 26.847656 29.855469 C 26.800781 29.921875 26.777344 30.019531 26.667969 30.152344 C 26.613281 30.214844 26.515625 30.28125 26.410156 30.296875 C 26.316406 30.308594 26.226562 30.296875 26.15625 30.277344 L 26.128906 30.269531 L 26.117188 30.265625 C 26.105469 30.265625 26.074219 30.25 26.074219 30.25 L 26.039062 30.230469 L 26 30.214844 L 25.941406 30.171875 L 25.878906 30.128906 L 25.839844 30.085938 C 25.8125 30.0625 25.789062 30.035156 25.769531 30.007812 C 25.679688 29.90625 25.617188 29.804688 25.550781 29.742188 L 25.535156 29.726562 L 25.507812 29.703125 C 25.480469 29.683594 25.453125 29.667969 25.4375 29.65625 L 25.28125 29.566406 C 25.167969 29.5 25.011719 29.390625 24.921875 29.222656 C 24.769531 28.933594 24.785156 28.582031 24.828125 28.320312 C 24.871094 28.050781 24.976562 27.808594 25.089844 27.585938 C 25.15625 27.476562 25.222656 27.371094 25.3125 27.277344 C 25.332031 27.25 25.347656 27.234375 25.382812 27.203125 L 25.441406 27.148438 C 25.457031 27.132812 25.492188 27.113281 25.523438 27.09375 C 25.554688 27.070312 25.582031 27.054688 25.617188 27.039062 C 25.683594 27.003906 25.773438 26.988281 25.855469 26.996094 C 25.941406 27.003906 26.003906 27.03125 26.066406 27.066406 C 26.167969 27.128906 26.242188 27.207031 26.304688 27.269531 C 26.363281 27.332031 26.417969 27.398438 26.46875 27.464844 C 26.519531 27.527344 26.5625 27.582031 26.601562 27.625 C 26.679688 27.710938 26.761719 27.769531 26.84375 27.808594 C 27.007812 27.882812 27.117188 27.914062 27.109375 27.953125 C 27.105469 27.976562 27 28.007812 26.789062 27.976562 C 26.6875 27.964844 26.550781 27.910156 26.429688 27.816406 C 26.367188 27.769531 26.3125 27.714844 26.253906 27.660156 C 26.203125 27.613281 26.148438 27.5625 26.078125 27.503906 C 26.015625 27.453125 25.953125 27.40625 25.894531 27.375 C 25.832031 27.355469 25.828125 27.355469 25.78125 27.382812 C 25.773438 27.386719 25.761719 27.394531 25.75 27.40625 C 25.738281 27.414062 25.726562 27.417969 25.707031 27.441406 L 25.648438 27.496094 C 25.648438 27.503906 25.625 27.53125 25.617188 27.542969 C 25.558594 27.609375 25.511719 27.699219 25.464844 27.785156 C 25.292969 28.148438 25.167969 28.644531 25.320312 28.996094 C 25.355469 29.0625 25.417969 29.113281 25.519531 29.175781 C 25.570312 29.207031 25.625 29.234375 25.691406 29.28125 C 25.730469 29.300781 25.753906 29.324219 25.777344 29.339844 L 25.8125 29.371094 L 25.832031 29.382812 C 25.839844 29.390625 25.851562 29.402344 25.851562 29.402344 L 25.875 29.425781 C 25.996094 29.558594 26.066406 29.90625 26.277344 29.898438 C 26.429688 29.894531 26.597656 29.535156 26.722656 29.445312 L 26.734375 29.433594 L 26.757812 29.417969 L 26.765625 29.410156 L 26.804688 29.394531 C 26.902344 29.339844 26.996094 29.308594 27.085938 29.28125 C 27.449219 29.183594 27.734375 29.183594 27.925781 29.183594 C 28.121094 29.183594 28.230469 29.195312 28.234375 29.226562 " fill-opacity="1" fill-rule="nonzero"/><path fill="#737373" d="M 8.875 17.441406 C 8.917969 17.488281 8.707031 17.769531 8.3125 18.171875 C 7.917969 18.574219 7.347656 19.089844 6.753906 19.683594 C 6.457031 19.980469 6.191406 20.269531 5.957031 20.546875 C 5.738281 20.828125 5.539062 21.082031 5.402344 21.3125 C 5.117188 21.773438 4.992188 22.09375 4.921875 22.078125 C 4.867188 22.0625 4.882812 21.699219 5.117188 21.164062 C 5.226562 20.894531 5.410156 20.601562 5.625 20.289062 C 5.847656 19.980469 6.121094 19.667969 6.425781 19.359375 C 7.042969 18.746094 7.652344 18.265625 8.097656 17.929688 C 8.542969 17.59375 8.828125 17.398438 8.875 17.441406 " fill-opacity="1" fill-rule="nonzero"/><path fill="#737373" d="M 7.441406 36.550781 C 7.457031 36.609375 7.234375 36.734375 6.847656 36.90625 C 6.460938 37.074219 5.910156 37.28125 5.265625 37.398438 C 4.9375 37.453125 4.617188 37.480469 4.316406 37.453125 C 4.019531 37.429688 3.742188 37.34375 3.542969 37.191406 C 3.339844 37.046875 3.25 36.855469 3.226562 36.71875 C 3.207031 36.589844 3.226562 36.527344 3.25 36.515625 C 3.285156 36.503906 3.328125 36.570312 3.394531 36.65625 C 3.453125 36.734375 3.558594 36.847656 3.714844 36.917969 C 4.023438 37.074219 4.578125 37.050781 5.179688 36.945312 C 5.789062 36.835938 6.339844 36.683594 6.75 36.597656 C 7.152344 36.507812 7.429688 36.484375 7.441406 36.550781 " fill-opacity="1" fill-rule="nonzero"/></svg>