<svg xmlns="http://www.w3.org/2000/svg" xmlns:xlink="http://www.w3.org/1999/xlink" width="64" zoomAndPan="magnify" viewBox="0 0 48 48" height="64" preserveAspectRatio="xMidYMid meet" version="1.0"><defs><clipPath id="5da87f538f"><path d="M 10.511719 11 L 17 11 L 17 28 L 10.511719 28 Z M 10.511719 11 " clip-rule="nonzero"/></clipPath><clipPath id="646b735e22"><path d="M 22.820312 30.308594 L 32 30.308594 L 32 47.019531 L 22.820312 47.019531 Z M 22.820312 30.308594 " clip-rule="nonzero"/></clipPath><clipPath id="6e10cc12f1"><path d="M 29.714844 28.902344 L 37.476562 28.902344 L 37.476562 43.871094 L 29.714844 43.871094 Z M 29.714844 28.902344 " clip-rule="nonzero"/></clipPath></defs><path fill="#737373" d="M 24.855469 13.691406 C 24.675781 13.691406 24.507812 13.574219 24.453125 13.394531 C 24.199219 12.550781 23.550781 11.882812 22.714844 11.601562 C 21.886719 11.324219 20.96875 11.464844 20.261719 11.980469 C 20.074219 12.117188 19.8125 12.074219 19.675781 11.890625 C 19.539062 11.703125 19.582031 11.441406 19.765625 11.304688 C 20.691406 10.628906 21.894531 10.445312 22.984375 10.808594 C 24.074219 11.175781 24.925781 12.050781 25.257812 13.152344 C 25.324219 13.375 25.199219 13.605469 24.976562 13.675781 C 24.933594 13.6875 24.894531 13.691406 24.855469 13.691406 " fill-opacity="1" fill-rule="nonzero"/><path fill="#737373" d="M 16.777344 29.816406 C 16.640625 29.816406 16.507812 29.75 16.425781 29.628906 C 16.300781 29.4375 16.351562 29.175781 16.542969 29.046875 C 19.707031 26.945312 19.972656 24.410156 20.1875 22.371094 C 20.261719 21.648438 20.328125 21.027344 20.511719 20.488281 C 20.71875 19.871094 21.042969 19.097656 21.382812 18.28125 C 22.035156 16.71875 22.925781 14.574219 22.742188 13.941406 L 22.734375 13.910156 C 22.648438 13.625 22.433594 13.402344 22.144531 13.304688 C 21.859375 13.210938 21.558594 13.257812 21.320312 13.429688 C 20.808594 13.804688 20.027344 14.59375 19.21875 16.222656 C 17.480469 19.742188 16.65625 20.421875 16.566406 20.488281 C 16.382812 20.625 16.117188 20.585938 15.980469 20.402344 C 15.84375 20.21875 15.878906 19.960938 16.058594 19.820312 C 16.105469 19.78125 16.851562 19.125 18.46875 15.851562 C 19.175781 14.421875 19.96875 13.378906 20.824219 12.753906 C 21.289062 12.417969 21.867188 12.328125 22.410156 12.511719 C 22.953125 12.691406 23.371094 13.125 23.535156 13.671875 L 23.546875 13.707031 C 23.796875 14.558594 23.15625 16.199219 22.15625 18.605469 C 21.820312 19.410156 21.503906 20.164062 21.304688 20.757812 C 21.152344 21.207031 21.09375 21.789062 21.019531 22.457031 C 20.800781 24.554688 20.5 27.425781 17.007812 29.746094 C 16.9375 29.792969 16.855469 29.816406 16.777344 29.816406 " fill-opacity="1" fill-rule="nonzero"/><path fill="#737373" d="M 13.101562 24.257812 C 13.09375 24.257812 13.085938 24.257812 13.074219 24.257812 C 12.84375 24.242188 12.667969 24.042969 12.683594 23.8125 C 12.820312 21.535156 13.03125 19.761719 13.304688 18.535156 C 13.355469 18.308594 13.578125 18.164062 13.804688 18.214844 C 14.03125 18.265625 14.175781 18.492188 14.125 18.714844 C 13.863281 19.882812 13.652344 21.664062 13.519531 23.863281 C 13.507812 24.085938 13.320312 24.257812 13.101562 24.257812 " fill-opacity="1" fill-rule="nonzero"/><g clip-path="url(#5da87f538f)"><path fill="#737373" d="M 10.9375 27.300781 C 10.9375 27.300781 10.933594 27.300781 10.933594 27.300781 C 10.699219 27.296875 10.515625 27.109375 10.519531 26.875 C 10.523438 26.648438 10.613281 21.238281 11.320312 18.089844 C 12.046875 14.839844 15.605469 11.945312 15.757812 11.824219 C 15.9375 11.679688 16.203125 11.707031 16.347656 11.886719 C 16.492188 12.066406 16.460938 12.332031 16.28125 12.476562 C 16.246094 12.503906 12.800781 15.308594 12.136719 18.273438 C 11.453125 21.339844 11.359375 26.835938 11.359375 26.890625 C 11.355469 27.117188 11.167969 27.300781 10.9375 27.300781 " fill-opacity="1" fill-rule="nonzero"/></g><path fill="#737373" d="M 21.546875 32.039062 C 21.523438 32.039062 21.5 32.039062 21.476562 32.035156 C 21.246094 31.996094 21.09375 31.78125 21.132812 31.550781 C 21.324219 30.414062 22.058594 29.4375 23.09375 28.9375 C 24.128906 28.441406 25.34375 28.472656 26.347656 29.027344 C 26.550781 29.136719 26.625 29.394531 26.511719 29.597656 C 26.398438 29.800781 26.144531 29.871094 25.941406 29.761719 C 25.175781 29.335938 24.25 29.3125 23.457031 29.695312 C 22.664062 30.074219 22.105469 30.824219 21.957031 31.691406 C 21.921875 31.894531 21.746094 32.039062 21.546875 32.039062 " fill-opacity="1" fill-rule="nonzero"/><g clip-path="url(#646b735e22)"><path fill="#737373" d="M 31.578125 47.023438 C 31.515625 47.023438 31.453125 47.007812 31.394531 46.980469 C 27.636719 45.113281 26.980469 42.304688 26.5 40.25 C 26.34375 39.59375 26.210938 39.027344 26.003906 38.597656 C 25.730469 38.039062 25.324219 37.324219 24.890625 36.570312 C 23.59375 34.308594 22.757812 32.761719 22.898438 31.882812 L 22.902344 31.847656 C 22.996094 31.285156 23.359375 30.804688 23.875 30.558594 C 24.390625 30.308594 24.976562 30.320312 25.476562 30.597656 C 26.40625 31.109375 27.324219 32.046875 28.203125 33.378906 C 30.238281 36.453125 31.058594 36.992188 31.09375 37.011719 C 31.292969 37.125 31.359375 37.378906 31.246094 37.582031 C 31.132812 37.78125 30.871094 37.851562 30.671875 37.738281 C 30.574219 37.683594 29.671875 37.113281 27.503906 33.839844 C 26.5 32.324219 25.628906 31.640625 25.074219 31.332031 C 24.8125 31.1875 24.507812 31.179688 24.238281 31.3125 C 23.964844 31.441406 23.78125 31.6875 23.730469 31.988281 L 23.722656 32.019531 C 23.621094 32.667969 24.773438 34.683594 25.617188 36.152344 C 26.058594 36.921875 26.472656 37.644531 26.757812 38.234375 C 27.007812 38.746094 27.148438 39.355469 27.316406 40.058594 C 27.78125 42.054688 28.363281 44.539062 31.765625 46.226562 C 31.972656 46.332031 32.058594 46.582031 31.953125 46.789062 C 31.882812 46.9375 31.734375 47.023438 31.578125 47.023438 " fill-opacity="1" fill-rule="nonzero"/></g><path fill="#737373" d="M 34.484375 40.804688 C 34.285156 40.804688 34.109375 40.664062 34.070312 40.464844 C 33.832031 39.210938 33.585938 38.113281 33.339844 37.199219 C 33.28125 36.976562 33.414062 36.746094 33.636719 36.6875 C 33.859375 36.628906 34.089844 36.761719 34.148438 36.984375 C 34.398438 37.914062 34.648438 39.03125 34.894531 40.304688 C 34.9375 40.53125 34.789062 40.753906 34.5625 40.796875 C 34.535156 40.800781 34.507812 40.804688 34.484375 40.804688 " fill-opacity="1" fill-rule="nonzero"/><path fill="#737373" d="M 34.9375 43.40625 C 34.734375 43.40625 34.554688 43.261719 34.523438 43.054688 C 34.484375 42.816406 34.4375 42.523438 34.382812 42.191406 C 34.34375 41.960938 34.496094 41.746094 34.726562 41.707031 C 34.953125 41.667969 35.171875 41.820312 35.210938 42.050781 C 35.265625 42.386719 35.3125 42.683594 35.351562 42.921875 C 35.386719 43.152344 35.230469 43.367188 35.003906 43.402344 C 34.980469 43.40625 34.957031 43.40625 34.9375 43.40625 " fill-opacity="1" fill-rule="nonzero"/><g clip-path="url(#6e10cc12f1)"><path fill="#737373" d="M 37.054688 43.796875 C 36.851562 43.796875 36.671875 43.648438 36.640625 43.4375 C 36.632812 43.382812 35.851562 37.941406 34.789062 34.984375 C 33.757812 32.125 29.980469 29.773438 29.941406 29.75 C 29.746094 29.628906 29.683594 29.371094 29.804688 29.171875 C 29.925781 28.976562 30.183594 28.914062 30.382812 29.035156 C 30.546875 29.136719 34.449219 31.566406 35.578125 34.703125 C 36.671875 37.738281 37.4375 43.09375 37.472656 43.320312 C 37.503906 43.550781 37.34375 43.761719 37.113281 43.792969 C 37.09375 43.796875 37.074219 43.796875 37.054688 43.796875 " fill-opacity="1" fill-rule="nonzero"/></g><path fill="#737373" d="M 30.1875 37.144531 C 29.960938 37.144531 29.777344 36.96875 29.765625 36.746094 C 29.761719 36.59375 29.75 36.359375 29.730469 36.125 C 29.273438 30.554688 29.933594 25.390625 31.691406 20.777344 C 33.460938 16.136719 31.597656 12.449219 26.160156 9.820312 C 22.992188 8.289062 20.433594 7.859375 18.757812 8.570312 C 17.773438 8.992188 17.074219 9.828125 16.675781 11.054688 C 15.933594 13.332031 16.839844 15.96875 17.828125 18.476562 C 17.914062 18.691406 17.808594 18.9375 17.59375 19.023438 C 17.375 19.105469 17.132812 19 17.046875 18.785156 C 16.003906 16.136719 15.050781 13.335938 15.878906 10.796875 C 16.355469 9.328125 17.214844 8.320312 18.429688 7.800781 C 20.359375 6.976562 23.082031 7.402344 26.523438 9.066406 C 32.339844 11.875 34.398438 16.03125 32.476562 21.078125 C 30.761719 25.570312 30.121094 30.613281 30.566406 36.054688 C 30.585938 36.304688 30.597656 36.550781 30.605469 36.710938 C 30.613281 36.941406 30.433594 37.136719 30.203125 37.144531 C 30.199219 37.144531 30.191406 37.144531 30.1875 37.144531 " fill-opacity="1" fill-rule="nonzero"/><path fill="#737373" d="M 23.8125 46.183594 C 22.648438 46.183594 21.476562 45.820312 20.421875 45.078125 C 16.957031 42.640625 17.855469 38.355469 18.808594 33.8125 C 19.144531 32.199219 19.496094 30.53125 19.664062 28.886719 C 19.761719 27.9375 19.707031 26.9375 19.488281 25.820312 C 19.445312 25.59375 19.59375 25.375 19.820312 25.332031 C 20.046875 25.285156 20.269531 25.4375 20.3125 25.664062 C 20.542969 26.859375 20.605469 27.941406 20.5 28.972656 C 20.324219 30.660156 19.972656 32.351562 19.628906 33.984375 C 18.695312 38.433594 17.890625 42.273438 20.90625 44.390625 C 23.140625 45.964844 26 45.539062 27.855469 43.355469 C 28.003906 43.179688 28.269531 43.15625 28.445312 43.308594 C 28.621094 43.457031 28.644531 43.722656 28.492188 43.898438 C 27.214844 45.402344 25.523438 46.183594 23.8125 46.183594 " fill-opacity="1" fill-rule="nonzero"/><path fill="#737373" d="M 19.453125 8.34375 C 17.660156 8.34375 16.140625 6.40625 16.140625 4.117188 C 16.140625 1.847656 17.585938 0 19.355469 0 C 21.160156 0 22.574219 1.765625 22.574219 4.019531 C 22.574219 4.25 22.382812 4.4375 22.152344 4.4375 C 21.921875 4.4375 21.734375 4.25 21.734375 4.019531 C 21.734375 2.234375 20.691406 0.839844 19.355469 0.839844 C 18.046875 0.839844 16.980469 2.308594 16.980469 4.117188 C 16.980469 5.921875 18.136719 7.503906 19.453125 7.503906 C 19.683594 7.503906 19.871094 7.691406 19.871094 7.921875 C 19.871094 8.15625 19.683594 8.34375 19.453125 8.34375 " fill-opacity="1" fill-rule="nonzero"/><path fill="#737373" d="M 23.183594 8.636719 C 23.132812 8.636719 23.082031 8.625 23.03125 8.605469 C 21.808594 8.136719 21.132812 6.589844 21.425781 4.933594 C 21.578125 4.070312 21.976562 3.300781 22.554688 2.765625 C 23.160156 2.203125 23.890625 1.960938 24.605469 2.085938 C 25.3125 2.210938 25.933594 2.726562 26.3125 3.503906 C 26.671875 4.234375 26.789062 5.140625 26.636719 5.992188 C 26.597656 6.21875 26.378906 6.371094 26.152344 6.332031 C 25.925781 6.289062 25.773438 6.074219 25.8125 5.84375 C 25.933594 5.164062 25.839844 4.445312 25.5625 3.875 C 25.296875 3.332031 24.90625 2.992188 24.460938 2.910156 C 24.007812 2.832031 23.535156 3 23.125 3.378906 C 22.679688 3.792969 22.371094 4.394531 22.25 5.078125 C 22.03125 6.320312 22.496094 7.5 23.335938 7.824219 C 23.550781 7.90625 23.660156 8.148438 23.574219 8.367188 C 23.511719 8.53125 23.351562 8.636719 23.183594 8.636719 " fill-opacity="1" fill-rule="nonzero"/><path fill="#737373" d="M 26.417969 9.898438 C 26.34375 9.898438 26.269531 9.878906 26.203125 9.839844 C 25.253906 9.269531 24.910156 7.902344 25.390625 6.585938 C 25.917969 5.132812 27.285156 4.292969 28.4375 4.710938 C 29.007812 4.917969 29.449219 5.433594 29.648438 6.121094 C 29.835938 6.769531 29.800781 7.503906 29.550781 8.1875 C 29.472656 8.40625 29.230469 8.519531 29.015625 8.4375 C 28.796875 8.359375 28.683594 8.117188 28.765625 7.902344 C 28.949219 7.390625 28.980469 6.824219 28.84375 6.355469 C 28.714844 5.917969 28.46875 5.613281 28.148438 5.5 C 27.445312 5.242188 26.542969 5.871094 26.179688 6.871094 C 25.839844 7.796875 26.035156 8.765625 26.632812 9.121094 C 26.832031 9.238281 26.894531 9.496094 26.777344 9.695312 C 26.699219 9.828125 26.558594 9.898438 26.417969 9.898438 " fill-opacity="1" fill-rule="nonzero"/><path fill="#737373" d="M 28.714844 11.226562 C 28.601562 11.226562 28.492188 11.179688 28.40625 11.09375 C 27.8125 10.457031 27.773438 9.363281 28.3125 8.433594 C 28.949219 7.328125 30.1875 6.84375 31.074219 7.355469 C 31.519531 7.609375 31.796875 8.125 31.84375 8.769531 C 31.886719 9.34375 31.738281 9.964844 31.445312 10.476562 C 31.328125 10.675781 31.070312 10.746094 30.871094 10.628906 C 30.671875 10.515625 30.601562 10.257812 30.71875 10.058594 C 30.929688 9.691406 31.035156 9.234375 31.007812 8.828125 C 30.984375 8.46875 30.855469 8.195312 30.65625 8.078125 C 30.179688 7.804688 29.4375 8.15625 29.039062 8.851562 C 28.695312 9.449219 28.6875 10.164062 29.019531 10.519531 C 29.175781 10.6875 29.167969 10.953125 29 11.113281 C 28.917969 11.1875 28.816406 11.226562 28.714844 11.226562 " fill-opacity="1" fill-rule="nonzero"/><path fill="#737373" d="M 30.925781 12.175781 C 30.960938 12.191406 30.988281 12.210938 31.019531 12.234375 C 31.386719 12.542969 31.964844 12.480469 32.328125 12.097656 C 32.523438 11.898438 32.628906 11.640625 32.636719 11.378906 C 32.640625 11.128906 32.546875 10.898438 32.378906 10.734375 C 32.015625 10.386719 31.40625 10.433594 31.015625 10.839844 C 30.667969 11.203125 30.609375 11.722656 30.871094 12.078125 C 30.894531 12.109375 30.914062 12.140625 30.925781 12.175781 Z M 31.574219 13.265625 C 31.183594 13.265625 30.796875 13.140625 30.484375 12.878906 C 30.425781 12.832031 30.386719 12.773438 30.359375 12.707031 C 30.296875 12.679688 30.242188 12.636719 30.199219 12.578125 C 29.691406 11.894531 29.78125 10.917969 30.414062 10.257812 C 31.121094 9.523438 32.261719 9.464844 32.957031 10.128906 C 33.296875 10.457031 33.480469 10.90625 33.472656 11.394531 C 33.464844 11.867188 33.273438 12.324219 32.933594 12.679688 C 32.5625 13.066406 32.0625 13.265625 31.574219 13.265625 " fill-opacity="1" fill-rule="nonzero"/></svg>