<svg xmlns="http://www.w3.org/2000/svg" xmlns:xlink="http://www.w3.org/1999/xlink" width="64" zoomAndPan="magnify" viewBox="0 0 48 48" height="64" preserveAspectRatio="xMidYMid meet" version="1.0"><defs><clipPath id="c1724ae77e"><path d="M 0.488281 5.261719 L 46 5.261719 L 46 41.996094 L 0.488281 41.996094 Z M 0.488281 5.261719 " clip-rule="nonzero"/></clipPath><clipPath id="68c01fbdd9"><path d="M 38 29 L 47.507812 29 L 47.507812 31 L 38 31 Z M 38 29 " clip-rule="nonzero"/></clipPath><clipPath id="ae18ed4c83"><path d="M 41 5.261719 L 47.507812 5.261719 L 47.507812 31 L 41 31 Z M 41 5.261719 " clip-rule="nonzero"/></clipPath><clipPath id="c1efacda72"><path d="M 34 5.261719 L 41 5.261719 L 41 31 L 34 31 Z M 34 5.261719 " clip-rule="nonzero"/></clipPath><clipPath id="6bc0642ec8"><path d="M 28 5.261719 L 35 5.261719 L 35 31 L 28 31 Z M 28 5.261719 " clip-rule="nonzero"/></clipPath></defs><g clip-path="url(#c1724ae77e)"><path fill="#737373" d="M 39.441406 41.742188 L 6.5625 41.742188 C 3.210938 41.742188 0.488281 39.015625 0.488281 35.667969 L 0.488281 35.148438 C 0.488281 35.113281 0.492188 35.074219 0.496094 35.039062 L 3.476562 14.367188 C 3.84375 11.824219 5.160156 9.511719 7.191406 7.863281 C 9.171875 6.253906 11.703125 5.367188 14.3125 5.367188 L 42.164062 5.367188 C 42.589844 5.367188 42.929688 5.710938 42.929688 6.132812 C 42.929688 6.554688 42.589844 6.898438 42.164062 6.898438 L 14.3125 6.898438 C 9.554688 6.898438 5.632812 10.132812 4.988281 14.585938 L 2.019531 35.203125 L 2.019531 35.667969 C 2.019531 38.175781 4.054688 40.210938 6.5625 40.210938 L 39.441406 40.210938 C 41.949219 40.210938 43.984375 38.175781 43.984375 35.667969 L 43.984375 35.148438 C 43.984375 32.644531 41.949219 30.605469 39.441406 30.605469 L 9.175781 30.605469 C 7.746094 30.605469 6.582031 31.769531 6.582031 33.203125 L 6.582031 33.964844 C 6.582031 35.394531 7.746094 36.558594 9.175781 36.558594 L 38.042969 36.558594 C 38.632812 36.558594 39.113281 36.078125 39.113281 35.488281 L 39.113281 35.332031 C 39.113281 34.742188 38.632812 34.261719 38.042969 34.261719 L 10.363281 34.261719 C 9.941406 34.261719 9.597656 33.917969 9.597656 33.496094 C 9.597656 33.074219 9.941406 32.730469 10.363281 32.730469 L 38.042969 32.730469 C 39.476562 32.730469 40.644531 33.898438 40.644531 35.332031 L 40.644531 35.488281 C 40.644531 36.921875 39.476562 38.089844 38.042969 38.089844 L 9.175781 38.089844 C 6.902344 38.089844 5.054688 36.238281 5.054688 33.964844 L 5.054688 33.203125 C 5.054688 30.925781 6.902344 29.078125 9.175781 29.078125 L 39.441406 29.078125 C 42.792969 29.078125 45.515625 31.800781 45.515625 35.148438 L 45.515625 35.667969 C 45.515625 39.019531 42.792969 41.742188 39.441406 41.742188 Z M 39.441406 41.742188 " fill-opacity="1" fill-rule="nonzero"/></g><g clip-path="url(#68c01fbdd9)"><path fill="#737373" d="M 46.679688 30.605469 L 39.441406 30.605469 C 39.019531 30.605469 38.679688 30.261719 38.679688 29.839844 C 38.679688 29.417969 39.019531 29.074219 39.441406 29.074219 L 46.679688 29.074219 C 47.101562 29.074219 47.445312 29.417969 47.445312 29.839844 C 47.445312 30.261719 47.101562 30.605469 46.679688 30.605469 Z M 46.679688 30.605469 " fill-opacity="1" fill-rule="nonzero"/></g><g clip-path="url(#ae18ed4c83)"><path fill="#737373" d="M 46.679688 30.605469 C 46.320312 30.605469 45.996094 30.351562 45.925781 29.984375 L 41.414062 6.277344 C 41.335938 5.863281 41.609375 5.460938 42.023438 5.382812 C 42.4375 5.304688 42.839844 5.578125 42.917969 5.992188 L 47.429688 29.699219 C 47.511719 30.113281 47.238281 30.515625 46.824219 30.59375 C 46.773438 30.601562 46.726562 30.605469 46.679688 30.605469 Z M 46.679688 30.605469 " fill-opacity="1" fill-rule="nonzero"/></g><g clip-path="url(#c1efacda72)"><path fill="#737373" d="M 38.4375 30.605469 C 38.347656 30.605469 38.253906 30.589844 38.164062 30.558594 C 37.769531 30.40625 37.570312 29.964844 37.71875 29.570312 L 38.386719 27.808594 C 38.71875 26.929688 38.546875 26.027344 37.914062 25.332031 L 37.816406 25.222656 C 36.796875 24.101562 36.507812 22.589844 37.042969 21.171875 L 37.097656 21.035156 C 37.429688 20.15625 37.257812 19.253906 36.625 18.558594 L 36.523438 18.449219 C 35.507812 17.328125 35.21875 15.816406 35.753906 14.402344 L 35.804688 14.261719 C 36.136719 13.382812 35.964844 12.480469 35.332031 11.785156 L 35.234375 11.675781 C 34.21875 10.554688 33.929688 9.042969 34.464844 7.628906 L 35.128906 5.867188 C 35.28125 5.46875 35.722656 5.269531 36.117188 5.421875 C 36.511719 5.570312 36.710938 6.011719 36.5625 6.40625 L 35.894531 8.167969 C 35.5625 9.046875 35.734375 9.949219 36.367188 10.644531 L 36.46875 10.757812 C 37.484375 11.875 37.773438 13.390625 37.238281 14.804688 L 37.1875 14.941406 C 36.855469 15.820312 37.027344 16.722656 37.660156 17.417969 L 37.757812 17.527344 C 38.777344 18.648438 39.066406 20.160156 38.53125 21.578125 L 38.476562 21.714844 C 38.144531 22.59375 38.316406 23.496094 38.949219 24.191406 L 39.050781 24.300781 C 40.066406 25.417969 40.355469 26.933594 39.820312 28.347656 L 39.152344 30.109375 C 39.035156 30.417969 38.746094 30.605469 38.4375 30.605469 Z M 38.4375 30.605469 " fill-opacity="1" fill-rule="nonzero"/></g><g clip-path="url(#6bc0642ec8)"><path fill="#737373" d="M 33.105469 30.605469 C 33.015625 30.605469 32.925781 30.589844 32.835938 30.558594 C 32.441406 30.40625 32.242188 29.964844 32.390625 29.570312 L 33.058594 27.808594 C 33.390625 26.929688 33.21875 26.027344 32.585938 25.332031 L 32.488281 25.222656 C 31.46875 24.101562 31.179688 22.589844 31.714844 21.175781 L 31.769531 21.035156 C 32.101562 20.15625 31.929688 19.253906 31.296875 18.558594 L 31.195312 18.449219 C 30.179688 17.328125 29.890625 15.816406 30.425781 14.398438 L 30.476562 14.261719 C 30.8125 13.382812 30.636719 12.480469 30.007812 11.785156 L 29.90625 11.675781 C 28.890625 10.554688 28.601562 9.042969 29.136719 7.625 L 29.804688 5.863281 C 29.953125 5.46875 30.394531 5.269531 30.789062 5.417969 C 31.183594 5.570312 31.382812 6.011719 31.234375 6.40625 L 30.566406 8.167969 C 30.234375 9.046875 30.40625 9.949219 31.039062 10.644531 L 31.140625 10.753906 C 32.15625 11.875 32.445312 13.386719 31.910156 14.800781 L 31.859375 14.941406 C 31.527344 15.820312 31.699219 16.722656 32.332031 17.417969 L 32.429688 17.527344 C 33.449219 18.648438 33.738281 20.160156 33.203125 21.574219 L 33.148438 21.714844 C 32.816406 22.59375 32.988281 23.496094 33.621094 24.191406 L 33.722656 24.300781 C 34.738281 25.421875 35.027344 26.933594 34.492188 28.347656 L 33.824219 30.109375 C 33.707031 30.417969 33.417969 30.605469 33.105469 30.605469 Z M 33.105469 30.605469 " fill-opacity="1" fill-rule="nonzero"/></g></svg>