<svg xmlns="http://www.w3.org/2000/svg" xmlns:xlink="http://www.w3.org/1999/xlink" width="400" zoomAndPan="magnify" viewBox="0 0 300 299.999988" height="400" preserveAspectRatio="xMidYMid meet" version="1.0"><defs><clipPath id="2887ad2d16"><path d="M 5.589844 65.191406 L 294.339844 65.191406 L 294.339844 234.691406 L 5.589844 234.691406 Z M 5.589844 65.191406 " clip-rule="nonzero"/></clipPath></defs><g clip-path="url(#2887ad2d16)"><path fill="#000000" d="M 281.839844 216.480469 C 289.347656 211.558594 294.328125 203.082031 294.328125 193.460938 C 294.328125 178.289062 282.011719 165.976562 266.832031 165.976562 L 265.570312 165.976562 C 266.375 164.601562 266.832031 163.054688 266.832031 161.394531 C 266.832031 158.53125 265.515625 156.011719 263.453125 154.292969 C 270.898438 150.515625 275.996094 142.785156 275.996094 133.910156 C 275.996094 121.253906 265.742188 111.003906 253.082031 111.003906 L 243.515625 111.003906 C 243.746094 110.257812 243.917969 109.515625 243.917969 108.710938 C 243.917969 107.28125 243.457031 105.90625 242.714844 104.820312 C 250.160156 101.726562 255.375 94.339844 255.375 85.808594 C 255.375 74.410156 246.152344 65.191406 234.75 65.191406 L 72.054688 65.191406 C 58.132812 65.191406 46.847656 76.472656 46.847656 90.386719 C 46.847656 98.921875 51.085938 106.421875 57.558594 111.003906 L 53.722656 111.003906 C 37.28125 111.003906 23.933594 124.34375 23.933594 140.78125 C 23.933594 151.429688 29.546875 160.765625 37.96875 166.03125 C 19.921875 167.0625 5.601562 182.066406 5.601562 200.335938 C 5.601562 219.289062 21.011719 234.691406 39.972656 234.691406 L 280.582031 234.691406 C 285.621094 234.691406 289.746094 230.570312 289.746094 225.53125 C 289.746094 220.890625 286.308594 217.113281 281.839844 216.480469 Z M 271.414062 133.910156 C 271.414062 143.988281 263.164062 152.234375 253.082031 152.234375 L 196.941406 152.234375 C 192.53125 152.234375 188.921875 148.625 188.921875 144.214844 C 188.921875 139.804688 192.53125 136.199219 196.941406 136.199219 L 255.375 136.199219 C 256.632812 136.199219 257.664062 135.167969 257.664062 133.910156 C 257.664062 132.648438 256.632812 131.617188 255.375 131.617188 L 196.941406 131.617188 C 190.007812 131.617188 184.335938 137.285156 184.335938 144.214844 C 184.335938 151.144531 190.007812 156.8125 196.941406 156.8125 L 257.664062 156.8125 C 260.1875 156.8125 262.25 158.875 262.25 161.394531 C 262.25 163.914062 260.1875 165.976562 257.664062 165.976562 L 195.796875 165.976562 C 181.875 165.976562 170.589844 154.695312 170.589844 140.78125 C 170.589844 126.863281 181.875 115.585938 195.796875 115.585938 L 253.082031 115.585938 C 263.164062 115.585938 271.414062 123.828125 271.414062 133.910156 Z M 145.382812 165.976562 C 131.460938 165.976562 120.175781 154.695312 120.175781 140.78125 C 120.175781 126.863281 131.460938 115.585938 145.382812 115.585938 L 179.925781 115.585938 C 171.5625 120.851562 166.003906 130.1875 166.003906 140.78125 C 166.003906 151.375 171.5625 160.707031 179.925781 165.976562 Z M 97.261719 140.78125 C 97.261719 126.863281 108.546875 115.585938 122.46875 115.585938 L 129.511719 115.585938 C 121.148438 120.851562 115.59375 130.1875 115.59375 140.78125 C 115.59375 151.375 121.148438 160.707031 129.511719 165.976562 L 122.46875 165.976562 C 108.546875 165.976562 97.261719 154.695312 97.261719 140.78125 Z M 234.75 69.773438 C 243.574219 69.773438 250.792969 76.988281 250.792969 85.808594 C 250.792969 94.625 243.574219 101.839844 234.75 101.839844 L 204.960938 101.839844 C 201.179688 101.839844 198.085938 98.75 198.085938 94.96875 C 198.085938 91.191406 201.179688 88.097656 204.960938 88.097656 L 237.042969 88.097656 C 238.300781 88.097656 239.332031 87.066406 239.332031 85.808594 C 239.332031 84.546875 238.300781 83.515625 237.042969 83.515625 L 204.960938 83.515625 C 198.660156 83.515625 193.503906 88.671875 193.503906 94.96875 C 193.503906 101.269531 198.660156 106.421875 204.960938 106.421875 L 237.042969 106.421875 C 238.300781 106.421875 239.332031 107.453125 239.332031 108.710938 C 239.332031 109.972656 238.300781 111.003906 237.042969 111.003906 L 200.378906 111.003906 C 188.976562 111.003906 179.753906 101.785156 179.753906 90.386719 C 179.753906 78.992188 188.976562 69.773438 200.378906 69.773438 Z M 185.882812 69.773438 C 179.410156 74.355469 175.171875 81.855469 175.171875 90.386719 C 175.171875 98.921875 179.410156 106.421875 185.882812 111.003906 L 154.546875 111.003906 C 143.148438 111.003906 133.925781 101.785156 133.925781 90.386719 C 133.925781 78.992188 143.148438 69.773438 154.546875 69.773438 Z M 140.054688 69.773438 C 133.582031 74.355469 129.34375 81.855469 129.34375 90.386719 C 129.34375 98.921875 133.582031 106.421875 140.054688 111.003906 L 131.632812 111.003906 C 120.234375 111.003906 111.011719 101.785156 111.011719 90.386719 C 111.011719 78.992188 120.234375 69.773438 131.632812 69.773438 Z M 51.429688 90.386719 C 51.429688 78.992188 60.652344 69.773438 72.054688 69.773438 L 117.140625 69.773438 C 110.667969 74.355469 106.425781 81.855469 106.425781 90.386719 C 106.425781 98.921875 110.667969 106.421875 117.140625 111.003906 L 72.054688 111.003906 C 60.652344 111.003906 51.429688 101.785156 51.429688 90.386719 Z M 28.515625 140.78125 C 28.515625 126.863281 39.800781 115.585938 53.722656 115.585938 L 106.597656 115.585938 C 98.234375 120.851562 92.679688 130.1875 92.679688 140.78125 C 92.679688 151.375 98.234375 160.707031 106.597656 165.976562 L 53.722656 165.976562 C 39.800781 165.976562 28.515625 154.695312 28.515625 140.78125 Z M 39.972656 230.109375 C 23.53125 230.109375 10.183594 216.769531 10.183594 200.335938 C 10.183594 183.898438 23.53125 170.558594 39.972656 170.558594 L 100.753906 170.558594 C 90.445312 176.511719 83.511719 187.621094 83.511719 200.335938 C 83.511719 213.046875 90.445312 224.15625 100.753906 230.109375 Z M 117.882812 230.109375 C 101.441406 230.109375 88.09375 216.769531 88.09375 200.335938 C 88.09375 183.898438 101.441406 170.558594 117.882812 170.558594 L 128.253906 170.558594 C 117.941406 176.511719 111.011719 187.621094 111.011719 200.335938 C 111.011719 213.046875 117.941406 224.15625 128.253906 230.109375 Z M 145.382812 230.109375 C 128.941406 230.109375 115.59375 216.769531 115.59375 200.335938 C 115.59375 183.898438 128.941406 170.558594 145.382812 170.558594 L 178.667969 170.558594 C 168.355469 176.511719 161.421875 187.621094 161.421875 200.335938 C 161.421875 213.046875 168.355469 224.15625 178.667969 230.109375 Z M 280.582031 230.109375 L 195.796875 230.109375 C 179.355469 230.109375 166.003906 216.769531 166.003906 200.335938 C 166.003906 183.898438 179.355469 170.558594 195.796875 170.558594 L 266.832031 170.558594 C 279.492188 170.558594 289.746094 180.808594 289.746094 193.460938 C 289.746094 206.117188 279.492188 216.367188 266.832031 216.367188 L 199.234375 216.367188 C 193.5625 216.367188 188.921875 211.730469 188.921875 206.058594 C 188.921875 200.390625 193.5625 195.753906 199.234375 195.753906 L 273.707031 195.753906 C 274.964844 195.753906 275.996094 194.722656 275.996094 193.460938 C 275.996094 192.203125 274.964844 191.171875 273.707031 191.171875 L 199.234375 191.171875 C 191.039062 191.171875 184.335938 197.871094 184.335938 206.058594 C 184.335938 214.25 191.039062 220.949219 199.234375 220.949219 L 280.582031 220.949219 C 283.101562 220.949219 285.164062 223.011719 285.164062 225.53125 C 285.164062 228.050781 283.101562 230.109375 280.582031 230.109375 Z M 280.582031 230.109375 " fill-opacity="1" fill-rule="nonzero"/></g></svg>