<svg xmlns="http://www.w3.org/2000/svg" xmlns:xlink="http://www.w3.org/1999/xlink" width="400" zoomAndPan="magnify" viewBox="0 0 300 299.999988" height="400" preserveAspectRatio="xMidYMid meet" version="1.0"><path fill="#686864" d="M 273.800781 235.179688 C 273.800781 235.804688 273.800781 236.269531 273.800781 236.890625 L 273.800781 266.734375 C 273.800781 268.445312 272.402344 269.84375 270.695312 269.84375 C 268.984375 269.84375 267.585938 268.445312 267.585938 266.734375 L 267.585938 236.890625 C 267.585938 236.890625 267.585938 236.734375 267.585938 236.734375 C 267.585938 236.269531 267.585938 235.804688 267.585938 235.335938 C 267.585938 226.476562 260.902344 218.703125 251.730469 216.839844 L 239.605469 214.507812 C 236.496094 213.730469 233.699219 213.109375 230.433594 212.488281 C 213.648438 208.910156 194.683594 204.871094 183.335938 189.015625 C 181.003906 185.597656 178.984375 182.019531 177.585938 178.132812 L 160.796875 192.746094 C 159.242188 194.144531 157.222656 194.765625 155.203125 194.765625 C 153.335938 194.765625 151.472656 194.144531 149.917969 192.746094 C 148.363281 193.988281 146.496094 194.765625 144.632812 194.765625 C 142.609375 194.765625 140.746094 194.144531 139.035156 192.746094 L 122.402344 178.289062 C 121.003906 182.019531 119.140625 185.597656 116.808594 189.015625 C 105.460938 204.871094 86.496094 208.910156 69.710938 212.488281 C 66.601562 213.109375 63.648438 213.730469 60.695312 214.507812 L 48.414062 216.996094 C 39.085938 218.550781 32.402344 226.320312 32.402344 235.335938 C 32.402344 235.804688 32.402344 236.269531 32.402344 236.734375 C 32.402344 236.734375 32.402344 236.890625 32.402344 236.890625 L 32.402344 266.734375 C 32.402344 268.445312 31.003906 269.84375 29.292969 269.84375 C 27.585938 269.84375 26.1875 268.445312 26.1875 266.734375 L 26.1875 236.890625 C 26.1875 236.269531 26.1875 235.804688 26.1875 235.179688 C 26.339844 223.367188 35.046875 212.953125 47.171875 210.621094 L 59.292969 208.289062 C 62.25 207.667969 65.355469 206.890625 68.308594 206.269531 C 84.789062 202.851562 101.730469 199.273438 111.523438 185.285156 C 114.164062 181.710938 116.03125 177.667969 117.273438 173.316406 C 116.964844 172.226562 117.117188 171.140625 117.894531 170.207031 C 118.984375 168.964844 121.003906 168.808594 122.25 169.894531 L 143.078125 187.925781 C 144.011719 188.703125 145.253906 188.703125 146.03125 187.925781 C 146.964844 187.148438 146.964844 185.90625 146.339844 184.972656 L 125.824219 157.617188 C 121.9375 152.488281 117.273438 148.132812 111.679688 144.714844 L 106.546875 141.449219 C 106.238281 141.296875 105.925781 140.984375 105.617188 140.671875 L 63.335938 81.140625 C 62.402344 79.742188 62.714844 77.875 64.113281 76.789062 C 65.511719 75.855469 67.378906 76.164062 68.464844 77.566406 L 110.28125 136.476562 L 114.941406 139.429688 C 121.160156 143.316406 126.445312 148.132812 130.796875 153.886719 L 132.664062 156.375 C 132.351562 154.972656 133.128906 153.574219 134.371094 152.953125 C 141.054688 150 144.164062 144.714844 145.097656 143.160156 L 145.097656 77.71875 C 144.632812 78.1875 144.320312 78.496094 143.855469 78.964844 C 141.054688 81.917969 138.878906 85.335938 137.636719 88.910156 C 136.546875 91.710938 136.082031 96.375 135.304688 105.855469 C 135.148438 108.03125 134.996094 110.050781 134.839844 111.761719 C 134.21875 119.066406 133.90625 122.953125 131.574219 128.082031 C 130.175781 131.191406 128.15625 133.988281 125.824219 136.476562 C 125.203125 137.097656 124.425781 137.566406 123.492188 137.566406 C 122.714844 137.566406 121.9375 137.253906 121.472656 136.789062 C 120.226562 135.699219 120.070312 133.679688 121.316406 132.433594 C 123.179688 130.257812 124.734375 127.925781 125.980469 125.441406 C 127.84375 121.398438 128.15625 118.132812 128.777344 111.296875 C 128.933594 109.585938 129.085938 107.566406 129.242188 105.234375 C 130.175781 95.75 130.640625 90.464844 132.042969 86.734375 C 133.75 82.382812 136.238281 78.34375 139.65625 74.765625 C 141.988281 72.433594 144.632812 69.480469 145.410156 68.238281 L 145.410156 60.777344 C 145.410156 60.464844 145.410156 60.3125 145.5625 60 C 144.789062 60.777344 144.011719 61.398438 143.078125 62.019531 C 130.640625 70.726562 124.269531 83.78125 124.113281 100.726562 C 124.113281 122.332031 109.8125 127.304688 109.191406 127.460938 C 108.878906 127.617188 108.570312 127.617188 108.257812 127.617188 C 107.015625 127.617188 105.773438 126.839844 105.304688 125.441406 C 104.683594 123.886719 105.617188 122.019531 107.324219 121.554688 C 107.792969 121.398438 118.050781 117.511719 118.050781 100.726562 C 118.050781 81.917969 125.511719 66.839844 139.65625 56.890625 C 149.292969 50.050781 144.941406 38.859375 144.789062 38.238281 C 144.632812 37.925781 144.476562 37.617188 144.164062 37.304688 C 144.164062 37.304688 143.699219 36.996094 142.921875 36.839844 C 141.523438 36.683594 127.066406 37.925781 116.03125 47.410156 C 96.445312 63.886719 98.15625 96.996094 98.777344 103.523438 C 98.933594 105.234375 97.6875 106.789062 95.980469 106.941406 C 95.824219 106.941406 95.824219 106.941406 95.667969 106.941406 C 94.113281 106.941406 92.714844 105.699219 92.558594 104.144531 C 91.78125 94.195312 90.695312 60.621094 111.523438 42.589844 C 124.425781 31.554688 141.054688 30 143.699219 30.621094 C 145.253906 30.933594 146.496094 31.710938 147.117188 32.175781 C 147.742188 31.710938 148.984375 30.933594 150.539062 30.621094 C 153.179688 30.15625 169.8125 31.554688 182.714844 42.589844 C 203.699219 60.621094 202.609375 94.195312 201.832031 103.988281 C 201.679688 105.699219 200.125 106.941406 198.414062 106.789062 C 196.703125 106.632812 195.460938 105.078125 195.617188 103.367188 C 196.238281 96.839844 197.949219 63.574219 178.828125 47.097656 C 167.792969 37.773438 153.335938 36.527344 151.78125 36.683594 C 151.160156 36.839844 150.695312 37.148438 150.695312 37.304688 C 150.695312 37.304688 150.695312 37.304688 150.539062 37.460938 C 152.09375 42.433594 152.714844 50.984375 147.273438 57.824219 C 147.585938 57.667969 147.742188 57.667969 148.050781 57.667969 C 148.828125 57.667969 167.636719 56.890625 177.585938 79.585938 C 178.207031 81.140625 177.585938 83.003906 176.03125 83.625 C 174.476562 84.25 172.609375 83.625 171.988281 82.074219 C 165.925781 68.238281 156.289062 64.972656 151.472656 64.195312 L 151.472656 85.335938 C 151.9375 87.511719 156.132812 103.835938 170.125 110.207031 C 188 118.289062 188.933594 127.925781 188.933594 129.015625 C 188.933594 130.726562 187.6875 132.125 185.980469 132.28125 C 185.980469 132.28125 185.824219 132.28125 185.824219 132.28125 C 184.113281 132.28125 182.714844 131.035156 182.714844 129.328125 C 182.714844 129.328125 181.78125 122.332031 167.480469 115.957031 C 159.863281 112.539062 154.890625 106.941406 151.472656 101.503906 L 151.472656 143.625 C 152.402344 145.335938 155.667969 150.464844 162.195312 153.417969 C 163.75 154.195312 164.527344 155.90625 163.75 157.460938 C 163.285156 158.550781 162.042969 159.328125 160.953125 159.328125 C 160.488281 159.328125 160.019531 159.171875 159.710938 159.015625 C 154.269531 156.527344 150.695312 152.953125 148.519531 150 C 146.339844 152.953125 142.765625 156.527344 137.324219 159.015625 C 136.859375 159.171875 136.546875 159.328125 136.082031 159.328125 C 135.617188 159.328125 135.148438 159.171875 134.683594 159.015625 L 150.226562 179.84375 L 169.347656 154.195312 C 173.699219 148.445312 178.984375 143.472656 185.203125 139.742188 L 189.710938 136.941406 L 225.304688 78.1875 C 226.238281 76.789062 228.101562 76.320312 229.503906 77.097656 C 230.902344 78.03125 231.367188 79.894531 230.589844 81.296875 L 194.527344 140.671875 C 194.21875 141.140625 193.90625 141.449219 193.441406 141.761719 L 188.308594 145.027344 C 182.871094 148.445312 178.050781 152.796875 174.164062 157.925781 L 153.492188 185.128906 C 152.871094 186.0625 152.871094 187.304688 153.800781 188.082031 C 154.578125 188.859375 155.980469 188.859375 156.757812 188.082031 L 177.585938 170.050781 C 178.828125 168.964844 180.847656 169.121094 181.9375 170.363281 C 182.558594 171.140625 182.871094 172.226562 182.558594 173.160156 C 183.800781 177.511719 185.824219 181.710938 188.464844 185.441406 C 198.414062 199.273438 215.355469 202.851562 231.679688 206.425781 C 234.632812 207.046875 237.742188 207.667969 240.847656 208.445312 L 252.816406 210.777344 C 264.941406 213.109375 273.648438 223.367188 273.800781 235.179688 Z M 95.824219 196.941406 C 95.980469 196.941406 96.132812 196.941406 96.289062 196.941406 C 97.84375 196.941406 99.085938 195.855469 99.398438 194.300781 L 100.488281 186.375 C 100.488281 186.0625 100.488281 185.597656 100.488281 185.285156 L 94.578125 160.414062 C 94.425781 159.792969 94.113281 159.171875 93.648438 158.859375 L 43.59375 115.335938 C 42.351562 114.25 40.332031 114.402344 39.242188 115.648438 C 38.15625 116.890625 38.308594 118.910156 39.554688 120 L 88.828125 162.746094 L 94.269531 185.90625 L 93.179688 193.367188 C 92.871094 195.078125 94.113281 196.632812 95.824219 196.941406 Z M 254.21875 119.84375 C 255.460938 118.601562 255.460938 116.734375 254.21875 115.492188 C 252.972656 114.25 251.109375 114.25 249.863281 115.492188 L 206.03125 158.859375 C 205.5625 159.328125 205.410156 159.792969 205.253906 160.257812 L 199.191406 184.972656 C 199.035156 185.285156 199.035156 185.75 199.191406 186.0625 L 200.28125 193.988281 C 200.433594 195.542969 201.832031 196.632812 203.386719 196.632812 C 203.542969 196.632812 203.699219 196.632812 203.855469 196.632812 C 205.5625 196.476562 206.808594 194.921875 206.496094 193.210938 L 205.5625 185.90625 L 211.316406 162.589844 Z M 142.457031 48.808594 C 144.164062 48.34375 145.097656 46.632812 144.789062 45.078125 C 144.320312 43.367188 142.609375 42.433594 141.054688 42.746094 C 134.996094 44.144531 123.957031 48.1875 115.410156 59.222656 C 105.304688 72.125 105.460938 86.425781 105.925781 91.867188 C 106.082031 93.417969 107.480469 94.664062 109.035156 94.664062 C 109.191406 94.664062 109.191406 94.664062 109.347656 94.664062 C 111.054688 94.507812 112.300781 92.953125 112.144531 91.242188 C 111.679688 86.425781 111.679688 74.144531 120.382812 62.953125 C 127.6875 53.472656 137.324219 50.050781 142.457031 48.808594 Z M 169.191406 214.195312 C 168.878906 209.066406 166.859375 204.558594 163.128906 201.296875 C 159.398438 198.03125 154.425781 196.320312 149.449219 196.476562 C 144.320312 196.789062 139.503906 198.964844 136.082031 202.851562 C 132.664062 206.582031 130.953125 211.554688 131.265625 216.683594 C 131.574219 221.8125 133.75 226.476562 137.636719 229.894531 C 138.878906 230.984375 140.902344 230.984375 141.988281 229.585938 C 143.078125 228.34375 143.078125 226.320312 141.679688 225.234375 C 139.191406 222.902344 137.636719 219.792969 137.324219 216.371094 C 137.171875 212.953125 138.257812 209.535156 140.589844 207.046875 C 142.921875 204.402344 146.03125 203.003906 149.605469 202.851562 C 153.027344 202.695312 156.445312 203.78125 158.933594 206.113281 C 162.039062 208.910156 162.816406 212.332031 162.972656 214.664062 C 163.128906 218.859375 161.730469 222.589844 160.019531 224.300781 C 157.84375 226.632812 154.890625 228.1875 151.9375 229.429688 C 151.316406 229.742188 150.539062 230.050781 149.917969 230.363281 C 144.789062 232.539062 138.878906 235.027344 135.460938 240.621094 C 131.265625 247.460938 131.109375 256.011719 134.839844 262.074219 C 137.636719 266.582031 141.832031 268.757812 144.941406 269.84375 C 145.253906 270 145.5625 270 146.03125 270 C 147.273438 270 148.519531 269.222656 148.984375 267.980469 C 149.605469 266.425781 148.671875 264.558594 147.117188 263.9375 C 144.941406 263.160156 142.144531 261.761719 140.28125 258.808594 C 137.324219 253.988281 138.414062 247.925781 140.902344 243.886719 C 143.386719 240 147.742188 238.132812 152.402344 236.113281 C 153.179688 235.804688 153.800781 235.492188 154.578125 235.179688 C 158.15625 233.625 161.886719 231.761719 164.839844 228.496094 C 167.636719 224.921875 169.503906 219.480469 169.191406 214.195312 Z M 149.761719 223.988281 C 147.742188 223.988281 145.875 223.367188 144.164062 221.8125 C 140.746094 218.703125 140.433594 213.417969 143.542969 210 C 146.652344 206.582031 151.9375 206.269531 155.355469 209.378906 C 158.777344 212.488281 159.085938 217.773438 155.980469 221.191406 C 154.425781 223.058594 152.09375 223.988281 149.761719 223.988281 Z M 151.160156 214.042969 C 150.695312 213.730469 150.226562 213.574219 149.761719 213.574219 C 149.140625 213.574219 148.519531 213.886719 148.207031 214.351562 C 147.429688 215.285156 147.429688 216.527344 148.363281 217.304688 C 149.292969 218.082031 150.539062 218.082031 151.316406 217.148438 C 152.09375 216.21875 152.09375 214.820312 151.160156 214.042969 Z M 150.847656 259.121094 C 148.828125 259.121094 146.808594 258.34375 145.097656 256.941406 C 141.523438 253.835938 141.210938 248.394531 144.476562 244.820312 C 147.585938 241.242188 153.027344 240.933594 156.601562 244.195312 C 158.308594 245.75 159.398438 247.773438 159.398438 250.105469 C 159.554688 252.433594 158.777344 254.613281 157.222656 256.320312 C 155.511719 258.1875 153.179688 259.121094 150.847656 259.121094 Z M 153.179688 250.414062 C 153.179688 249.792969 152.871094 249.171875 152.402344 248.859375 C 151.9375 248.394531 151.472656 248.238281 150.847656 248.238281 C 150.226562 248.238281 149.605469 248.550781 149.140625 249.015625 C 148.207031 249.949219 148.363281 251.503906 149.292969 252.28125 C 150.226562 253.210938 151.78125 253.058594 152.558594 252.125 C 153.027344 251.65625 153.179688 251.035156 153.179688 250.414062 Z M 153.179688 250.414062 " fill-opacity="1" fill-rule="nonzero"/></svg>