<svg xmlns="http://www.w3.org/2000/svg" xmlns:xlink="http://www.w3.org/1999/xlink" width="400" zoomAndPan="magnify" viewBox="0 0 300 299.999988" height="400" preserveAspectRatio="xMidYMid meet" version="1.0"><defs><clipPath id="61a98398cb"><path d="M 30 26.296875 L 277 26.296875 L 277 273.796875 L 30 273.796875 Z M 30 26.296875 " clip-rule="nonzero"/></clipPath></defs><path fill="#686864" d="M 216.714844 81.960938 C 222.898438 81.960938 228.3125 76.9375 228.3125 70.367188 C 228.3125 64.953125 224.445312 60.3125 219.421875 59.15625 C 219.035156 59.15625 218.261719 59.15625 217.875 59.15625 C 211.300781 58.769531 205.503906 63.792969 205.503906 70.75 C 205.117188 76.9375 210.527344 81.960938 216.714844 81.960938 Z M 215.167969 64.953125 L 217.875 64.953125 C 220.195312 65.726562 222.125 68.046875 222.125 70.367188 C 222.125 73.457031 219.421875 76.164062 216.328125 76.164062 C 213.234375 76.164062 210.527344 73.457031 210.527344 70.367188 C 210.914062 68.046875 212.847656 65.726562 215.167969 64.953125 Z M 215.167969 64.953125 " fill-opacity="1" fill-rule="nonzero"/><path fill="#686864" d="M 188.496094 81.960938 C 194.679688 81.960938 200.089844 76.9375 200.089844 70.367188 C 200.089844 64.953125 196.226562 59.929688 190.8125 59.15625 C 182.695312 57.222656 175.738281 64.566406 177.285156 72.683594 C 178.058594 78.097656 183.082031 81.960938 188.496094 81.960938 Z M 186.949219 64.953125 C 188.882812 64.953125 189.65625 64.566406 191.585938 65.726562 C 193.132812 66.886719 194.292969 68.433594 194.292969 70.75 C 194.292969 73.84375 191.585938 76.550781 188.496094 76.550781 C 185.402344 76.550781 182.695312 73.84375 182.695312 70.75 C 182.695312 68.046875 184.628906 65.726562 186.949219 64.953125 Z M 186.949219 64.953125 " fill-opacity="1" fill-rule="nonzero"/><path fill="#686864" d="M 103.449219 142.269531 C 117.75 142.269531 129.347656 130.671875 129.347656 116.367188 C 129.347656 102.0625 117.75 90.46875 103.449219 90.46875 C 89.144531 90.46875 77.546875 102.0625 77.546875 116.367188 C 77.546875 130.671875 89.144531 142.269531 103.449219 142.269531 Z M 103.449219 96.265625 C 114.660156 96.265625 123.550781 105.15625 123.550781 116.367188 C 123.550781 127.578125 114.660156 136.46875 103.449219 136.46875 C 92.238281 136.46875 83.347656 127.578125 83.347656 116.367188 C 83.347656 105.15625 92.625 96.265625 103.449219 96.265625 Z M 103.449219 96.265625 " fill-opacity="1" fill-rule="nonzero"/><g clip-path="url(#61a98398cb)"><path fill="#686864" d="M 274.3125 135.308594 C 267.742188 132.988281 262.714844 129.125 260.398438 123.710938 C 270.449219 115.59375 276.246094 104.382812 276.246094 92.398438 C 276.246094 71.910156 259.625 54.515625 236.042969 50.261719 C 226.765625 35.574219 208.597656 26.296875 188.496094 26.296875 C 164.140625 26.296875 143.265625 39.824219 136.308594 59.15625 L 47.78125 59.15625 C 38.117188 59.15625 30.386719 66.886719 30.386719 76.550781 C 30.386719 89.308594 30.386719 29.386719 30.386719 211.464844 C 30.386719 221.128906 38.117188 228.859375 47.78125 228.859375 L 110.792969 228.859375 L 103.835938 247.414062 L 99.582031 247.414062 C 89.917969 247.414062 81.800781 255.148438 81.800781 265.199219 L 81.800781 270.609375 C 81.800781 272.15625 82.960938 273.703125 84.894531 273.703125 L 201.636719 273.703125 C 203.183594 273.703125 204.730469 272.542969 204.730469 270.609375 L 204.730469 265.199219 C 204.730469 255.535156 197 247.414062 186.949219 247.414062 L 182.695312 247.414062 L 175.738281 228.859375 L 239.136719 228.859375 C 249.1875 228.859375 256.53125 220.742188 256.53125 211.464844 C 256.53125 119.847656 256.53125 147.292969 256.53125 141.882812 C 263.488281 142.652344 270.449219 141.882812 273.925781 140.335938 C 277.019531 139.949219 277.019531 136.082031 274.3125 135.308594 Z M 188.496094 32.09375 C 207.050781 32.09375 223.671875 40.597656 232.175781 54.515625 C 248.414062 81.1875 224.832031 113.273438 188.496094 113.273438 C 188.109375 113.273438 188.109375 113.273438 187.722656 113.273438 C 184.242188 113.273438 180.761719 112.886719 177.285156 112.113281 C 176.511719 112.113281 175.738281 112.113281 174.964844 112.5 C 164.140625 120.234375 153.316406 121.394531 145.972656 121.007812 C 152.542969 116.753906 155.636719 110.957031 157.570312 106.703125 C 157.957031 105.542969 157.570312 103.996094 156.410156 103.222656 C 145.585938 95.492188 139.398438 84.28125 139.398438 72.683594 C 139.398438 69.59375 139.785156 66.113281 140.945312 63.019531 C 146.359375 44.851562 166.074219 32.09375 188.496094 32.09375 Z M 47.78125 64.953125 L 134.761719 64.953125 C 133.988281 67.660156 133.988281 69.980469 133.988281 72.683594 C 133.988281 85.441406 140.171875 97.8125 151.382812 106.703125 C 148.675781 112.886719 143.265625 117.140625 135.921875 119.460938 C 133.214844 120.234375 133.214844 124.097656 135.921875 124.871094 C 146.359375 128.351562 163.367188 127.578125 177.285156 117.914062 C 180.375 118.300781 183.082031 118.6875 186.175781 118.6875 C 197.773438 131.445312 216.714844 137.242188 236.042969 134.148438 C 240.683594 137.242188 245.707031 139.5625 251.121094 140.722656 L 251.121094 201.800781 L 157.183594 201.800781 L 157.183594 184.015625 C 157.183594 161.984375 139.011719 143.8125 116.59375 143.8125 C 115.433594 143.8125 114.660156 144.585938 113.886719 145.359375 L 103.449219 165.847656 L 93.011719 145.359375 C 92.625 144.199219 91.464844 143.8125 90.304688 143.8125 C 68.269531 143.8125 50.101562 161.984375 50.101562 184.015625 L 50.101562 201.800781 L 36.183594 201.800781 L 36.183594 76.550781 C 36.183594 70.367188 41.210938 64.953125 47.78125 64.953125 Z M 36.183594 211.464844 L 36.183594 207.597656 C 77.546875 207.597656 200.863281 207.597656 251.507812 207.597656 L 251.507812 211.464844 C 251.507812 217.648438 246.480469 223.0625 239.910156 223.0625 C 154.089844 223.0625 135.148438 223.0625 48.167969 223.0625 C 41.210938 223.0625 36.183594 218.035156 36.183594 211.464844 Z M 151.382812 201.800781 L 139.398438 201.800781 L 137.082031 183.632812 C 136.695312 182.085938 135.535156 180.925781 133.988281 181.3125 C 132.441406 181.699219 131.28125 182.859375 131.667969 184.402344 L 133.988281 201.800781 L 73.683594 201.800781 L 76.003906 184.402344 C 76.390625 182.859375 75.230469 181.3125 73.683594 181.3125 C 72.136719 181.3125 70.589844 182.085938 70.589844 183.632812 L 68.269531 201.800781 L 55.898438 201.800781 L 55.898438 184.015625 C 55.898438 165.847656 70.589844 150.773438 88.757812 149.613281 L 101.128906 173.578125 C 102.289062 175.511719 105.382812 175.511719 106.15625 173.578125 L 118.523438 150 C 136.695312 150.773438 151.382812 165.847656 151.382812 184.402344 Z M 198.933594 265.199219 L 198.933594 267.902344 L 88.371094 267.902344 L 88.371094 265.199219 C 88.371094 258.625 93.785156 253.214844 100.355469 253.214844 C 135.535156 253.214844 152.542969 253.214844 187.722656 253.214844 C 193.519531 253.601562 198.933594 259.011719 198.933594 265.199219 Z M 176.898438 247.800781 L 110.40625 247.800781 L 117.367188 229.246094 L 170.324219 229.246094 Z M 238.363281 128.738281 C 237.976562 128.351562 237.203125 128.351562 236.816406 128.351562 C 236.816406 128.351562 236.429688 128.351562 236.429688 128.351562 C 220.582031 131.445312 205.503906 127.191406 194.679688 118.6875 C 229.859375 115.59375 252.277344 85.054688 240.296875 56.835938 C 258.464844 61.859375 270.835938 75.777344 270.835938 92.011719 C 270.835938 102.835938 265.035156 112.886719 255.371094 120.234375 C 254.210938 121.007812 253.824219 122.164062 254.210938 123.710938 C 255.757812 127.578125 258.464844 132.601562 264.261719 136.855469 C 255.757812 136.855469 246.480469 134.535156 238.363281 128.738281 Z M 238.363281 128.738281 " fill-opacity="1" fill-rule="nonzero"/></g><path fill="#686864" d="M 160.273438 81.960938 C 166.460938 81.960938 171.871094 76.9375 171.871094 70.367188 C 171.871094 64.953125 168.007812 60.3125 162.980469 59.15625 C 155.636719 57.609375 149.0625 63.40625 149.0625 70.367188 C 148.675781 76.9375 153.703125 81.960938 160.273438 81.960938 Z M 161.433594 64.953125 C 163.753906 65.339844 165.6875 67.660156 165.6875 70.367188 C 165.6875 73.457031 162.980469 76.164062 159.886719 76.164062 C 156.796875 76.164062 154.089844 73.457031 154.089844 70.367188 C 154.476562 63.792969 161.046875 65.339844 161.433594 64.953125 Z M 161.433594 64.953125 " fill-opacity="1" fill-rule="nonzero"/><path fill="#686864" d="M 139.398438 218.421875 L 147.90625 218.421875 C 149.449219 218.421875 150.996094 217.261719 150.996094 215.328125 C 150.996094 213.785156 149.835938 212.238281 147.90625 212.238281 L 139.398438 212.238281 C 137.855469 212.238281 136.308594 213.398438 136.308594 215.328125 C 136.308594 217.261719 137.46875 218.421875 139.398438 218.421875 Z M 139.398438 218.421875 " fill-opacity="1" fill-rule="nonzero"/></svg>