<svg xmlns="http://www.w3.org/2000/svg" xmlns:xlink="http://www.w3.org/1999/xlink" width="400" zoomAndPan="magnify" viewBox="0 0 300 299.999988" height="400" preserveAspectRatio="xMidYMid meet" version="1.0"><defs><clipPath id="562d14b9a3"><path d="M 101 190 L 212 190 L 212 267.84375 L 101 267.84375 Z M 101 190 " clip-rule="nonzero"/></clipPath></defs><path fill="#686864" d="M 131.144531 125.148438 L 131.144531 117.84375 C 131.78125 117.84375 132.398438 117.738281 133.003906 117.53125 C 133.605469 117.328125 134.15625 117.027344 134.65625 116.636719 C 135.160156 116.242188 135.582031 115.78125 135.929688 115.246094 C 136.277344 114.714844 136.527344 114.136719 136.679688 113.519531 L 137.605469 109.824219 C 136.875 109.589844 136.167969 109.296875 135.484375 108.945312 C 134.800781 108.597656 134.148438 108.199219 133.527344 107.75 C 132.90625 107.296875 132.324219 106.800781 131.78125 106.257812 C 131.238281 105.714844 130.742188 105.132812 130.289062 104.515625 C 129.839844 103.894531 129.4375 103.242188 129.089844 102.558594 C 128.742188 101.875 128.449219 101.167969 128.210938 100.4375 C 127.972656 99.707031 127.792969 98.964844 127.671875 98.207031 C 127.550781 97.449219 127.492188 96.6875 127.492188 95.917969 L 127.492188 92.265625 C 127.492188 91.546875 127.5625 90.832031 127.703125 90.128906 C 127.839844 89.421875 128.050781 88.734375 128.324219 88.070312 C 128.601562 87.40625 128.9375 86.773438 129.335938 86.175781 C 129.738281 85.578125 130.191406 85.023438 130.699219 84.515625 C 131.210938 84.007812 131.761719 83.550781 132.363281 83.152344 C 132.960938 82.753906 133.59375 82.414062 134.257812 82.140625 C 134.921875 81.863281 135.609375 81.65625 136.3125 81.515625 C 137.019531 81.375 137.730469 81.304688 138.453125 81.304688 L 139.847656 81.304688 L 140.285156 80.433594 C 141.320312 78.367188 142.527344 76.402344 143.902344 74.542969 C 145.277344 72.683594 146.800781 70.953125 148.472656 69.355469 C 150.144531 67.757812 151.941406 66.3125 153.859375 65.023438 C 155.78125 63.738281 157.796875 62.621094 159.910156 61.679688 L 180.8125 52.390625 L 183.78125 59.066406 L 162.878906 68.359375 C 159.394531 69.910156 156.273438 72.003906 153.519531 74.640625 C 150.761719 77.273438 148.53125 80.296875 146.824219 83.703125 L 145.359375 86.59375 C 145.050781 87.210938 144.605469 87.703125 144.019531 88.0625 C 143.433594 88.425781 142.796875 88.609375 142.105469 88.613281 L 138.453125 88.613281 C 137.96875 88.613281 137.5 88.703125 137.054688 88.890625 C 136.605469 89.074219 136.210938 89.339844 135.867188 89.683594 C 135.527344 90.023438 135.261719 90.417969 135.078125 90.867188 C 134.890625 91.316406 134.796875 91.78125 134.796875 92.265625 L 134.796875 95.917969 C 134.796875 96.398438 134.84375 96.875 134.9375 97.34375 C 135.03125 97.816406 135.171875 98.273438 135.355469 98.714844 C 135.539062 99.160156 135.761719 99.582031 136.03125 99.980469 C 136.296875 100.378906 136.597656 100.746094 136.9375 101.085938 C 137.277344 101.425781 137.648438 101.730469 138.046875 101.996094 C 138.445312 102.261719 138.867188 102.488281 139.308594 102.671875 C 139.753906 102.855469 140.210938 102.992188 140.679688 103.085938 C 141.152344 103.179688 141.625 103.226562 142.105469 103.226562 C 142.382812 103.226562 142.65625 103.257812 142.925781 103.320312 C 143.199219 103.382812 143.457031 103.476562 143.707031 103.597656 C 143.957031 103.71875 144.1875 103.867188 144.40625 104.042969 C 144.621094 104.214844 144.8125 104.414062 144.984375 104.632812 C 145.15625 104.851562 145.300781 105.085938 145.417969 105.335938 C 145.535156 105.589844 145.621094 105.851562 145.679688 106.121094 C 145.734375 106.394531 145.761719 106.667969 145.757812 106.945312 C 145.753906 107.222656 145.71875 107.496094 145.648438 107.765625 L 143.773438 115.292969 C 143.597656 115.992188 143.367188 116.671875 143.078125 117.332031 C 142.792969 117.992188 142.453125 118.625 142.058594 119.230469 C 141.667969 119.835938 141.226562 120.402344 140.742188 120.933594 C 140.253906 121.464844 139.726562 121.953125 139.15625 122.398438 C 138.589844 122.839844 137.988281 123.234375 137.355469 123.578125 C 136.722656 123.921875 136.0625 124.210938 135.382812 124.445312 C 134.699219 124.679688 134.003906 124.855469 133.292969 124.972656 C 132.582031 125.089844 131.863281 125.148438 131.144531 125.148438 Z M 131.144531 125.148438 " fill-opacity="1" fill-rule="nonzero"/><path fill="#686864" d="M 106.042969 80.695312 C 105.253906 80.171875 104.496094 79.609375 103.773438 79.003906 C 103.046875 78.398438 102.355469 77.753906 101.703125 77.074219 C 101.046875 76.390625 100.433594 75.675781 99.855469 74.925781 C 99.28125 74.175781 98.75 73.398438 98.261719 72.589844 C 97.773438 71.777344 97.328125 70.945312 96.933594 70.085938 C 96.535156 69.230469 96.1875 68.351562 95.890625 67.457031 C 95.589844 66.558594 95.34375 65.648438 95.144531 64.726562 C 94.945312 63.800781 94.800781 62.867188 94.703125 61.929688 C 94.609375 60.988281 94.566406 60.046875 94.578125 59.101562 C 94.585938 58.15625 94.648438 57.214844 94.761719 56.277344 C 94.875 55.335938 95.042969 54.410156 95.257812 53.488281 C 95.476562 52.570312 95.742188 51.664062 96.058594 50.773438 C 96.378906 49.882812 96.742188 49.011719 97.15625 48.164062 C 97.570312 47.3125 98.03125 46.488281 98.535156 45.691406 C 99.039062 44.890625 99.589844 44.125 100.179688 43.386719 C 100.769531 42.648438 101.398438 41.945312 102.066406 41.277344 C 102.734375 40.609375 103.4375 39.980469 104.175781 39.386719 C 104.914062 38.796875 105.683594 38.25 106.480469 37.746094 C 107.28125 37.238281 108.105469 36.78125 108.953125 36.367188 C 109.804688 35.953125 110.671875 35.585938 111.5625 35.269531 C 112.453125 34.953125 113.359375 34.683594 114.277344 34.46875 C 115.199219 34.25 116.128906 34.085938 117.066406 33.972656 C 118.003906 33.859375 118.945312 33.796875 119.890625 33.785156 C 120.835938 33.777344 121.777344 33.820312 122.71875 33.914062 C 123.660156 34.007812 124.589844 34.15625 125.515625 34.355469 C 126.4375 34.550781 127.351562 34.800781 128.246094 35.101562 C 129.144531 35.398438 130.019531 35.746094 130.878906 36.144531 C 131.734375 36.539062 132.570312 36.980469 133.378906 37.472656 C 134.1875 37.960938 134.964844 38.492188 135.714844 39.066406 C 136.464844 39.640625 137.183594 40.257812 137.863281 40.910156 C 138.546875 41.566406 139.1875 42.257812 139.792969 42.980469 C 140.398438 43.707031 140.964844 44.464844 141.484375 45.253906 L 135.410156 49.28125 C 135.035156 48.722656 134.632812 48.183594 134.199219 47.664062 C 133.765625 47.148438 133.308594 46.65625 132.820312 46.1875 C 132.332031 45.722656 131.820312 45.285156 131.285156 44.875 C 130.75 44.464844 130.191406 44.085938 129.617188 43.738281 C 129.039062 43.390625 128.441406 43.074219 127.828125 42.792969 C 127.21875 42.511719 126.589844 42.265625 125.949219 42.050781 C 125.3125 41.839844 124.660156 41.660156 124 41.519531 C 123.34375 41.378906 122.675781 41.277344 122.007812 41.207031 C 121.335938 41.140625 120.660156 41.113281 119.988281 41.121094 C 119.3125 41.125 118.640625 41.171875 117.972656 41.253906 C 117.300781 41.335938 116.640625 41.453125 115.984375 41.609375 C 115.328125 41.765625 114.679688 41.953125 114.046875 42.179688 C 113.410156 42.40625 112.789062 42.667969 112.183594 42.964844 C 111.578125 43.261719 110.988281 43.589844 110.417969 43.949219 C 109.851562 44.308594 109.300781 44.699219 108.773438 45.121094 C 108.25 45.542969 107.746094 45.992188 107.269531 46.46875 C 106.792969 46.945312 106.34375 47.449219 105.921875 47.972656 C 105.5 48.5 105.109375 49.050781 104.75 49.617188 C 104.390625 50.1875 104.0625 50.777344 103.765625 51.382812 C 103.46875 51.988281 103.210938 52.609375 102.980469 53.246094 C 102.753906 53.878906 102.566406 54.527344 102.410156 55.183594 C 102.253906 55.839844 102.136719 56.5 102.054688 57.171875 C 101.972656 57.839844 101.925781 58.511719 101.921875 59.1875 C 101.914062 59.859375 101.941406 60.535156 102.011719 61.203125 C 102.078125 61.875 102.179688 62.542969 102.320312 63.199219 C 102.460938 63.859375 102.640625 64.511719 102.851562 65.148438 C 103.066406 65.789062 103.3125 66.417969 103.59375 67.027344 C 103.875 67.640625 104.191406 68.238281 104.539062 68.8125 C 104.886719 69.390625 105.265625 69.949219 105.675781 70.484375 C 106.085938 71.019531 106.523438 71.53125 106.988281 72.019531 C 107.457031 72.507812 107.949219 72.964844 108.464844 73.398438 C 108.984375 73.832031 109.523438 74.234375 110.085938 74.605469 Z M 106.042969 80.695312 " fill-opacity="1" fill-rule="nonzero"/><path fill="#686864" d="M 138.453125 84.957031 L 145.757812 84.957031 L 145.757812 95.917969 L 138.453125 95.917969 Z M 138.453125 84.957031 " fill-opacity="1" fill-rule="nonzero"/><path fill="#686864" d="M 169.703125 135.746094 L 147.78125 124.785156 C 147.050781 124.421875 146.507812 123.875 146.144531 123.148438 L 138.835938 108.53125 L 145.375 105.265625 L 152.136719 118.785156 L 172.960938 129.199219 Z M 169.703125 135.746094 " fill-opacity="1" fill-rule="nonzero"/><path fill="#686864" d="M 179.714844 148.140625 L 223.558594 104.296875 L 228.726562 109.460938 L 184.882812 153.308594 Z M 179.714844 148.140625 " fill-opacity="1" fill-rule="nonzero"/><path fill="#686864" d="M 206.035156 98.773438 L 209.71875 92.460938 L 235.289062 107.375 L 231.605469 113.691406 Z M 206.035156 98.773438 " fill-opacity="1" fill-rule="nonzero"/><path fill="#686864" d="M 196.117188 157.949219 L 166.097656 151.273438 C 165.28125 151.097656 164.523438 150.789062 163.816406 150.351562 C 163.109375 149.914062 162.496094 149.371094 161.972656 148.722656 C 161.453125 148.074219 161.054688 147.359375 160.78125 146.574219 C 160.507812 145.789062 160.371094 144.980469 160.375 144.148438 L 160.375 139.765625 C 160.375 139.042969 160.445312 138.332031 160.585938 137.625 C 160.726562 136.921875 160.933594 136.234375 161.207031 135.570312 C 161.484375 134.90625 161.820312 134.273438 162.222656 133.675781 C 162.621094 133.078125 163.074219 132.523438 163.585938 132.011719 C 164.09375 131.503906 164.648438 131.050781 165.246094 130.652344 C 165.84375 130.25 166.476562 129.914062 167.140625 129.636719 C 167.804688 129.363281 168.492188 129.152344 169.195312 129.015625 C 169.902344 128.875 170.617188 128.804688 171.335938 128.804688 L 174.988281 128.804688 C 175.707031 128.804688 176.421875 128.734375 177.128906 128.59375 C 177.832031 128.453125 178.519531 128.246094 179.183594 127.96875 C 179.847656 127.691406 180.480469 127.355469 181.078125 126.957031 C 181.675781 126.554688 182.230469 126.101562 182.738281 125.59375 C 183.25 125.082031 183.703125 124.53125 184.101562 123.933594 C 184.503906 123.332031 184.839844 122.703125 185.117188 122.035156 C 185.390625 121.371094 185.597656 120.6875 185.738281 119.980469 C 185.878906 119.273438 185.949219 118.5625 185.949219 117.84375 L 185.949219 110.535156 C 185.949219 110.152344 186.011719 109.777344 186.128906 109.414062 C 186.246094 109.046875 186.417969 108.710938 186.640625 108.398438 C 186.867188 108.089844 187.132812 107.820312 187.441406 107.59375 C 187.75 107.367188 188.085938 107.191406 188.449219 107.070312 L 194.660156 104.996094 C 194.90625 104.914062 195.140625 104.800781 195.359375 104.664062 C 195.578125 104.527344 195.777344 104.363281 195.957031 104.179688 C 196.140625 103.992188 196.296875 103.789062 196.429688 103.566406 C 196.5625 103.34375 196.667969 103.109375 196.746094 102.863281 C 196.824219 102.613281 196.871094 102.359375 196.886719 102.101562 C 196.90625 101.84375 196.890625 101.585938 196.847656 101.332031 C 196.804688 101.074219 196.734375 100.828125 196.632812 100.589844 C 196.527344 100.351562 196.402344 100.128906 196.246094 99.921875 L 186.679688 87.152344 C 186.195312 86.5 185.949219 85.769531 185.949219 84.957031 L 185.949219 77.652344 C 185.949219 76.695312 185.902344 75.738281 185.808594 74.785156 C 185.710938 73.835938 185.570312 72.890625 185.382812 71.949219 C 185.195312 71.011719 184.960938 70.085938 184.683594 69.167969 C 184.40625 68.253906 184.082031 67.355469 183.714844 66.46875 C 183.351562 65.585938 182.941406 64.722656 182.488281 63.878906 C 182.039062 63.035156 181.546875 62.214844 181.015625 61.417969 C 180.480469 60.625 179.914062 59.855469 179.304688 59.117188 C 178.699219 58.375 178.054688 57.667969 177.378906 56.992188 C 176.703125 56.316406 175.996094 55.671875 175.253906 55.066406 C 174.515625 54.457031 173.746094 53.890625 172.953125 53.355469 C 172.15625 52.824219 171.335938 52.332031 170.492188 51.882812 C 169.648438 51.429688 168.785156 51.019531 167.902344 50.65625 C 167.015625 50.289062 166.117188 49.964844 165.203125 49.6875 C 164.285156 49.410156 163.359375 49.175781 162.421875 48.988281 C 161.480469 48.800781 160.535156 48.660156 159.585938 48.566406 C 158.632812 48.46875 157.675781 48.421875 156.71875 48.421875 L 145.757812 48.421875 C 124.265625 48.5625 109.570312 64.738281 109.222656 88.667969 C 109.03125 102.042969 119.007812 109.523438 130.140625 116.621094 C 130.855469 117.078125 131.503906 117.617188 132.085938 118.234375 C 132.667969 118.855469 133.160156 119.539062 133.566406 120.285156 C 133.976562 121.03125 134.28125 121.816406 134.492188 122.640625 C 134.699219 123.464844 134.800781 124.300781 134.796875 125.148438 L 134.796875 135.65625 C 134.800781 136.667969 134.71875 137.675781 134.550781 138.671875 C 134.386719 139.671875 134.136719 140.648438 133.808594 141.605469 C 133.480469 142.5625 133.074219 143.484375 132.59375 144.375 C 132.109375 145.265625 131.558594 146.109375 130.933594 146.90625 C 130.3125 147.703125 129.628906 148.445312 128.882812 149.128906 C 128.136719 149.8125 127.339844 150.429688 126.492188 150.980469 C 125.640625 151.53125 124.753906 152.011719 123.828125 152.414062 C 122.898438 152.816406 121.941406 153.140625 120.960938 153.386719 L 102.800781 157.921875 L 101.027344 150.835938 L 119.1875 146.296875 C 119.777344 146.148438 120.351562 145.953125 120.90625 145.710938 C 121.464844 145.46875 121.996094 145.183594 122.503906 144.851562 C 123.015625 144.519531 123.492188 144.152344 123.941406 143.738281 C 124.386719 143.328125 124.796875 142.886719 125.171875 142.40625 C 125.542969 141.925781 125.875 141.421875 126.164062 140.886719 C 126.453125 140.355469 126.699219 139.800781 126.894531 139.226562 C 127.09375 138.652344 127.242188 138.066406 127.339844 137.464844 C 127.441406 136.867188 127.492188 136.265625 127.492188 135.65625 L 127.492188 125.148438 C 127.496094 124.671875 127.382812 124.222656 127.15625 123.800781 C 126.929688 123.378906 126.613281 123.039062 126.210938 122.78125 C 113.789062 114.855469 101.667969 105.6875 101.914062 88.558594 C 102.320312 60.792969 120.335938 41.28125 145.738281 41.113281 L 156.71875 41.113281 C 157.917969 41.113281 159.109375 41.175781 160.300781 41.292969 C 161.492188 41.410156 162.671875 41.585938 163.847656 41.820312 C 165.019531 42.054688 166.175781 42.347656 167.320312 42.695312 C 168.464844 43.042969 169.589844 43.445312 170.695312 43.90625 C 171.800781 44.363281 172.882812 44.875 173.9375 45.441406 C 174.992188 46.003906 176.015625 46.617188 177.011719 47.285156 C 178.003906 47.949219 178.964844 48.660156 179.890625 49.417969 C 180.8125 50.179688 181.699219 50.980469 182.542969 51.828125 C 183.390625 52.671875 184.191406 53.558594 184.953125 54.484375 C 185.710938 55.40625 186.421875 56.367188 187.085938 57.359375 C 187.753906 58.355469 188.367188 59.378906 188.933594 60.433594 C 189.496094 61.488281 190.007812 62.570312 190.464844 63.675781 C 190.925781 64.78125 191.328125 65.90625 191.675781 67.050781 C 192.023438 68.195312 192.316406 69.351562 192.550781 70.527344 C 192.785156 71.699219 192.960938 72.878906 193.078125 74.070312 C 193.195312 75.261719 193.257812 76.453125 193.257812 77.652344 L 193.257812 83.742188 L 202.101562 95.554688 C 202.351562 95.886719 202.578125 96.238281 202.789062 96.597656 C 202.996094 96.960938 203.183594 97.332031 203.347656 97.714844 C 203.515625 98.097656 203.65625 98.492188 203.773438 98.890625 C 203.890625 99.292969 203.988281 99.699219 204.058594 100.109375 C 204.128906 100.519531 204.175781 100.933594 204.195312 101.351562 C 204.21875 101.769531 204.214844 102.183594 204.1875 102.601562 C 204.160156 103.019531 204.105469 103.433594 204.03125 103.84375 C 203.953125 104.253906 203.851562 104.65625 203.730469 105.054688 C 203.605469 105.453125 203.457031 105.84375 203.285156 106.226562 C 203.117188 106.605469 202.921875 106.976562 202.710938 107.335938 C 202.496094 107.691406 202.261719 108.039062 202.007812 108.367188 C 201.75 108.699219 201.476562 109.011719 201.1875 109.3125 C 200.894531 109.609375 200.585938 109.890625 200.257812 110.152344 C 199.933594 110.414062 199.59375 110.65625 199.242188 110.878906 C 198.886719 111.097656 198.523438 111.300781 198.144531 111.476562 C 197.765625 111.65625 197.378906 111.8125 196.984375 111.945312 L 193.257812 113.1875 L 193.257812 117.84375 C 193.257812 118.441406 193.226562 119.035156 193.167969 119.632812 C 193.109375 120.226562 193.019531 120.816406 192.902344 121.40625 C 192.785156 121.992188 192.640625 122.570312 192.464844 123.144531 C 192.292969 123.714844 192.089844 124.277344 191.863281 124.828125 C 191.632812 125.382812 191.375 125.921875 191.09375 126.449219 C 190.8125 126.976562 190.503906 127.488281 190.171875 127.984375 C 189.839844 128.484375 189.484375 128.964844 189.105469 129.425781 C 188.726562 129.886719 188.324219 130.332031 187.902344 130.753906 C 187.476562 131.175781 187.035156 131.578125 186.574219 131.957031 C 186.109375 132.335938 185.628906 132.691406 185.132812 133.023438 C 184.636719 133.359375 184.125 133.664062 183.597656 133.945312 C 183.070312 134.230469 182.53125 134.484375 181.976562 134.714844 C 181.425781 134.945312 180.863281 135.144531 180.289062 135.320312 C 179.71875 135.492188 179.136719 135.640625 178.550781 135.757812 C 177.964844 135.875 177.375 135.960938 176.777344 136.019531 C 176.183594 136.078125 175.585938 136.109375 174.988281 136.109375 L 171.335938 136.109375 C 170.851562 136.109375 170.386719 136.203125 169.9375 136.390625 C 169.488281 136.574219 169.09375 136.839844 168.75 137.179688 C 168.410156 137.523438 168.144531 137.917969 167.960938 138.367188 C 167.773438 138.8125 167.683594 139.28125 167.683594 139.765625 L 167.683594 144.148438 L 197.703125 150.816406 Z M 196.117188 157.949219 " fill-opacity="1" fill-rule="nonzero"/><path fill="#686864" d="M 70.101562 109.460938 L 75.269531 104.296875 L 86.234375 115.261719 L 81.066406 120.425781 Z M 70.101562 109.460938 " fill-opacity="1" fill-rule="nonzero"/><path fill="#686864" d="M 88.359375 127.726562 L 93.527344 122.558594 L 119.109375 148.144531 L 113.941406 153.308594 Z M 88.359375 127.726562 " fill-opacity="1" fill-rule="nonzero"/><path fill="#686864" d="M 63.417969 107.453125 L 103.601562 81.875 L 107.527344 88.039062 L 67.339844 113.621094 Z M 63.417969 107.453125 " fill-opacity="1" fill-rule="nonzero"/><path fill="#686864" d="M 212.785156 184.1875 L 205.574219 183.03125 L 207.585938 170.503906 C 207.917969 168.414062 208.785156 166.574219 210.1875 164.988281 L 255.167969 113.914062 C 255.597656 113.386719 255.992188 112.835938 256.355469 112.257812 C 256.722656 111.683594 257.050781 111.089844 257.34375 110.476562 C 257.636719 109.859375 257.894531 109.230469 258.113281 108.585938 C 258.335938 107.941406 258.515625 107.289062 258.65625 106.621094 C 258.800781 105.957031 258.902344 105.285156 258.964844 104.605469 C 259.027344 103.929688 259.046875 103.25 259.03125 102.570312 C 259.011719 101.886719 258.957031 101.210938 258.859375 100.535156 C 258.757812 99.863281 258.621094 99.199219 258.445312 98.539062 C 258.269531 97.882812 258.054688 97.238281 257.800781 96.605469 C 257.550781 95.972656 257.261719 95.359375 256.933594 94.761719 C 256.609375 94.164062 256.25 93.585938 255.855469 93.03125 C 255.460938 92.476562 255.035156 91.945312 254.582031 91.441406 C 254.125 90.933594 253.640625 90.457031 253.125 90.011719 C 252.613281 89.5625 252.078125 89.144531 251.515625 88.761719 C 250.953125 88.378906 250.371094 88.027344 249.765625 87.710938 C 249.164062 87.398438 248.542969 87.117188 247.90625 86.875 L 185.277344 63.035156 L 182.296875 63.035156 L 182.296875 55.726562 L 185.949219 55.726562 C 186.398438 55.726562 186.832031 55.808594 187.25 55.964844 L 250.503906 80.082031 C 251.414062 80.425781 252.296875 80.824219 253.160156 81.273438 C 254.019531 81.726562 254.851562 82.226562 255.652344 82.773438 C 256.453125 83.324219 257.21875 83.917969 257.953125 84.558594 C 258.683594 85.199219 259.375 85.878906 260.023438 86.601562 C 260.675781 87.324219 261.28125 88.082031 261.839844 88.875 C 262.398438 89.671875 262.910156 90.496094 263.375 91.347656 C 263.835938 92.203125 264.246094 93.082031 264.605469 93.984375 C 264.964844 94.890625 265.269531 95.8125 265.515625 96.75 C 265.765625 97.691406 265.957031 98.640625 266.09375 99.601562 C 266.230469 100.566406 266.308594 101.53125 266.332031 102.503906 C 266.351562 103.472656 266.316406 104.445312 266.222656 105.410156 C 266.128906 106.378906 265.980469 107.335938 265.773438 108.285156 C 265.566406 109.234375 265.304688 110.167969 264.984375 111.089844 C 264.667969 112.007812 264.296875 112.902344 263.871094 113.777344 C 263.449219 114.652344 262.972656 115.496094 262.449219 116.316406 C 261.925781 117.132812 261.351562 117.917969 260.734375 118.667969 L 215.667969 169.828125 C 215.199219 170.351562 214.910156 170.960938 214.800781 171.652344 Z M 212.785156 184.1875 " fill-opacity="1" fill-rule="nonzero"/><g clip-path="url(#562d14b9a3)"><path fill="#686864" d="M 193.257812 267.644531 L 105.566406 267.644531 C 105.082031 267.644531 104.617188 267.550781 104.167969 267.367188 C 103.722656 267.179688 103.328125 266.917969 102.984375 266.574219 C 102.640625 266.234375 102.378906 265.835938 102.191406 265.390625 C 102.007812 264.941406 101.914062 264.476562 101.914062 263.992188 L 101.914062 256.683594 C 101.914062 256.34375 101.960938 256.007812 102.058594 255.683594 L 104.144531 248.375 L 111.167969 250.378906 L 109.222656 257.195312 L 109.222656 260.335938 L 189.605469 260.335938 L 189.605469 257.195312 L 186.027344 244.679688 C 185.714844 243.597656 185.484375 242.5 185.335938 241.386719 C 185.183594 240.273438 185.113281 239.152344 185.125 238.027344 C 185.132812 236.902344 185.226562 235.785156 185.398438 234.675781 C 185.570312 233.566406 185.824219 232.472656 186.15625 231.398438 C 186.484375 230.324219 186.894531 229.277344 187.375 228.261719 C 187.859375 227.246094 188.414062 226.273438 189.035156 225.335938 C 189.660156 224.402344 190.347656 223.515625 191.101562 222.679688 C 191.855469 221.847656 192.664062 221.070312 193.527344 220.351562 C 195.921875 217.304688 197.914062 214.019531 199.507812 210.488281 C 201.097656 206.953125 202.242188 203.285156 202.9375 199.472656 L 204.398438 190.339844 L 211.609375 191.492188 L 210.148438 200.703125 C 209.335938 205.1875 207.984375 209.503906 206.101562 213.652344 C 204.214844 217.800781 201.851562 221.652344 199.007812 225.214844 C 198.839844 225.421875 198.652344 225.609375 198.445312 225.78125 C 197.832031 226.269531 197.261719 226.800781 196.726562 227.375 C 196.191406 227.949219 195.703125 228.5625 195.257812 229.207031 C 194.8125 229.855469 194.417969 230.527344 194.074219 231.234375 C 193.726562 231.9375 193.4375 232.664062 193.199219 233.410156 C 192.960938 234.160156 192.777344 234.917969 192.652344 235.695312 C 192.523438 236.46875 192.457031 237.246094 192.445312 238.03125 C 192.433594 238.816406 192.480469 239.597656 192.582031 240.375 C 192.6875 241.152344 192.847656 241.917969 193.0625 242.671875 L 196.78125 255.683594 C 196.871094 256.011719 196.914062 256.34375 196.910156 256.683594 L 196.910156 263.992188 C 196.910156 264.476562 196.820312 264.941406 196.632812 265.390625 C 196.449219 265.835938 196.183594 266.234375 195.839844 266.574219 C 195.5 266.917969 195.105469 267.179688 194.65625 267.367188 C 194.207031 267.550781 193.742188 267.644531 193.257812 267.644531 Z M 193.257812 267.644531 " fill-opacity="1" fill-rule="nonzero"/></g><path fill="#686864" d="M 113.242188 242.773438 L 106.074219 241.363281 C 106.359375 239.929688 106.445312 238.480469 106.332031 237.023438 C 106.21875 235.566406 105.914062 234.148438 105.410156 232.773438 C 104.910156 231.398438 104.230469 230.117188 103.375 228.929688 C 102.523438 227.742188 101.523438 226.695312 100.378906 225.78125 C 100.171875 225.613281 99.980469 225.421875 99.8125 225.214844 C 96.980469 221.664062 94.625 217.820312 92.742188 213.6875 C 90.863281 209.550781 89.515625 205.25 88.699219 200.78125 L 84.375 173.742188 C 84.042969 171.65625 83.175781 169.820312 81.777344 168.234375 L 38.175781 118.746094 C 37.550781 117.996094 36.976562 117.210938 36.445312 116.394531 C 35.914062 115.578125 35.4375 114.730469 35.007812 113.855469 C 34.578125 112.980469 34.203125 112.085938 33.878906 111.164062 C 33.554688 110.246094 33.289062 109.3125 33.078125 108.359375 C 32.867188 107.410156 32.710938 106.449219 32.613281 105.480469 C 32.519531 104.511719 32.476562 103.539062 32.496094 102.5625 C 32.515625 101.589844 32.589844 100.621094 32.726562 99.65625 C 32.859375 98.691406 33.050781 97.738281 33.296875 96.792969 C 33.542969 95.851562 33.847656 94.929688 34.203125 94.019531 C 34.558594 93.113281 34.96875 92.234375 35.433594 91.375 C 35.894531 90.515625 36.40625 89.691406 36.964844 88.894531 C 37.527344 88.097656 38.132812 87.335938 38.785156 86.609375 C 39.433594 85.886719 40.125 85.203125 40.859375 84.558594 C 41.589844 83.917969 42.359375 83.320312 43.160156 82.769531 C 43.964844 82.21875 44.796875 81.714844 45.660156 81.265625 C 46.523438 80.8125 47.410156 80.414062 48.320312 80.066406 L 96.84375 59.667969 L 99.679688 66.40625 L 51.035156 86.867188 C 50.394531 87.105469 49.769531 87.378906 49.160156 87.695312 C 48.546875 88.007812 47.960938 88.355469 47.390625 88.738281 C 46.824219 89.125 46.28125 89.539062 45.761719 89.988281 C 45.242188 90.4375 44.753906 90.914062 44.292969 91.421875 C 43.832031 91.929688 43.402344 92.460938 43.003906 93.019531 C 42.605469 93.574219 42.242188 94.15625 41.910156 94.757812 C 41.582031 95.359375 41.289062 95.976562 41.035156 96.613281 C 40.78125 97.25 40.5625 97.898438 40.386719 98.558594 C 40.207031 99.222656 40.070312 99.890625 39.96875 100.570312 C 39.871094 101.25 39.8125 101.929688 39.796875 102.617188 C 39.78125 103.300781 39.804688 103.984375 39.867188 104.667969 C 39.933594 105.347656 40.035156 106.027344 40.183594 106.695312 C 40.328125 107.367188 40.511719 108.023438 40.734375 108.671875 C 40.957031 109.320312 41.21875 109.953125 41.515625 110.570312 C 41.816406 111.1875 42.152344 111.785156 42.519531 112.359375 C 42.890625 112.9375 43.292969 113.492188 43.730469 114.019531 L 87.25 163.40625 C 89.578125 166.050781 91.019531 169.109375 91.574219 172.585938 L 95.898438 199.546875 C 96.597656 203.34375 97.742188 207.003906 99.332031 210.519531 C 100.921875 214.039062 102.910156 217.316406 105.296875 220.351562 C 106.097656 221.015625 106.851562 221.734375 107.558594 222.5 C 108.261719 223.269531 108.914062 224.078125 109.511719 224.933594 C 110.105469 225.789062 110.644531 226.679688 111.121094 227.605469 C 111.597656 228.53125 112.007812 229.488281 112.355469 230.46875 C 112.703125 231.453125 112.984375 232.453125 113.199219 233.472656 C 113.410156 234.492188 113.554688 235.523438 113.628906 236.5625 C 113.703125 237.601562 113.710938 238.640625 113.644531 239.679688 C 113.578125 240.722656 113.445312 241.753906 113.242188 242.773438 Z M 113.242188 242.773438 " fill-opacity="1" fill-rule="nonzero"/><path fill="#686864" d="M 149.414062 183.609375 C 134.832031 183.609375 123.835938 177.324219 123.835938 168.996094 C 123.835938 160.664062 134.832031 154.378906 149.414062 154.378906 C 163.996094 154.378906 174.988281 160.664062 174.988281 168.996094 C 174.988281 177.324219 163.996094 183.609375 149.414062 183.609375 Z M 149.414062 161.6875 C 138.261719 161.6875 131.144531 166.015625 131.144531 168.996094 C 131.144531 171.972656 138.261719 176.300781 149.414062 176.300781 C 160.5625 176.300781 167.683594 171.972656 167.683594 168.996094 C 167.683594 166.015625 160.5625 161.6875 149.414062 161.6875 Z M 149.414062 161.6875 " fill-opacity="1" fill-rule="nonzero"/><path fill="#686864" d="M 149.414062 256.683594 C 134.832031 256.683594 123.835938 250.398438 123.835938 242.070312 C 123.835938 233.738281 134.832031 227.453125 149.414062 227.453125 C 163.996094 227.453125 174.988281 233.738281 174.988281 242.070312 C 174.988281 250.398438 163.996094 256.683594 149.414062 256.683594 Z M 149.414062 234.761719 C 138.261719 234.761719 131.144531 239.089844 131.144531 242.070312 C 131.144531 245.046875 138.261719 249.375 149.414062 249.375 C 160.5625 249.375 167.683594 245.046875 167.683594 242.070312 C 167.683594 239.089844 160.5625 234.761719 149.414062 234.761719 Z M 149.414062 234.761719 " fill-opacity="1" fill-rule="nonzero"/><path fill="#686864" d="M 149.414062 223.800781 C 133.023438 223.800781 120.183594 215.761719 120.183594 205.53125 C 120.183594 195.300781 133.023438 187.261719 149.414062 187.261719 C 165.804688 187.261719 178.644531 195.300781 178.644531 205.53125 C 178.644531 215.761719 165.804688 223.800781 149.414062 223.800781 Z M 149.414062 194.570312 C 136.492188 194.570312 127.492188 200.347656 127.492188 205.53125 C 127.492188 210.714844 136.492188 216.492188 149.414062 216.492188 C 162.332031 216.492188 171.335938 210.714844 171.335938 205.53125 C 171.335938 200.347656 162.332031 194.570312 149.414062 194.570312 Z M 149.414062 194.570312 " fill-opacity="1" fill-rule="nonzero"/></svg>