<svg xmlns="http://www.w3.org/2000/svg" xmlns:xlink="http://www.w3.org/1999/xlink" width="400" zoomAndPan="magnify" viewBox="0 0 300 299.999988" height="400" preserveAspectRatio="xMidYMid meet" version="1.0"><defs><clipPath id="d7ff11065f"><path d="M 0 53 L 299 53 L 299 270 L 0 270 Z M 0 53 " clip-rule="nonzero"/></clipPath></defs><g clip-path="url(#d7ff11065f)"><path fill="#686864" d="M 98.332031 125.527344 C 97.488281 122.535156 96.582031 119.582031 95.660156 116.65625 C 94.269531 116.851562 93.066406 116.78125 91.917969 116.761719 C 91.367188 116.742188 90.761719 116.742188 90.304688 116.761719 C 90.082031 116.761719 89.761719 116.800781 89.488281 116.820312 L 88.742188 116.957031 C 87.683594 117.179688 86.632812 117.308594 85.652344 117.597656 C 81.621094 118.628906 78.121094 120.066406 75.214844 121.339844 C 69.425781 123.90625 65.808594 125.382812 65.652344 125.042969 C 65.519531 124.722656 68.761719 122.671875 74.398438 119.621094 C 77.21875 118.105469 80.726562 116.402344 84.972656 115.132812 C 86.011719 114.761719 87.136719 114.597656 88.277344 114.335938 L 89.199219 114.140625 C 89.488281 114.101562 89.734375 114.050781 90.09375 114.03125 C 90.792969 114.003906 91.347656 114.003906 91.957031 114.003906 C 92.929688 113.984375 93.890625 113.984375 94.757812 113.878906 C 93.8125 111.078125 92.863281 108.28125 91.832031 105.480469 C 91.074219 105.308594 89.695312 105.414062 88.519531 105.394531 C 85.769531 105.453125 83.125 105.480469 80.609375 105.519531 C 75.671875 105.851562 71.230469 106.164062 67.53125 106.910156 C 63.777344 107.394531 60.855469 108.320312 58.773438 108.738281 C 56.703125 109.203125 55.507812 109.359375 55.433594 109.164062 C 55.382812 108.980469 56.441406 108.417969 58.425781 107.640625 C 60.445312 106.871094 63.3125 105.589844 67.121094 104.820312 C 70.832031 103.800781 75.4375 103.167969 80.539062 102.703125 C 83.039062 102.617188 85.679688 102.390625 88.429688 102.285156 C 89.121094 102.265625 89.820312 102.003906 90.511719 102.003906 C 90.589844 102.003906 90.65625 102.003906 90.703125 102.003906 C 90.082031 100.265625 89.421875 98.875 88.742188 97.195312 C 76.972656 96.824219 65.671875 97.785156 54.410156 101.554688 C 45.578125 104.53125 35.375 107.308594 27.574219 112.507812 C 16.738281 119.71875 15.5625 131.855469 12.355469 143.464844 C 12.308594 143.601562 12.269531 143.746094 12.238281 143.902344 C 12.785156 142.980469 13.335938 142.058594 13.910156 141.105469 C 18.796875 133.699219 24.289062 127.976562 28.078125 123.769531 C 31.886719 119.621094 34.25 116.9375 34.578125 117.21875 C 34.871094 117.464844 33.152344 120.523438 29.671875 125.109375 C 26.25 129.675781 21.074219 135.59375 16.378906 142.699219 C 14.183594 146.285156 12.046875 149.945312 10.015625 153.09375 C 9.820312 153.386719 9.65625 153.6875 9.460938 153.980469 C 7.816406 160.128906 6.417969 166.339844 5.699219 172.703125 C 5.699219 172.722656 5.71875 172.722656 5.71875 172.722656 C 10.414062 174.628906 15.59375 177.554688 20.480469 175.503906 C 19.605469 172.839844 19.3125 169.847656 19.625 166.933594 C 19.75 165 20.148438 162.988281 20.363281 161.210938 C 20.527344 159.3125 20.585938 157.324219 20.847656 155.214844 C 20.9375 154.398438 21.074219 153.5625 21.265625 152.726562 C 21.433594 151.929688 21.695312 150.957031 21.976562 150.277344 L 22.179688 149.742188 L 22.285156 149.460938 L 22.335938 149.324219 L 22.421875 149.152344 L 22.460938 149.09375 L 23.035156 148.050781 C 23.433594 147.363281 23.8125 146.683594 24.203125 146.003906 C 24.910156 144.613281 25.882812 143.445312 26.71875 142.230469 C 27.554688 140.996094 28.476562 139.878906 29.398438 138.820312 C 32.976562 134.476562 36.648438 131.039062 39.71875 128.199219 C 45.96875 122.601562 49.960938 119.339844 50.222656 119.601562 C 50.535156 119.910156 47.007812 123.730469 41.1875 129.695312 C 38.289062 132.710938 34.839844 136.246094 31.480469 140.53125 C 30.632812 141.570312 29.757812 142.667969 28.992188 143.84375 C 28.234375 145.03125 27.3125 146.15625 26.667969 147.460938 C 26.320312 148.109375 25.96875 148.734375 25.628906 149.394531 L 25.085938 150.363281 L 25.046875 150.402344 L 25.015625 150.5 L 24.910156 150.78125 L 24.707031 151.316406 C 24.40625 152.085938 24.296875 152.640625 24.113281 153.378906 C 23.957031 154.066406 23.832031 154.816406 23.746094 155.5625 C 23.519531 157.496094 23.453125 159.488281 23.238281 161.492188 C 22.988281 163.609375 22.597656 165.367188 22.441406 167.175781 C 22.152344 169.75 22.316406 172.152344 22.910156 174.335938 C 23.257812 174.269531 23.589844 174.289062 23.898438 174.375 C 25.453125 172.722656 26.765625 170.984375 27.972656 169.363281 C 29.644531 167 31.082031 164.929688 32.296875 163.230469 C 34.78125 159.800781 36.570312 158.121094 36.765625 158.292969 C 36.988281 158.488281 35.636719 160.453125 33.550781 164.046875 C 32.507812 165.855469 31.285156 168.058594 29.710938 170.546875 C 28.59375 172.265625 27.3125 174.160156 25.707031 176.027344 C 25.726562 176.039062 25.746094 176.058594 25.765625 176.097656 C 27.347656 179.691406 33.277344 180.285156 37.113281 178.769531 C 38.621094 167.089844 51.28125 156.46875 59.570312 149.238281 C 70.105469 140.054688 84.261719 128.792969 98.332031 125.527344 Z M 100.839844 135.382812 C 100.945312 135.34375 101.035156 135.332031 101.132812 135.292969 C 100.703125 133.921875 100.285156 132.542969 99.898438 131.144531 C 99.847656 130.949219 99.800781 130.757812 99.742188 130.570312 C 87.003906 133.59375 72.378906 144.332031 63.265625 152.921875 C 56.8125 159.003906 45.121094 167.941406 42.644531 177.261719 C 42.972656 177.398438 43.304688 177.601562 43.597656 177.953125 C 45.355469 179.953125 46.65625 182.695312 49.019531 184.074219 C 56.929688 175.28125 65.632812 167.3125 73.84375 158.808594 C 82.289062 150.074219 89.488281 140.492188 100.839844 135.382812 Z M 143.828125 126.34375 C 146.246094 126.363281 148.675781 126.324219 151.097656 126.238281 C 147.996094 117.394531 140.785156 110.019531 132.566406 105.347656 C 136.230469 111.867188 139.921875 118.414062 143.253906 125.199219 C 143.449219 125.578125 143.632812 125.957031 143.828125 126.34375 Z M 192.917969 143.816406 C 192.5 143.136719 192.082031 142.476562 191.683594 141.773438 C 187.757812 147.207031 179.769531 150.082031 174 146.800781 C 173.308594 146.664062 172.589844 146.527344 171.863281 146.3125 C 168.734375 145.429688 166.167969 143.660156 164.796875 142.007812 C 163.328125 140.289062 163.058594 139.082031 163.328125 138.839844 C 163.640625 138.550781 164.691406 139.460938 166.1875 140.472656 C 167.3125 141.242188 168.808594 142.078125 170.597656 142.785156 C 170.597656 142.667969 170.597656 142.542969 170.617188 142.425781 C 170.929688 139.8125 171.550781 138.316406 173.378906 136.371094 C 175.601562 134.011719 177.449219 132.425781 178.613281 130.398438 C 167.867188 130.164062 157.179688 131.457031 146.433594 131.554688 C 149.144531 136.925781 151.875 142.347656 154.359375 147.847656 C 154.933594 148.488281 155.546875 149.152344 156.238281 149.8125 C 158.171875 151.597656 160.066406 153.210938 161.347656 154.554688 C 162.601562 155.894531 163.242188 156.886719 163 157.195312 C 162.738281 157.507812 161.648438 157.089844 160.046875 156.1875 C 159.210938 155.699219 158.199219 155.078125 157.140625 154.308594 C 157.226562 154.523438 157.316406 154.746094 157.421875 154.972656 C 159.890625 161.199219 159.667969 166.027344 154.097656 170.089844 C 152.679688 171.140625 151.289062 170.371094 150.679688 169.136719 L 150.523438 169.089844 C 150.28125 168.984375 149.980469 168.914062 149.773438 168.757812 C 149.667969 168.691406 149.5625 168.605469 149.453125 168.515625 C 149.230469 169.273438 148.871094 170.023438 148.316406 170.703125 C 147.859375 171.1875 147.179688 171.695312 146.886719 171.847656 L 146.597656 172.023438 C 146.433594 172.09375 146.246094 172.179688 146.074219 172.246094 C 145.703125 172.375 145.34375 172.53125 144.953125 172.53125 C 144.226562 172.636719 143.449219 172.460938 142.816406 172.152344 C 142.292969 171.886719 141.914062 171.539062 141.5625 171.1875 C 141.445312 171.335938 141.390625 171.402344 141.390625 171.414062 L 141.378906 171.414062 L 141.320312 171.449219 L 141.15625 171.605469 L 140.785156 171.867188 C 139.707031 172.570312 138.472656 172.570312 137.570312 172.394531 C 136.648438 172.199219 135.890625 171.847656 135.1875 171.46875 C 134.488281 171.070312 133.886719 170.617188 133.292969 170.082031 C 133.03125 169.847656 132.613281 169.382812 132.476562 169.207031 C 132.351562 169.03125 132.285156 168.933594 132.214844 168.808594 C 131.796875 169.332031 131.207031 169.710938 130.410156 169.800781 C 128.339844 170.042969 126.355469 169.535156 124.460938 168.613281 C 124.570312 168.855469 124.695312 169.109375 124.8125 169.363281 C 125.800781 172.179688 126.21875 174.863281 125.976562 176.960938 C 125.957031 177.203125 125.9375 177.445312 125.910156 177.671875 C 125.851562 177.882812 125.800781 178.078125 125.753906 178.242188 C 125.628906 178.613281 125.519531 178.902344 125.402344 179.167969 C 125.171875 179.652344 124.96875 179.914062 124.753906 179.894531 C 124.550781 179.886719 124.394531 179.585938 124.265625 179.050781 C 124.199219 178.789062 124.152344 178.457031 124.113281 178.078125 C 124.09375 177.902344 124.082031 177.6875 124.0625 177.484375 C 124.015625 177.289062 123.957031 177.097656 123.90625 176.875 C 123.617188 175.28125 122.957031 172.910156 122.0625 170.410156 C 121.292969 168.527344 120.535156 166.804688 119.835938 165.398438 C 117.300781 163.144531 115.054688 160.453125 113.304688 158.292969 C 108.710938 152.726562 105.398438 146.703125 102.851562 140.199219 C 91.433594 145.566406 84.273438 155.789062 75.546875 164.511719 C 66.773438 173.277344 57.414062 181.652344 49.609375 191.324219 C 40.867188 202.097656 32.839844 213.488281 25.96875 225.527344 C 22.558594 231.523438 19.449219 237.683594 16.738281 244.007812 C 15.125 247.816406 12.726562 251.539062 12.105469 255.6875 C 11.667969 258.457031 12.328125 258.398438 14 259.984375 C 16.535156 262.414062 17.886719 264.878906 21.90625 264.832031 C 22.0625 264.832031 22.179688 264.851562 22.316406 264.871094 C 41.722656 259.769531 61.367188 255.550781 80.289062 248.75 C 98.078125 242.355469 115.511719 235.019531 133.292969 228.605469 C 133.671875 228.34375 134.070312 228.0625 134.488281 227.789062 C 136.558594 226.402344 138.609375 225.253906 140.261719 224.621094 C 141.863281 224.070312 142.945312 223.980469 143.109375 224.332031 C 143.304688 224.710938 142.527344 225.476562 141.222656 226.46875 C 140.699219 226.886719 140.078125 227.371094 139.378906 227.898438 C 146.761719 228.605469 154.3125 228.832031 160.792969 224.640625 C 155.070312 218.839844 146.625 211.992188 142.972656 204.167969 C 141.515625 204.585938 140.085938 205.003906 138.667969 205.449219 C 136.355469 206.160156 134.160156 206.910156 131.90625 207.570312 C 127.492188 208.996094 122.964844 210.058594 118.757812 210.804688 C 110.363281 212.195312 102.890625 212.894531 96.515625 214.566406 C 94.757812 214.90625 93.066406 215.253906 91.421875 215.605469 C 89.734375 215.867188 88.101562 215.9375 86.496094 216.109375 C 84.914062 216.199219 83.386719 216.140625 81.910156 216.160156 C 80.414062 216.140625 79.003906 216.003906 77.636719 215.9375 C 72.175781 215.480469 67.550781 214.875 63.574219 214.566406 C 59.589844 214.332031 56.199219 214.089844 53.554688 214.417969 C 50.882812 214.722656 48.816406 215.324219 47.347656 216.128906 C 45.878906 216.867188 44.890625 217.605469 44.257812 218.121094 C 43.597656 218.609375 43.199219 218.800781 43.0625 218.675781 C 42.925781 218.578125 43.023438 218.191406 43.460938 217.433594 C 43.878906 216.644531 44.742188 215.546875 46.277344 214.398438 C 47.785156 213.1875 50.117188 212.164062 53.089844 211.535156 C 56.09375 210.871094 59.621094 210.871094 63.75 210.855469 C 67.878906 210.941406 72.613281 211.359375 77.898438 211.601562 C 80.238281 211.707031 82.699219 211.726562 85.222656 211.574219 C 85.941406 209.640625 86.964844 207.851562 88.21875 206.355469 C 89.867188 204.351562 91.832031 202.875 93.765625 201.789062 C 97.660156 199.609375 101.285156 198.640625 104.40625 197.675781 C 107.535156 196.773438 110.207031 195.957031 112.402344 195.042969 C 114.609375 194.121094 116.308594 193.0625 117.589844 191.945312 C 120.15625 189.699219 121.136719 187.339844 121.820312 185.878906 C 122.46875 184.363281 122.859375 183.65625 123.246094 183.703125 C 123.578125 183.742188 123.867188 184.519531 123.800781 186.347656 C 123.753906 187.25 123.558594 188.4375 123.050781 189.855469 C 122.566406 191.285156 121.644531 192.933594 120.207031 194.566406 C 118.75 196.191406 116.707031 197.714844 114.238281 198.96875 C 111.789062 200.222656 108.945312 201.242188 105.863281 202.273438 C 102.800781 203.332031 99.410156 204.390625 96.339844 206.21875 C 95.085938 206.949219 93.941406 207.832031 92.929688 208.882812 C 93.851562 209.210938 94.628906 209.503906 95.183594 209.871094 C 95.222656 209.882812 95.222656 209.902344 95.242188 209.902344 C 102.113281 207.988281 109.761719 207.191406 117.894531 205.753906 C 121.945312 205.003906 126.007812 204.011719 130.351562 202.625 C 132.527344 201.972656 134.789062 201.195312 137.085938 200.464844 C 138.472656 200.027344 139.929688 199.609375 141.390625 199.171875 C 140.894531 196.082031 141.273438 192.847656 142.972656 189.457031 C 149.785156 175.988281 163.855469 161.773438 177.605469 155.457031 C 179.480469 154.613281 181.355469 154 183.269531 153.5625 C 183.199219 153.058594 183.289062 152.523438 183.570312 151.96875 C 185.210938 148.769531 188.796875 145.777344 192.917969 143.816406 Z M 206.949219 150.210938 C 207.269531 150.101562 207.589844 150.003906 207.902344 149.898438 C 205.480469 143.066406 194.199219 147.898438 189.613281 152.570312 C 195.40625 151.996094 201.246094 151.996094 206.949219 150.210938 Z M 217.007812 187.074219 C 226.851562 176.144531 210.730469 174.007812 204.996094 170.421875 C 201.820312 168.449219 202.878906 163.695312 199.507812 161.363281 C 198.84375 160.917969 198.5625 159.90625 199.222656 159.3125 C 198.914062 158.382812 198.582031 157.457031 198.253906 156.535156 C 193.667969 156.796875 189.023438 157.039062 184.765625 158.410156 C 171.035156 162.792969 161.261719 173.609375 152.425781 184.558594 C 145.597656 193.023438 145.042969 200.914062 152.84375 209.242188 C 157.109375 213.757812 161.726562 217.898438 165.925781 222.464844 C 176.488281 228.167969 190.253906 227.636719 201.972656 228.324219 C 205.054688 228.519531 208.183594 228.65625 211.324219 228.722656 C 214.714844 227.730469 221.632812 225.097656 215.859375 220.492188 C 214.527344 219.425781 213.21875 218.382812 212.0625 217.128906 C 210.613281 215.605469 209.992188 213.515625 210.496094 211.484375 C 210.660156 210.871094 210.632812 209.851562 210.554688 208.929688 L 210.4375 208.046875 L 210.507812 208.046875 C 210.28125 206.304688 209.882812 203.265625 211.1875 201.992188 C 212.789062 200.445312 216.890625 199.679688 215.082031 196.238281 C 214.800781 195.714844 214.199219 194.898438 214.160156 194.1875 C 214.003906 191.167969 215.015625 189.300781 217.007812 187.074219 Z M 223.828125 145.71875 C 226.054688 145.449219 228.347656 145.359375 230.777344 145.496094 C 229.027344 142.875 225.800781 140.996094 222.671875 139.726562 C 223.109375 141.707031 223.507812 143.707031 223.828125 145.71875 Z M 251.394531 59.910156 C 243.203125 59.121094 234.964844 60.027344 226.8125 60.84375 C 224.003906 69.0625 221.699219 75.339844 215.324219 81.984375 C 208.601562 88.984375 200.496094 93.820312 193.453125 100.410156 C 188.847656 104.714844 184.523438 110.019531 184.726562 116.78125 C 184.851562 120.660156 185.210938 124.5 185.058594 128.394531 C 184.96875 130.84375 184.261719 134.097656 182.386719 135.886719 C 180.664062 137.539062 176.816406 139.414062 176 141.851562 C 179.597656 144.457031 184.941406 142.25 187.351562 138.996094 C 188.449219 137.519531 189.652344 135.050781 189.839844 133.242188 C 190.082031 130.757812 188.730469 128.347656 188.757812 125.859375 C 188.796875 124.03125 189.148438 122.933594 189.613281 122.867188 C 190.121094 122.796875 190.632812 123.855469 191.226562 125.507812 C 191.800781 127.121094 192.5 129.386719 193.199219 131.875 C 193.363281 132.40625 193.53125 132.933594 193.6875 133.449219 C 193.890625 133.769531 194.027344 134.167969 194.046875 134.613281 C 194.191406 135.070312 194.328125 135.507812 194.464844 135.925781 C 195.472656 138.042969 196.6875 140.035156 197.953125 142.019531 C 204.316406 140.472656 210.699219 141.765625 212.90625 148.296875 C 214.867188 147.691406 216.785156 147.128906 218.726562 146.664062 C 216.898438 135.554688 213.238281 125.296875 208.542969 115.0625 C 208.40625 114.734375 208.339844 114.421875 208.320312 114.101562 C 208.078125 113.480469 208.085938 112.75 208.542969 111.984375 C 210.679688 108.503906 213.546875 106.113281 216.957031 103.886719 C 222.449219 100.304688 226.480469 96.183594 230.882812 91.351562 C 239.5 81.898438 247.21875 72.035156 251.394531 59.910156 Z M 265.300781 202.953125 C 267.972656 193.148438 267.039062 179.984375 265.214844 170.0625 C 265.214844 170.023438 265.214844 169.992188 265.214844 169.953125 C 261.199219 164.601562 256.933594 157.324219 250.519531 154.523438 C 243.972656 151.636719 232.914062 149.832031 225.925781 150.414062 C 218.765625 151.007812 212.789062 154.796875 205.8125 155.84375 C 204.898438 155.980469 203.976562 156.089844 203.035156 156.1875 C 206.542969 158.585938 210.75 159.160156 214.886719 158.867188 C 216.917969 158.671875 218.949219 158.402344 220.785156 158.140625 C 222.574219 157.828125 224.234375 157.574219 225.800781 157.167969 C 227.335938 156.816406 228.753906 156.507812 230.066406 156.261719 C 231.328125 156 232.425781 155.789062 233.332031 155.769531 C 235.121094 155.671875 236.128906 155.699219 236.148438 155.894531 C 236.179688 156.097656 235.246094 156.449219 233.507812 156.90625 C 232.621094 157.089844 231.574219 157.4375 230.417969 157.835938 C 229.210938 158.226562 227.839844 158.652344 226.324219 159.140625 C 224.820312 159.664062 223.042969 160.054688 221.144531 160.480469 C 219.25 160.851562 217.308594 161.140625 215.152344 161.421875 C 213.011719 161.648438 210.390625 161.734375 208.25 161.402344 C 206.40625 161.121094 204.628906 160.460938 203.003906 159.578125 C 203.054688 160.148438 203.167969 160.675781 203.394531 161.160156 C 203.644531 161.472656 203.820312 161.773438 203.957031 162.0625 C 204.09375 162.21875 204.179688 162.414062 204.355469 162.570312 C 205.675781 163.851562 207.621094 164.601562 209.515625 165.105469 C 213.371094 166.046875 217.152344 166.164062 220.261719 166.234375 C 226.519531 166.273438 230.464844 166.007812 230.492188 166.464844 C 230.492188 166.824219 226.695312 167.796875 220.308594 168.300781 C 217.113281 168.496094 213.238281 168.613281 208.894531 167.730469 C 207.851562 167.488281 206.753906 167.175781 205.65625 166.71875 C 206.09375 167.4375 206.648438 167.972656 207.269531 168.390625 C 207.484375 168.496094 207.699219 168.613281 207.929688 168.699219 C 209.601562 169.402344 211.789062 169.800781 214.355469 170.390625 C 214.976562 170.527344 215.683594 170.722656 216.316406 170.917969 C 216.957031 171.101562 217.617188 171.296875 218.308594 171.558594 C 219.71875 172.042969 221.03125 172.578125 222.339844 172.949219 L 223.332031 173.21875 C 223.507812 173.308594 224.011719 173.347656 224.324219 173.414062 C 225.023438 173.519531 225.773438 173.695312 226.394531 173.726562 C 227.054688 173.800781 227.695312 173.871094 228.347656 173.917969 C 228.988281 173.957031 229.628906 173.988281 230.261719 174.027344 C 232.789062 174.132812 235.089844 174.132812 237.054688 174.179688 C 240.949219 174.25 243.398438 174.617188 243.398438 175.015625 C 243.378906 175.433594 241.015625 175.792969 237.140625 176.25 C 235.195312 176.476562 232.863281 176.679688 230.222656 176.738281 C 229.5625 176.71875 228.882812 176.71875 228.191406 176.71875 C 227.472656 176.667969 226.742188 176.628906 226.015625 176.582031 C 225.246094 176.542969 224.585938 176.386719 223.855469 176.300781 C 223.457031 176.210938 223.214844 176.230469 222.691406 176.097656 L 221.542969 175.765625 C 220.953125 175.609375 220.417969 175.414062 219.875 175.222656 C 222 177.6875 223.371094 180.796875 222.070312 183.964844 C 221.894531 184.363281 221.613281 184.851562 221.300781 185.375 C 221.5625 185.21875 221.847656 185.085938 222.097656 184.9375 C 225.140625 183.394531 227.976562 182.449219 230.320312 181.742188 C 235.089844 180.402344 237.898438 179.828125 238.042969 180.089844 C 238.21875 180.488281 235.449219 181.742188 230.96875 183.527344 C 228.746094 184.472656 226.0625 185.578125 223.3125 187.164062 C 221.980469 187.960938 220.59375 188.875 219.476562 190.019531 C 218.871094 190.621094 218.386719 191.285156 218.085938 192.003906 C 219.320312 191.75 220.554688 191.652344 221.71875 191.566406 C 226.1875 191.214844 230.511719 190.867188 234.324219 190.332031 C 238.132812 189.777344 241.503906 188.992188 244.175781 187.980469 C 246.859375 186.980469 248.90625 185.773438 250.160156 184.832031 C 251.484375 183.898438 252.210938 183.238281 252.386719 183.414062 C 252.484375 183.546875 252.105469 184.382812 250.957031 185.65625 C 249.773438 186.988281 247.800781 188.542969 245 189.875 C 242.210938 191.234375 238.683594 192.253906 234.761719 193.003906 C 230.796875 193.722656 226.480469 194.140625 221.914062 194.5 C 220.261719 194.585938 218.765625 194.742188 217.484375 195.132812 C 218.144531 196.082031 219.058594 197.367188 218.785156 198.550781 C 218.210938 200.972656 217.597656 201.769531 215.265625 202.757812 C 213.480469 203.527344 213.625 206.53125 213.585938 208.804688 C 215.246094 208.882812 216.9375 208.957031 218.679688 208.929688 C 229.453125 208.425781 238.773438 204.585938 245.050781 201.15625 C 248.121094 199.386719 250.675781 197.980469 252.386719 196.851562 C 254.136719 195.78125 255.144531 195.285156 255.273438 195.441406 C 255.390625 195.597656 254.613281 196.433594 253.066406 197.765625 C 251.578125 199.164062 249.152344 200.863281 246.089844 202.953125 C 244.496094 203.867188 242.746094 204.898438 240.84375 205.9375 C 239.851562 206.394531 238.820312 206.859375 237.761719 207.328125 C 236.703125 207.800781 235.644531 208.355469 234.449219 208.6875 C 233.28125 209.085938 232.078125 209.484375 230.863281 209.882812 C 229.648438 210.339844 228.328125 210.476562 227.023438 210.785156 C 224.410156 211.484375 221.613281 211.601562 218.785156 211.84375 C 217.25 211.882812 215.761719 211.816406 214.257812 211.746094 C 214.800781 213.03125 215.550781 214.15625 216.558594 215.011719 C 217.25 215.671875 218.125 216.089844 218.96875 216.539062 C 219.875 216.859375 220.746094 217.238281 221.699219 217.394531 C 225.402344 218.210938 229.007812 217.945312 231.941406 217.695312 C 237.832031 217.0625 241.414062 216.179688 241.511719 216.597656 C 241.601562 216.867188 238.230469 218.421875 232.203125 219.578125 C 229.191406 220.105469 225.460938 220.648438 221.195312 219.878906 C 220.28125 219.773438 219.378906 219.464844 218.433594 219.171875 C 219.894531 220.523438 220.972656 222.019531 220.535156 224.242188 C 220.457031 224.660156 220.308594 225.039062 220.175781 225.410156 C 222.496094 224.378906 225.042969 223.621094 227.628906 223.058594 C 231.726562 222.195312 235.605469 221.648438 238.996094 220.890625 C 242.40625 220.125 245.359375 219.199219 247.585938 217.898438 C 248.199219 217.65625 248.644531 217.238281 249.132812 216.945312 C 249.617188 216.617188 250.121094 216.351562 250.472656 216.003906 C 251.199219 215.304688 251.949219 214.855469 252.433594 214.246094 C 253.457031 213.117188 254.105469 212.5625 254.261719 212.679688 C 254.417969 212.789062 254.105469 213.585938 253.359375 214.90625 C 253.046875 215.605469 252.308594 216.296875 251.597656 217.1875 C 251.230469 217.65625 250.746094 218.003906 250.277344 218.421875 C 249.773438 218.820312 249.285156 219.328125 248.675781 219.667969 C 246.351562 221.339844 243.164062 222.574219 239.636719 223.515625 C 236.109375 224.46875 232.203125 225.078125 228.257812 225.925781 C 225.160156 226.605469 222.292969 227.480469 219.824219 228.675781 C 227.296875 228.363281 234.742188 227.324219 241.726562 224.855469 C 252.105469 221.164062 262.21875 214.148438 265.300781 202.953125 Z M 297.824219 176.386719 C 298.988281 183.742188 300.046875 194.082031 294.539062 200.15625 C 287.648438 207.714844 278.632812 204.199219 270.480469 200.972656 C 267.730469 212.339844 261.054688 222 248.109375 227.964844 C 234.097656 234.398438 217.046875 234.671875 201.972656 233.5625 C 189.632812 232.640625 175.882812 233.25 164.542969 227.65625 C 164.390625 228.207031 164.058594 228.722656 163.457031 229.132812 C 155.710938 234.15625 146.625 233.875 137.792969 232.949219 C 137.539062 232.929688 137.289062 232.863281 137.066406 232.773438 C 118.445312 239.382812 100.296875 247.242188 81.667969 253.773438 C 62.613281 260.46875 42.972656 264.832031 23.472656 269.941406 C 23.054688 270.058594 22.65625 270.058594 22.285156 269.992188 C 22.160156 270.011719 22.042969 270.050781 21.90625 270.050781 C 16.757812 270.117188 14.328125 267.164062 10.433594 264.539062 C 9.0625 263.617188 7.722656 263.285156 6.992188 261.683594 C 5.960938 259.4375 7.023438 256.640625 7.457031 254.414062 C 8.226562 250.332031 10.121094 246.320312 11.753906 242.53125 C 15.261719 234.40625 19.519531 226.625 24.289062 219.171875 C 30.953125 208.667969 37.542969 197.628906 45.558594 188.066406 C 43.578125 186.65625 42.273438 184.609375 40.777344 182.695312 C 35.199219 185.753906 26.164062 185.550781 22.285156 180.4375 C 16.320312 182.886719 10.238281 180.175781 4.347656 177.746094 C 4 177.601562 3.699219 177.417969 3.464844 177.175781 C 1.910156 177.601562 0.0742188 176.824219 0.269531 174.804688 C 1.414062 161.558594 5.632812 149.113281 8.820312 136.304688 C 11.335938 126.167969 13.746094 115.441406 23.015625 109.273438 C 41.234375 97.136719 64.886719 91.90625 86.585938 92.1875 C 86.410156 91.78125 86.253906 91.382812 86.097656 91.003906 C 81.648438 80.644531 77.976562 70.25 76.953125 58.984375 C 76.953125 58.945312 76.953125 58.917969 76.953125 58.859375 C 76.488281 57.839844 76.644531 56.632812 77.964844 56.011719 C 86.535156 51.875 98.683594 54.058594 107.378906 54.058594 C 107.496094 54.058594 107.601562 54.078125 107.710938 54.078125 C 109.039062 53.457031 110.820312 53.828125 111.199219 55.683594 C 114.238281 70.996094 120.914062 84.394531 128.222656 97.609375 C 128.378906 97.640625 128.550781 97.679688 128.707031 97.746094 C 141.078125 102.839844 152.523438 112.886719 156.5 125.976562 C 164.300781 125.546875 172.09375 124.953125 179.898438 125.21875 C 179.917969 124.691406 179.917969 124.148438 179.878906 123.574219 C 179.371094 115.5 179.808594 109.097656 184.570312 102.304688 C 189.945312 94.636719 198.953125 90.46875 205.65625 84.210938 C 209.777344 80.34375 215.433594 75.777344 217.890625 70.617188 C 219.875 66.4375 220.921875 61.980469 222.410156 57.644531 C 222.867188 56.292969 224.050781 55.769531 225.179688 55.855469 C 225.375 55.796875 225.578125 55.75 225.789062 55.730469 C 235.691406 54.757812 245.496094 53.75 255.390625 55.15625 C 256.816406 55.371094 257.371094 56.429688 257.265625 57.527344 C 257.351562 57.90625 257.351562 58.34375 257.214844 58.8125 C 253.628906 70.929688 246.769531 81.421875 238.382812 90.800781 C 234.34375 95.347656 230.398438 100.371094 225.644531 104.230469 C 221.652344 107.511719 216.714844 109.496094 213.65625 113.769531 C 216.589844 120.308594 219.183594 126.878906 221.125 133.660156 C 227.472656 135.59375 234.625 139.519531 236.789062 146.070312 C 243.84375 146.886719 251.09375 148.265625 256.867188 152.394531 C 259.441406 154.242188 261.628906 156.601562 263.648438 159.140625 C 267.476562 152.570312 276.183594 149.285156 283.363281 153.386719 C 291.828125 158.226562 296.328125 166.960938 297.824219 176.386719 Z M 142.925781 167.921875 C 142.945312 167.921875 142.972656 167.992188 142.972656 167.992188 L 143.097656 168.207031 C 143.273438 168.496094 143.476562 168.691406 143.671875 168.914062 C 144.089844 169.3125 144.351562 169.382812 144.574219 169.3125 C 146.539062 168.964844 147.023438 165.457031 145.363281 162.027344 C 144.972656 161.140625 144.554688 160.296875 144.140625 159.390625 C 143.703125 158.46875 143.253906 157.546875 142.925781 156.671875 C 142.175781 154.855469 141.445312 153.320312 140.785156 151.726562 C 140.175781 150.140625 139.308594 148.734375 138.667969 147.34375 C 138.007812 145.964844 137.328125 144.679688 136.734375 143.496094 C 134.335938 138.773438 133.148438 135.691406 133.558594 135.46875 C 133.992188 135.226562 135.945312 137.886719 138.890625 142.261719 C 139.621094 143.359375 140.417969 144.5625 141.222656 145.933594 C 142 147.304688 142.953125 148.664062 143.703125 150.316406 C 144.421875 151.792969 145.238281 153.425781 145.9375 155.011719 C 146.539062 155.980469 147.179688 157.019531 147.878906 158.167969 C 148.734375 159.617188 150.832031 165.699219 152.273438 165.328125 C 159.414062 163.523438 144.605469 139.917969 143.050781 136.664062 C 138.296875 126.8125 133.480469 116.917969 127.882812 107.503906 C 118.730469 92.035156 110.554688 76.902344 106.648438 59.277344 C 103.09375 59.277344 97.496094 59.277344 92.824219 59.179688 C 89.257812 59.09375 85.660156 58.8125 82.289062 59.996094 C 84.554688 80.886719 96.914062 98.863281 102.132812 119.007812 C 104.785156 129.296875 106.902344 140.617188 113.09375 149.5 C 116.328125 154.136719 123.023438 164.929688 129.972656 164.582031 C 129.972656 163.492188 129.242188 162.519531 128.628906 161.453125 L 128.25 160.675781 L 128.066406 160.296875 L 128.007812 160.21875 L 127.882812 160.035156 C 127.570312 159.558594 127.28125 159.089844 126.96875 158.625 C 126.375 157.683594 125.78125 156.777344 125.230469 155.894531 C 124.113281 154.117188 123.089844 152.484375 122.128906 150.976562 C 118.417969 144.921875 116.308594 141.066406 116.707031 140.785156 C 117.125 140.53125 119.960938 143.914062 124.21875 149.597656 C 125.269531 151.027344 126.425781 152.589844 127.660156 154.28125 C 128.269531 155.125 128.894531 156 129.554688 156.90625 C 129.863281 157.351562 130.195312 157.828125 130.523438 158.273438 L 130.652344 158.449219 L 130.71875 158.554688 L 130.757812 158.585938 L 130.847656 158.742188 L 131.050781 159.109375 L 131.488281 159.878906 C 132.097656 160.8125 132.59375 162.132812 133.140625 163.277344 C 133.625 164.339844 134.128906 165.457031 134.734375 166.339844 C 134.878906 166.535156 135.082031 166.882812 135.132812 166.980469 C 135.394531 167.292969 135.414062 167.292969 135.636719 167.507812 C 136.023438 167.855469 136.460938 168.167969 136.929688 168.429688 C 137.792969 168.964844 138.734375 169.050781 138.871094 168.914062 L 139.027344 168.671875 C 139.066406 168.613281 139.152344 168.515625 139.132812 168.476562 L 139.105469 168.449219 C 139.074219 168.410156 139.074219 168.410156 139.105469 168.390625 L 139.113281 167.789062 L 139.027344 167 C 138.824219 165.921875 138.433594 164.792969 137.988281 163.675781 C 137.046875 161.453125 135.917969 159.3125 134.769531 157.324219 C 132.351562 153.210938 130.457031 149.5 128.777344 146.351562 C 125.5 140.035156 123.675781 136.023438 124.113281 135.800781 C 124.53125 135.554688 127.105469 139.132812 130.941406 145.117188 C 132.816406 148.121094 135.0625 151.6875 137.550781 155.652344 C 138.824219 157.683594 140.078125 159.878906 141.164062 162.328125 C 141.691406 163.582031 142.175781 164.902344 142.46875 166.40625 C 142.507812 166.671875 142.546875 166.953125 142.574219 167.222656 C 142.59375 167.242188 142.613281 167.28125 142.621094 167.3125 L 142.886719 167.835938 Z M 271.800781 180.507812 C 272.199219 185.753906 272.132812 190.90625 271.453125 195.820312 C 277.574219 198.445312 287.320312 203.226562 291.265625 195.78125 C 293.441406 191.683594 293.769531 186.941406 293.371094 182.382812 C 292.898438 177.222656 292.03125 171.246094 289.300781 166.710938 C 285.570312 160.460938 274.910156 152.988281 269.519531 159.265625 C 270.460938 159.246094 271.421875 159.351562 272.316406 159.546875 C 275.203125 160.1875 277.582031 161.53125 279.566406 162.917969 C 281.539062 164.339844 283.101562 165.875 284.230469 167.332031 C 285.355469 168.777344 286.035156 170.148438 286.308594 171.167969 C 286.589844 172.246094 286.453125 172.792969 286.28125 172.839844 C 285.882812 172.878906 285.160156 170.984375 282.683594 168.71875 C 281.480469 167.574219 279.914062 166.320312 278.058594 165.15625 C 276.210938 164.007812 274.027344 162.917969 271.695312 162.414062 C 270.199219 162.0625 268.828125 162.113281 267.679688 162.5 C 267.679688 162.53125 267.660156 162.550781 267.640625 162.589844 C 270.460938 163.386719 272.800781 164.707031 274.785156 166.027344 C 275.882812 166.796875 276.894531 167.523438 277.746094 168.300781 C 278.652344 169.050781 279.398438 169.820312 280.070312 170.507812 C 282.773438 173.328125 283.917969 175.394531 283.675781 175.589844 C 283.363281 175.851562 281.722656 174.230469 278.808594 171.90625 C 276.71875 170.285156 273.890625 168.128906 270.421875 166.601562 C 270.5 166.691406 270.566406 166.777344 270.617188 166.882812 C 271.566406 168.390625 272.511719 169.886719 273.414062 171.316406 C 274.40625 172.683594 275.367188 174.027344 276.289062 175.289062 C 278.078125 177.84375 279.691406 180.15625 281.050781 182.089844 C 283.78125 185.988281 285.289062 188.523438 284.976562 188.785156 C 284.648438 189.027344 282.539062 186.941406 279.417969 183.355469 C 277.835938 181.605469 276.039062 179.378906 274.09375 176.890625 C 273.898438 176.648438 273.695312 176.367188 273.5 176.125 C 273.871094 177.273438 274.25 178.476562 274.636719 179.710938 C 275.28125 182.179688 275.589844 184.363281 276.019531 186.347656 C 276.4375 188.308594 276.894531 190.03125 277.4375 191.390625 C 277.953125 192.730469 278.632812 193.683594 279.117188 194.207031 C 279.320312 194.5 279.671875 194.714844 279.828125 194.878906 C 280.003906 195.054688 280.089844 195.199219 280.042969 195.296875 C 280.003906 195.382812 279.847656 195.441406 279.605469 195.421875 C 279.339844 195.421875 279.03125 195.441406 278.542969 195.179688 C 277.554688 194.78125 276.457031 193.789062 275.589844 192.332031 C 273.765625 189.457031 272.878906 184.910156 271.800781 180.507812 " fill-opacity="1" fill-rule="nonzero"/></g><path fill="#686864" d="M 177.011719 208.25 C 177.050781 208.464844 176.398438 208.753906 175.203125 209.105469 C 174.019531 209.453125 172.25 209.785156 170.375 210.542969 C 169.917969 210.757812 169.472656 210.980469 169.0625 211.261719 L 168.886719 211.359375 L 168.828125 211.4375 C 168.703125 211.535156 168.578125 211.640625 168.558594 211.6875 C 168.480469 211.796875 168.304688 212.039062 168.179688 212.253906 C 167.867188 212.699219 167.710938 213.3125 167.03125 214.148438 C 166.683594 214.546875 166.039062 214.992188 165.378906 215.082031 C 164.777344 215.167969 164.195312 215.082031 163.765625 214.964844 L 163.59375 214.90625 L 163.503906 214.886719 C 163.4375 214.875 163.242188 214.789062 163.242188 214.789062 L 163 214.664062 L 162.757812 214.546875 L 162.378906 214.285156 L 161.988281 214 L 161.746094 213.738281 C 161.570312 213.574219 161.414062 213.410156 161.28125 213.242188 C 160.726562 212.582031 160.308594 211.933594 159.890625 211.535156 L 159.820312 211.464844 L 159.78125 211.4375 L 159.609375 211.289062 C 159.433594 211.175781 159.277344 211.066406 159.160156 211 L 158.179688 210.425781 C 157.460938 209.988281 156.449219 209.289062 155.875 208.21875 C 154.914062 206.375 155.003906 204.128906 155.285156 202.476562 C 155.554688 200.738281 156.226562 199.191406 156.945312 197.785156 C 157.382812 197.09375 157.792969 196.414062 158.375 195.820312 C 158.511719 195.644531 158.589844 195.539062 158.8125 195.335938 L 159.191406 195.003906 C 159.296875 194.898438 159.511719 194.761719 159.714844 194.636719 C 159.910156 194.5 160.085938 194.382812 160.328125 194.296875 C 160.746094 194.082031 161.308594 193.964844 161.832031 194.015625 C 162.386719 194.0625 162.796875 194.257812 163.175781 194.46875 C 163.835938 194.878906 164.300781 195.355469 164.699219 195.773438 C 165.070312 196.171875 165.4375 196.589844 165.757812 197.007812 C 166.078125 197.40625 166.34375 197.765625 166.59375 198.027344 C 167.101562 198.589844 167.625 198.949219 168.148438 199.191406 C 169.1875 199.679688 169.890625 199.875 169.851562 200.117188 C 169.8125 200.273438 169.140625 200.476562 167.800781 200.273438 C 167.160156 200.203125 166.285156 199.855469 165.507812 199.261719 C 165.109375 198.949219 164.757812 198.601562 164.390625 198.269531 C 164.058594 197.960938 163.699219 197.628906 163.261719 197.269531 C 162.863281 196.9375 162.464844 196.636719 162.097656 196.441406 C 161.699219 196.308594 161.667969 196.328125 161.367188 196.480469 C 161.308594 196.5 161.230469 196.570312 161.152344 196.636719 C 161.085938 196.695312 161.015625 196.726562 160.882812 196.859375 L 160.511719 197.210938 C 160.511719 197.25 160.375 197.425781 160.308594 197.523438 C 159.9375 197.941406 159.648438 198.503906 159.335938 199.058594 C 158.257812 201.371094 157.460938 204.546875 158.433594 206.792969 C 158.65625 207.210938 159.054688 207.519531 159.695312 207.917969 C 160.027344 208.132812 160.355469 208.308594 160.792969 208.597656 C 161.035156 208.734375 161.191406 208.882812 161.347656 208.976562 L 161.570312 209.171875 L 161.699219 209.261719 C 161.746094 209.308594 161.824219 209.375 161.824219 209.375 L 161.960938 209.523438 C 162.738281 210.367188 163.175781 212.582031 164.523438 212.542969 C 165.507812 212.503906 166.566406 210.210938 167.363281 209.640625 L 167.449219 209.570312 L 167.59375 209.464844 L 167.652344 209.433594 L 167.886719 209.328125 C 168.507812 208.976562 169.121094 208.773438 169.695312 208.597656 C 172.007812 207.976562 173.816406 207.988281 175.046875 207.976562 C 176.28125 207.976562 176.992188 208.054688 177.011719 208.25 " fill-opacity="1" fill-rule="nonzero"/><path fill="#686864" d="M 141.390625 171.414062 C 141.359375 171.429688 141.378906 171.429688 141.378906 171.414062 L 141.390625 171.414062 " fill-opacity="1" fill-rule="nonzero"/><path fill="#686864" d="M 53.488281 133.070312 C 53.769531 133.371094 52.429688 135.15625 49.914062 137.734375 C 47.40625 140.296875 43.75 143.582031 39.960938 147.363281 C 38.066406 149.257812 36.367188 151.113281 34.890625 152.871094 C 33.480469 154.660156 32.226562 156.292969 31.34375 157.769531 C 29.515625 160.695312 28.71875 162.746094 28.28125 162.636719 C 27.933594 162.550781 28.039062 160.21875 29.515625 156.816406 C 30.214844 155.097656 31.382812 153.210938 32.753906 151.21875 C 34.191406 149.265625 35.929688 147.253906 37.882812 145.292969 C 41.808594 141.375 45.703125 138.316406 48.53125 136.167969 C 51.371094 134.039062 53.207031 132.777344 53.488281 133.070312 " fill-opacity="1" fill-rule="nonzero"/><path fill="#686864" d="M 44.363281 254.980469 C 44.453125 255.359375 43.023438 256.15625 40.574219 257.253906 C 38.105469 258.3125 34.589844 259.632812 30.460938 260.382812 C 28.371094 260.730469 26.339844 260.925781 24.425781 260.742188 C 22.53125 260.59375 20.742188 260.03125 19.46875 259.078125 C 18.1875 258.144531 17.613281 256.921875 17.46875 256.058594 C 17.332031 255.242188 17.46875 254.824219 17.621094 254.765625 C 17.835938 254.675781 18.109375 255.09375 18.527344 255.660156 C 18.914062 256.15625 19.574219 256.882812 20.566406 257.320312 C 22.550781 258.3125 26.097656 258.175781 29.933594 257.496094 C 33.8125 256.796875 37.320312 255.824219 39.933594 255.289062 C 42.519531 254.695312 44.277344 254.5625 44.363281 254.980469 " fill-opacity="1" fill-rule="nonzero"/></svg>