<svg xmlns="http://www.w3.org/2000/svg" xmlns:xlink="http://www.w3.org/1999/xlink" width="400" zoomAndPan="magnify" viewBox="0 0 300 299.999988" height="400" preserveAspectRatio="xMidYMid meet" version="1.0"><defs><clipPath id="c82d3bc251"><path d="M 77.394531 86 L 110 86 L 110 171 L 77.394531 171 Z M 77.394531 86 " clip-rule="nonzero"/></clipPath><clipPath id="04bf899165"><path d="M 143.65625 186.589844 L 193.117188 186.589844 L 193.117188 276.203125 L 143.65625 276.203125 Z M 143.65625 186.589844 " clip-rule="nonzero"/></clipPath><clipPath id="d7ca3d7491"><path d="M 180.75 179.011719 L 222.527344 179.011719 L 222.527344 259.582031 L 180.75 259.582031 Z M 180.75 179.011719 " clip-rule="nonzero"/></clipPath><clipPath id="2c6a7a2e9f"><path d="M 107 23.453125 L 143 23.453125 L 143 69 L 107 69 Z M 107 23.453125 " clip-rule="nonzero"/></clipPath></defs><path fill="#686864" d="M 154.601562 97.152344 C 153.632812 97.152344 152.738281 96.519531 152.441406 95.542969 C 151.078125 91.015625 147.582031 87.414062 143.085938 85.90625 C 138.617188 84.40625 133.675781 85.164062 129.878906 87.9375 C 128.871094 88.671875 127.457031 88.449219 126.726562 87.445312 C 125.988281 86.441406 126.210938 85.027344 127.21875 84.292969 C 132.195312 80.65625 138.664062 79.667969 144.523438 81.632812 C 150.402344 83.605469 154.976562 88.320312 156.765625 94.242188 C 157.121094 95.4375 156.445312 96.691406 155.25 97.054688 C 155.035156 97.117188 154.820312 97.152344 154.601562 97.152344 " fill-opacity="1" fill-rule="nonzero"/><path fill="#686864" d="M 111.121094 183.933594 C 110.394531 183.933594 109.675781 183.582031 109.242188 182.925781 C 108.554688 181.890625 108.835938 180.488281 109.871094 179.796875 C 126.902344 168.488281 128.332031 154.835938 129.484375 143.867188 C 129.890625 139.980469 130.242188 136.628906 131.222656 133.730469 C 132.347656 130.40625 134.074219 126.253906 135.910156 121.859375 C 139.421875 113.433594 144.226562 101.890625 143.234375 98.496094 L 143.1875 98.332031 C 142.71875 96.777344 141.5625 95.59375 140.015625 95.074219 C 138.484375 94.558594 136.863281 94.804688 135.570312 95.746094 C 132.8125 97.757812 128.613281 102 124.273438 110.78125 C 114.90625 129.71875 110.46875 133.363281 109.996094 133.71875 C 108.992188 134.464844 107.582031 134.257812 106.839844 133.257812 C 106.105469 132.269531 106.296875 130.882812 107.261719 130.128906 C 107.5 129.929688 111.519531 126.382812 120.226562 108.777344 C 124.039062 101.074219 128.304688 95.464844 132.914062 92.101562 C 135.402344 90.285156 138.511719 89.8125 141.449219 90.792969 C 144.359375 91.769531 146.625 94.105469 147.507812 97.03125 L 147.5625 97.222656 C 148.90625 101.808594 145.46875 110.640625 140.070312 123.59375 C 138.273438 127.917969 136.570312 131.992188 135.496094 135.175781 C 134.675781 137.597656 134.351562 140.71875 133.96875 144.335938 C 132.785156 155.617188 131.164062 171.074219 112.367188 183.558594 C 111.984375 183.816406 111.550781 183.933594 111.121094 183.933594 " fill-opacity="1" fill-rule="nonzero"/><path fill="#686864" d="M 91.339844 154.019531 C 91.292969 154.019531 91.25 154.015625 91.203125 154.011719 C 89.960938 153.9375 89.015625 152.867188 89.089844 151.621094 C 89.835938 139.371094 90.964844 129.808594 92.4375 123.207031 C 92.710938 121.992188 93.917969 121.226562 95.132812 121.496094 C 96.351562 121.769531 97.117188 122.976562 96.84375 124.191406 C 95.4375 130.472656 94.316406 140.054688 93.59375 151.898438 C 93.519531 153.09375 92.523438 154.019531 91.339844 154.019531 " fill-opacity="1" fill-rule="nonzero"/><g clip-path="url(#c82d3bc251)"><path fill="#686864" d="M 79.699219 170.40625 C 79.691406 170.40625 79.675781 170.40625 79.667969 170.40625 C 78.421875 170.382812 77.425781 169.363281 77.445312 168.113281 C 77.464844 166.886719 77.953125 137.777344 81.746094 120.816406 C 85.660156 103.320312 104.824219 87.75 105.636719 87.089844 C 106.609375 86.3125 108.027344 86.464844 108.804688 87.433594 C 109.589844 88.40625 109.433594 89.824219 108.464844 90.605469 C 108.277344 90.757812 89.714844 105.859375 86.152344 121.800781 C 82.460938 138.304688 81.960938 167.886719 81.957031 168.1875 C 81.9375 169.417969 80.929688 170.40625 79.699219 170.40625 " fill-opacity="1" fill-rule="nonzero"/></g><path fill="#686864" d="M 136.789062 195.910156 C 136.664062 195.910156 136.535156 195.894531 136.410156 195.875 C 135.179688 195.667969 134.351562 194.507812 134.558594 193.277344 C 135.59375 187.160156 139.542969 181.90625 145.125 179.210938 C 150.699219 176.527344 157.242188 176.707031 162.632812 179.6875 C 163.722656 180.289062 164.121094 181.660156 163.515625 182.753906 C 162.914062 183.84375 161.539062 184.234375 160.449219 183.632812 C 156.335938 181.359375 151.339844 181.226562 147.085938 183.277344 C 142.816406 185.332031 139.796875 189.351562 139.007812 194.027344 C 138.824219 195.128906 137.871094 195.910156 136.789062 195.910156 " fill-opacity="1" fill-rule="nonzero"/><g clip-path="url(#04bf899165)"><path fill="#686864" d="M 190.792969 276.546875 C 190.453125 276.546875 190.113281 276.46875 189.789062 276.308594 C 169.578125 266.277344 166.035156 251.144531 163.449219 240.097656 C 162.621094 236.558594 161.90625 233.507812 160.789062 231.207031 C 159.320312 228.183594 157.125 224.351562 154.796875 220.289062 C 147.820312 208.113281 143.304688 199.78125 144.0625 195.066406 L 144.09375 194.871094 C 144.605469 191.851562 146.558594 189.253906 149.324219 187.921875 C 152.113281 186.574219 155.261719 186.652344 157.957031 188.144531 C 162.945312 190.902344 167.886719 195.933594 172.632812 203.105469 C 183.585938 219.648438 187.996094 222.554688 188.175781 222.667969 C 189.261719 223.28125 189.617188 224.644531 189.003906 225.726562 C 188.394531 226.808594 186.992188 227.175781 185.90625 226.566406 C 185.390625 226.273438 180.53125 223.210938 168.867188 205.59375 C 163.460938 197.429688 158.765625 193.746094 155.773438 192.097656 C 154.375 191.320312 152.738281 191.28125 151.285156 191.980469 C 149.8125 192.691406 148.8125 194.015625 148.542969 195.617188 L 148.515625 195.785156 C 147.957031 199.273438 154.171875 210.125 158.714844 218.042969 C 161.082031 222.175781 163.3125 226.078125 164.847656 229.234375 C 166.183594 231.988281 166.953125 235.273438 167.84375 239.070312 C 170.355469 249.8125 173.484375 263.183594 191.796875 272.269531 C 192.914062 272.820312 193.371094 274.175781 192.816406 275.292969 C 192.421875 276.085938 191.621094 276.546875 190.792969 276.546875 " fill-opacity="1" fill-rule="nonzero"/></g><path fill="#686864" d="M 206.421875 243.074219 C 205.363281 243.074219 204.414062 242.324219 204.207031 241.242188 C 202.910156 234.5 201.589844 228.59375 200.273438 223.675781 C 199.953125 222.476562 200.667969 221.238281 201.875 220.917969 C 203.074219 220.59375 204.3125 221.3125 204.632812 222.515625 C 205.972656 227.527344 207.320312 233.542969 208.640625 240.390625 C 208.871094 241.617188 208.070312 242.796875 206.847656 243.035156 C 206.707031 243.0625 206.5625 243.074219 206.421875 243.074219 " fill-opacity="1" fill-rule="nonzero"/><path fill="#686864" d="M 208.871094 257.085938 C 207.777344 257.085938 206.820312 256.292969 206.644531 255.179688 C 206.441406 253.898438 206.1875 252.324219 205.882812 250.53125 C 205.675781 249.304688 206.503906 248.140625 207.734375 247.933594 C 208.960938 247.726562 210.125 248.554688 210.332031 249.78125 C 210.636719 251.589844 210.894531 253.179688 211.097656 254.480469 C 211.292969 255.707031 210.453125 256.863281 209.222656 257.054688 C 209.101562 257.074219 208.984375 257.085938 208.871094 257.085938 " fill-opacity="1" fill-rule="nonzero"/><g clip-path="url(#d7ca3d7491)"><path fill="#686864" d="M 220.269531 259.1875 C 219.167969 259.1875 218.199219 258.378906 218.039062 257.25 C 217.996094 256.957031 213.796875 227.671875 208.070312 211.757812 C 202.527344 196.355469 182.1875 183.699219 181.980469 183.574219 C 180.921875 182.921875 180.589844 181.535156 181.242188 180.472656 C 181.898438 179.410156 183.289062 179.078125 184.34375 179.734375 C 185.234375 180.28125 206.242188 193.359375 212.3125 210.230469 C 218.199219 226.582031 222.332031 255.398438 222.503906 256.613281 C 222.683594 257.851562 221.824219 258.992188 220.589844 259.164062 C 220.480469 259.183594 220.375 259.1875 220.269531 259.1875 " fill-opacity="1" fill-rule="nonzero"/></g><path fill="#686864" d="M 183.296875 223.386719 C 182.09375 223.386719 181.09375 222.4375 181.042969 221.226562 C 181.007812 220.402344 180.945312 219.15625 180.839844 217.886719 C 178.390625 187.90625 181.941406 160.117188 191.402344 135.289062 C 200.917969 110.308594 190.898438 90.460938 161.617188 76.3125 C 144.574219 68.070312 130.796875 65.746094 121.785156 69.59375 C 116.496094 71.851562 112.722656 76.347656 110.574219 82.964844 C 106.59375 95.203125 111.457031 109.410156 116.78125 122.910156 C 117.238281 124.066406 116.671875 125.378906 115.511719 125.835938 C 114.351562 126.292969 113.042969 125.722656 112.585938 124.5625 C 106.960938 110.300781 101.839844 95.230469 106.28125 81.570312 C 108.851562 73.660156 113.472656 68.234375 120.015625 65.441406 C 130.410156 61.011719 145.066406 63.300781 163.585938 72.25 C 194.886719 87.378906 205.964844 109.734375 195.613281 136.898438 C 186.398438 161.089844 182.941406 188.214844 185.335938 217.519531 C 185.449219 218.863281 185.515625 220.171875 185.550781 221.035156 C 185.605469 222.28125 184.636719 223.332031 183.390625 223.386719 C 183.359375 223.386719 183.324219 223.386719 183.296875 223.386719 " fill-opacity="1" fill-rule="nonzero"/><path fill="#686864" d="M 148.996094 272.019531 C 142.730469 272.019531 136.425781 270.074219 130.746094 266.082031 C 112.097656 252.96875 116.933594 229.886719 122.054688 205.449219 C 123.875 196.761719 125.761719 187.777344 126.671875 178.925781 C 127.195312 173.832031 126.886719 168.4375 125.722656 162.4375 C 125.484375 161.214844 126.289062 160.03125 127.511719 159.796875 C 128.730469 159.554688 129.914062 160.359375 130.152344 161.582031 C 131.402344 168.019531 131.730469 173.847656 131.160156 179.386719 C 130.222656 188.472656 128.316406 197.574219 126.472656 206.378906 C 121.453125 230.3125 117.117188 250.984375 133.339844 262.390625 C 145.375 270.851562 160.757812 268.554688 170.742188 256.808594 C 171.550781 255.859375 172.972656 255.742188 173.921875 256.550781 C 174.875 257.359375 174.988281 258.78125 174.179688 259.730469 C 167.304688 267.820312 158.195312 272.019531 148.996094 272.019531 " fill-opacity="1" fill-rule="nonzero"/><g clip-path="url(#2c6a7a2e9f)"><path fill="#686864" d="M 125.527344 68.355469 C 115.867188 68.355469 107.710938 57.945312 107.710938 45.621094 C 107.710938 33.398438 115.472656 23.453125 125.011719 23.453125 C 134.71875 23.453125 142.316406 32.953125 142.316406 45.085938 C 142.316406 46.332031 141.308594 47.339844 140.0625 47.339844 C 138.816406 47.339844 137.808594 46.332031 137.808594 45.085938 C 137.808594 35.484375 132.1875 27.964844 125.011719 27.964844 C 117.960938 27.964844 112.222656 35.886719 112.222656 45.621094 C 112.222656 55.328125 118.4375 63.847656 125.527344 63.847656 C 126.773438 63.847656 127.78125 64.855469 127.78125 66.101562 C 127.78125 67.347656 126.773438 68.355469 125.527344 68.355469 " fill-opacity="1" fill-rule="nonzero"/></g><path fill="#686864" d="M 145.609375 69.933594 C 145.339844 69.933594 145.0625 69.882812 144.796875 69.78125 C 138.207031 67.238281 134.566406 58.925781 136.140625 50.007812 C 136.957031 45.371094 139.113281 41.226562 142.214844 38.347656 C 145.484375 35.300781 149.410156 34.003906 153.261719 34.683594 C 157.0625 35.351562 160.410156 38.136719 162.457031 42.320312 C 164.371094 46.238281 165.003906 51.117188 164.199219 55.699219 C 163.980469 56.921875 162.8125 57.742188 161.585938 57.527344 C 160.355469 57.308594 159.539062 56.140625 159.753906 54.914062 C 160.398438 51.25 159.910156 47.382812 158.402344 44.300781 C 156.976562 41.386719 154.878906 39.550781 152.480469 39.125 C 150.050781 38.695312 147.496094 39.597656 145.28125 41.648438 C 142.902344 43.867188 141.230469 47.113281 140.582031 50.789062 C 139.40625 57.476562 141.914062 63.832031 146.421875 65.570312 C 147.582031 66.015625 148.164062 67.320312 147.710938 68.484375 C 147.367188 69.382812 146.511719 69.933594 145.609375 69.933594 " fill-opacity="1" fill-rule="nonzero"/><path fill="#686864" d="M 163.007812 76.734375 C 162.613281 76.734375 162.214844 76.632812 161.851562 76.414062 C 156.742188 73.351562 154.90625 65.988281 157.488281 58.894531 C 160.332031 51.078125 167.683594 46.554688 173.878906 48.808594 C 176.949219 49.925781 179.324219 52.695312 180.398438 56.402344 C 181.40625 59.894531 181.222656 63.839844 179.882812 67.527344 C 179.453125 68.699219 178.164062 69.300781 176.988281 68.875 C 175.820312 68.449219 175.214844 67.152344 175.640625 65.984375 C 176.644531 63.230469 176.800781 60.195312 176.0625 57.660156 C 175.386719 55.3125 174.0625 53.675781 172.335938 53.046875 C 168.542969 51.664062 163.683594 55.050781 161.726562 60.441406 C 159.914062 65.417969 160.964844 70.625 164.167969 72.542969 C 165.238281 73.183594 165.585938 74.570312 164.945312 75.636719 C 164.519531 76.34375 163.773438 76.734375 163.007812 76.734375 " fill-opacity="1" fill-rule="nonzero"/><path fill="#686864" d="M 175.371094 83.871094 C 174.769531 83.871094 174.167969 83.632812 173.726562 83.160156 C 170.523438 79.746094 170.316406 73.859375 173.210938 68.84375 C 176.648438 62.890625 183.3125 60.285156 188.074219 63.035156 C 190.464844 64.414062 191.972656 67.191406 192.21875 70.660156 C 192.4375 73.742188 191.652344 77.09375 190.066406 79.84375 C 189.441406 80.925781 188.0625 81.292969 186.984375 80.667969 C 185.90625 80.046875 185.535156 78.667969 186.160156 77.589844 C 187.292969 75.625 187.875 73.15625 187.71875 70.980469 C 187.582031 69.03125 186.890625 67.558594 185.820312 66.945312 C 183.261719 65.460938 179.273438 67.363281 177.117188 71.097656 C 175.269531 74.304688 175.222656 78.160156 177.015625 80.070312 C 177.867188 80.980469 177.824219 82.40625 176.914062 83.261719 C 176.480469 83.667969 175.925781 83.871094 175.371094 83.871094 " fill-opacity="1" fill-rule="nonzero"/><path fill="#686864" d="M 187.28125 88.996094 C 187.457031 89.074219 187.621094 89.179688 187.777344 89.308594 C 189.765625 90.953125 192.863281 90.628906 194.835938 88.574219 C 195.871094 87.496094 196.453125 86.117188 196.480469 84.699219 C 196.503906 83.347656 196.007812 82.117188 195.089844 81.238281 C 193.140625 79.367188 189.859375 79.621094 187.769531 81.800781 C 185.898438 83.75 185.570312 86.550781 186.988281 88.460938 C 187.113281 88.628906 187.210938 88.808594 187.28125 88.996094 Z M 190.765625 94.859375 C 188.660156 94.859375 186.582031 94.175781 184.898438 92.78125 C 184.589844 92.527344 184.367188 92.203125 184.234375 91.855469 C 183.898438 91.699219 183.597656 91.464844 183.363281 91.148438 C 180.628906 87.46875 181.113281 82.222656 184.511719 78.675781 C 188.320312 74.703125 194.464844 74.386719 198.210938 77.980469 C 200.046875 79.742188 201.035156 82.152344 200.988281 84.78125 C 200.945312 87.335938 199.917969 89.792969 198.09375 91.695312 C 196.089844 93.785156 193.40625 94.859375 190.765625 94.859375 " fill-opacity="1" fill-rule="nonzero"/></svg>