<svg xmlns="http://www.w3.org/2000/svg" xmlns:xlink="http://www.w3.org/1999/xlink" width="400" zoomAndPan="magnify" viewBox="0 0 300 299.999988" height="400" preserveAspectRatio="xMidYMid meet" version="1.0"><defs><clipPath id="3c6ab1355a"><path d="M 5.929688 65.390625 L 293.929688 65.390625 L 293.929688 234.890625 L 5.929688 234.890625 Z M 5.929688 65.390625 " clip-rule="nonzero"/></clipPath></defs><g clip-path="url(#3c6ab1355a)"><path fill="#686864" d="M 281.59375 216.421875 C 289.082031 211.503906 294.054688 203.042969 294.054688 193.441406 C 294.054688 178.292969 281.765625 166 266.617188 166 L 265.359375 166 C 266.15625 164.628906 266.617188 163.085938 266.617188 161.425781 C 266.617188 158.570312 265.300781 156.054688 263.242188 154.339844 C 270.675781 150.566406 275.761719 142.847656 275.761719 133.988281 C 275.761719 121.355469 265.527344 111.121094 252.894531 111.121094 L 243.347656 111.121094 C 243.578125 110.378906 243.75 109.636719 243.75 108.835938 C 243.75 107.40625 243.292969 106.035156 242.550781 104.949219 C 249.980469 101.863281 255.183594 94.488281 255.183594 85.96875 C 255.183594 74.59375 245.980469 65.390625 234.601562 65.390625 L 72.257812 65.390625 C 58.363281 65.390625 47.101562 76.652344 47.101562 90.542969 C 47.101562 99.0625 51.332031 106.550781 57.792969 111.121094 L 53.964844 111.121094 C 37.558594 111.121094 24.238281 124.441406 24.238281 140.847656 C 24.238281 151.480469 29.839844 160.800781 38.242188 166.058594 C 20.234375 167.085938 5.945312 182.0625 5.945312 200.300781 C 5.945312 219.222656 21.324219 234.597656 40.242188 234.597656 L 280.335938 234.597656 C 285.367188 234.597656 289.480469 230.480469 289.480469 225.453125 C 289.480469 220.820312 286.050781 217.046875 281.59375 216.421875 Z M 271.1875 133.988281 C 271.1875 144.050781 262.957031 152.28125 252.894531 152.28125 L 196.875 152.28125 C 192.472656 152.28125 188.871094 148.679688 188.871094 144.277344 C 188.871094 139.875 192.472656 136.273438 196.875 136.273438 L 255.183594 136.273438 C 256.441406 136.273438 257.46875 135.246094 257.46875 133.988281 C 257.46875 132.730469 256.441406 131.703125 255.183594 131.703125 L 196.875 131.703125 C 189.957031 131.703125 184.296875 137.363281 184.296875 144.277344 C 184.296875 151.195312 189.957031 156.855469 196.875 156.855469 L 257.46875 156.855469 C 259.984375 156.855469 262.042969 158.914062 262.042969 161.425781 C 262.042969 163.941406 259.984375 166 257.46875 166 L 195.730469 166 C 181.839844 166 170.578125 154.738281 170.578125 140.847656 C 170.578125 126.957031 181.839844 115.695312 195.730469 115.695312 L 252.894531 115.695312 C 262.957031 115.695312 271.1875 123.925781 271.1875 133.988281 Z M 145.425781 166 C 131.535156 166 120.273438 154.738281 120.273438 140.847656 C 120.273438 126.957031 131.535156 115.695312 145.425781 115.695312 L 179.898438 115.695312 C 171.550781 120.957031 166.003906 130.273438 166.003906 140.847656 C 166.003906 151.425781 171.550781 160.742188 179.898438 166 Z M 97.410156 140.847656 C 97.410156 126.957031 108.667969 115.695312 122.5625 115.695312 L 129.59375 115.695312 C 121.246094 120.957031 115.699219 130.273438 115.699219 140.847656 C 115.699219 151.425781 121.246094 160.742188 129.59375 166 L 122.5625 166 C 108.667969 166 97.410156 154.738281 97.410156 140.847656 Z M 234.601562 69.964844 C 243.40625 69.964844 250.609375 77.167969 250.609375 85.96875 C 250.609375 94.773438 243.40625 101.976562 234.601562 101.976562 L 204.878906 101.976562 C 201.105469 101.976562 198.019531 98.890625 198.019531 95.117188 C 198.019531 91.34375 201.105469 88.257812 204.878906 88.257812 L 236.890625 88.257812 C 238.148438 88.257812 239.175781 87.226562 239.175781 85.96875 C 239.175781 84.710938 238.148438 83.683594 236.890625 83.683594 L 204.878906 83.683594 C 198.589844 83.683594 193.445312 88.828125 193.445312 95.117188 C 193.445312 101.40625 198.589844 106.550781 204.878906 106.550781 L 236.890625 106.550781 C 238.148438 106.550781 239.175781 107.578125 239.175781 108.835938 C 239.175781 110.09375 238.148438 111.121094 236.890625 111.121094 L 200.304688 111.121094 C 188.929688 111.121094 179.726562 101.917969 179.726562 90.542969 C 179.726562 79.167969 188.929688 69.964844 200.304688 69.964844 Z M 185.84375 69.964844 C 179.382812 74.539062 175.152344 82.027344 175.152344 90.542969 C 175.152344 99.0625 179.382812 106.550781 185.84375 111.121094 L 154.574219 111.121094 C 143.195312 111.121094 133.992188 101.917969 133.992188 90.542969 C 133.992188 79.167969 143.195312 69.964844 154.574219 69.964844 Z M 140.109375 69.964844 C 133.652344 74.539062 129.421875 82.027344 129.421875 90.542969 C 129.421875 99.0625 133.652344 106.550781 140.109375 111.121094 L 131.707031 111.121094 C 120.332031 111.121094 111.128906 101.917969 111.128906 90.542969 C 111.128906 79.167969 120.332031 69.964844 131.707031 69.964844 Z M 51.675781 90.542969 C 51.675781 79.167969 60.878906 69.964844 72.257812 69.964844 L 117.246094 69.964844 C 110.785156 74.539062 106.554688 82.027344 106.554688 90.542969 C 106.554688 99.0625 110.785156 106.550781 117.246094 111.121094 L 72.257812 111.121094 C 60.878906 111.121094 51.675781 101.917969 51.675781 90.542969 Z M 28.8125 140.847656 C 28.8125 126.957031 40.074219 115.695312 53.964844 115.695312 L 106.726562 115.695312 C 98.378906 120.957031 92.835938 130.273438 92.835938 140.847656 C 92.835938 151.425781 98.378906 160.742188 106.726562 166 L 53.964844 166 C 40.074219 166 28.8125 154.738281 28.8125 140.847656 Z M 40.242188 230.023438 C 23.835938 230.023438 10.519531 216.707031 10.519531 200.300781 C 10.519531 183.894531 23.835938 170.574219 40.242188 170.574219 L 100.894531 170.574219 C 90.605469 176.519531 83.6875 187.609375 83.6875 200.300781 C 83.6875 212.988281 90.605469 224.078125 100.894531 230.023438 Z M 117.988281 230.023438 C 101.582031 230.023438 88.261719 216.707031 88.261719 200.300781 C 88.261719 183.894531 101.582031 170.574219 117.988281 170.574219 L 128.335938 170.574219 C 118.042969 176.519531 111.128906 187.609375 111.128906 200.300781 C 111.128906 212.988281 118.042969 224.078125 128.335938 230.023438 Z M 145.425781 230.023438 C 129.019531 230.023438 115.699219 216.707031 115.699219 200.300781 C 115.699219 183.894531 129.019531 170.574219 145.425781 170.574219 L 178.640625 170.574219 C 168.347656 176.519531 161.433594 187.609375 161.433594 200.300781 C 161.433594 212.988281 168.347656 224.078125 178.640625 230.023438 Z M 280.335938 230.023438 L 195.730469 230.023438 C 179.324219 230.023438 166.003906 216.707031 166.003906 200.300781 C 166.003906 183.894531 179.324219 170.574219 195.730469 170.574219 L 266.617188 170.574219 C 279.25 170.574219 289.480469 180.804688 289.480469 193.441406 C 289.480469 206.074219 279.25 216.304688 266.617188 216.304688 L 199.160156 216.304688 C 193.5 216.304688 188.871094 211.675781 188.871094 206.015625 C 188.871094 200.355469 193.5 195.726562 199.160156 195.726562 L 273.476562 195.726562 C 274.734375 195.726562 275.761719 194.699219 275.761719 193.441406 C 275.761719 192.183594 274.734375 191.152344 273.476562 191.152344 L 199.160156 191.152344 C 190.988281 191.152344 184.296875 197.839844 184.296875 206.015625 C 184.296875 214.191406 190.988281 220.878906 199.160156 220.878906 L 280.335938 220.878906 C 282.851562 220.878906 284.90625 222.9375 284.90625 225.453125 C 284.90625 227.96875 282.851562 230.023438 280.335938 230.023438 Z M 280.335938 230.023438 " fill-opacity="1" fill-rule="nonzero"/></g></svg>